# Blender v3.1.2 OBJ File: 'Witch_Tree (Toine Moment).blend'
# www.blender.org
mtllib Toine_Mushroom2.mtl
o Cube.029_Cube.030
v -0.179831 -0.032307 0.179831
v -0.136239 0.766231 0.138061
v -0.179831 -0.032307 -0.179831
v -0.108243 0.766231 -0.120367
v 0.179831 -0.032307 0.179831
v 0.133492 0.766231 0.133916
v 0.216453 -0.032307 -0.220688
v 0.110558 0.766231 -0.109576
v 0.000000 -0.032307 -0.339486
v 0.000000 0.766231 -0.179831
v 0.000000 -0.032307 0.272238
v 0.000000 0.766231 0.179831
v -0.276043 -0.032307 0.000000
v -0.179831 0.766231 0.000000
v 0.296949 -0.032307 0.000000
v 0.179831 0.766231 0.000000
v 0.000000 0.766231 0.000000
v 0.000000 -0.032307 0.000000
vt 0.375000 0.125000
vt 0.625000 0.125000
vt 0.625000 0.250000
vt 0.375000 0.250000
vt 0.375000 0.375000
vt 0.625000 0.375000
vt 0.625000 0.500000
vt 0.375000 0.500000
vt 0.375000 0.625000
vt 0.625000 0.625000
vt 0.625000 0.750000
vt 0.375000 0.750000
vt 0.375000 0.875000
vt 0.625000 0.875000
vt 0.625000 1.000000
vt 0.375000 1.000000
vt 0.250000 0.625000
vt 0.250000 0.750000
vt 0.750000 0.625000
vt 0.875000 0.625000
vt 0.875000 0.750000
vt 0.750000 0.750000
vt 0.125000 0.625000
vt 0.125000 0.750000
vt 0.125000 0.500000
vt 0.250000 0.500000
vt 0.750000 0.500000
vt 0.875000 0.500000
vt 0.375000 0.000000
vt 0.625000 0.000000
vn -0.8677 0.1092 -0.4850
vn 0.4926 0.1771 -0.8520
vn 0.8821 0.1035 0.4596
vn -0.3893 0.0877 0.9169
vn 0.0000 -1.0000 0.0000
vn 0.0000 1.0000 0.0000
vn 0.4022 0.0906 0.9111
vn -0.5999 0.1351 -0.7886
vn 0.8999 0.1540 -0.4081
vn -0.9116 0.0903 0.4009
usemtl None
s off
f 13/1/1 14/2/1 4/3/1 3/4/1
f 9/5/2 10/6/2 8/7/2 7/8/2
f 15/9/3 16/10/3 6/11/3 5/12/3
f 11/13/4 12/14/4 2/15/4 1/16/4
f 18/17/5 15/9/5 5/12/5 11/18/5
f 17/19/6 14/20/6 2/21/6 12/22/6
f 16/10/6 17/19/6 12/22/6 6/11/6
f 13/23/5 18/17/5 11/18/5 1/24/5
f 5/12/7 6/11/7 12/14/7 11/13/7
f 3/4/8 4/3/8 10/6/8 9/5/8
f 3/25/5 9/26/5 18/17/5 13/23/5
f 8/7/6 10/27/6 17/19/6 16/10/6
f 10/27/6 4/28/6 14/20/6 17/19/6
f 9/26/5 7/8/5 15/9/5 18/17/5
f 7/8/9 8/7/9 16/10/9 15/9/9
f 1/29/10 2/30/10 14/2/10 13/1/10
o Cylinder.029
v 0.000000 0.739771 -0.597140
v 0.000000 0.887050 -0.597140
v 0.422242 0.739771 -0.422242
v 0.422242 0.887050 -0.422242
v 0.597140 0.739771 0.000000
v 0.597140 0.887050 0.000000
v 0.422242 0.739771 0.422242
v 0.422242 0.887050 0.422242
v 0.000000 0.739771 0.597140
v 0.000000 0.887050 0.597140
v -0.422242 0.739771 0.422242
v -0.422242 0.887050 0.422242
v -0.597140 0.739771 0.000000
v -0.597140 0.887050 0.000000
v -0.422242 0.739771 -0.422242
v -0.422242 0.887050 -0.422242
v -0.002796 1.212844 0.000112
v -0.332309 1.000926 -0.330864
v -0.332309 1.000926 0.330975
v 0.329531 1.000926 0.330975
v 0.329531 1.000926 -0.330864
v -0.461266 1.003954 0.000057
v -0.001427 1.003963 0.459873
v 0.458365 1.003972 0.000057
v -0.001427 1.003964 -0.459757
v -0.002107 1.119362 -0.326104
v -0.328313 1.119357 0.000084
v -0.002107 1.119361 0.326274
v 0.324065 1.119366 0.000084
v -0.228411 1.122055 -0.226210
v -0.228412 1.122054 0.226380
v 0.224156 1.122066 0.226357
v 0.224155 1.122066 -0.226187
vt 1.000000 0.500000
vt 1.000000 1.000000
vt 0.875000 1.000000
vt 0.875000 0.500000
vt 0.750000 1.000000
vt 0.750000 0.500000
vt 0.625000 1.000000
vt 0.625000 0.500000
vt 0.500000 1.000000
vt 0.500000 0.500000
vt 0.375000 1.000000
vt 0.375000 0.500000
vt 0.250000 1.000000
vt 0.250000 0.500000
vt 0.165147 0.334853
vt 0.080294 0.419706
vt 0.010000 0.250000
vt 0.132090 0.250000
vt 0.125000 1.000000
vt 0.125000 0.500000
vt 0.000000 1.000000
vt 0.000000 0.500000
vt 0.750000 0.490000
vt 0.919706 0.419706
vt 0.990000 0.250000
vt 0.919706 0.080294
vt 0.750000 0.010000
vt 0.580294 0.080294
vt 0.510000 0.250000
vt 0.580294 0.419706
vt 0.250000 0.308952
vt 0.209102 0.290898
vt 0.250000 0.250000
vt 0.165147 0.165147
vt 0.080294 0.080294
vt 0.250000 0.010000
vt 0.250000 0.132096
vt 0.308949 0.250000
vt 0.290894 0.290894
vt 0.209102 0.209102
vt 0.191045 0.250000
vt 0.290894 0.209106
vt 0.250000 0.191048
vt 0.419706 0.080294
vt 0.334853 0.165147
vt 0.490000 0.250000
vt 0.419706 0.419706
vt 0.334853 0.334853
vt 0.367898 0.250000
vt 0.250000 0.490000
vt 0.250000 0.367903
vn 0.3827 0.0000 -0.9239
vn 0.9239 0.0000 -0.3827
vn 0.9239 0.0000 0.3827
vn 0.3827 0.0000 0.9239
vn -0.3827 0.0000 0.9239
vn -0.9239 0.0000 0.3827
vn -0.6368 0.7260 -0.2598
vn -0.9239 0.0000 -0.3827
vn -0.3827 0.0000 -0.9239
vn 0.0000 -1.0000 0.0000
vn -0.1096 0.9555 -0.2740
vn -0.2590 0.7279 0.6348
vn 0.2733 0.9557 -0.1093
vn -0.2744 0.9553 0.1097
vn 0.2733 0.9557 0.1093
vn 0.1094 0.9556 0.2737
vn 0.1094 0.9556 -0.2736
vn -0.6369 0.7259 0.2599
vn -0.6238 0.7382 -0.2566
vn 0.2578 0.7309 0.6319
vn -0.2562 0.7391 0.6229
vn 0.6296 0.7332 -0.2569
vn 0.6297 0.7331 0.2569
vn 0.2577 0.7312 -0.6316
vn -0.2589 0.7282 -0.6345
vn -0.2744 0.9553 -0.1097
vn -0.2562 0.7393 -0.6228
vn -0.1096 0.9554 0.2741
vn -0.6239 0.7382 0.2567
vn 0.6205 0.7415 0.2552
vn 0.2557 0.7405 0.6215
vn 0.6204 0.7416 -0.2552
vn 0.2556 0.7407 -0.6214
usemtl None
s off
f 19/31/11 20/32/11 22/33/11 21/34/11
f 21/34/12 22/33/12 24/35/12 23/36/12
f 23/36/13 24/35/13 26/37/13 25/38/13
f 25/38/14 26/37/14 28/39/14 27/40/14
f 27/40/15 28/39/15 30/41/15 29/42/15
f 29/42/16 30/41/16 32/43/16 31/44/16
f 36/45/17 34/46/17 32/47/17 40/48/17
f 31/44/18 32/43/18 34/49/18 33/50/18
f 33/50/19 34/49/19 20/51/19 19/52/19
f 19/53/20 21/54/20 23/55/20 25/56/20 27/57/20 29/58/20 31/59/20 33/60/20
f 44/61/21 48/62/21 35/63/21
f 37/64/22 30/65/22 28/66/22 41/67/22
f 47/68/23 51/69/23 35/63/23
f 49/70/24 35/63/24 45/71/24
f 50/72/25 47/68/25 35/63/25
f 50/72/26 35/63/26 46/73/26
f 51/69/27 44/61/27 35/63/27
f 30/65/28 37/64/28 40/48/28 32/47/28
f 48/62/29 36/45/29 40/48/29 45/71/29
f 26/74/30 38/75/30 41/67/30 28/66/30
f 49/70/31 37/64/31 41/67/31 46/73/31
f 24/76/32 22/77/32 39/78/32 42/79/32
f 26/74/33 24/76/33 42/79/33 38/75/33
f 22/77/34 20/80/34 43/81/34 39/78/34
f 20/80/35 34/46/35 36/45/35 43/81/35
f 35/63/36 48/62/36 45/71/36
f 43/81/37 36/45/37 48/62/37 44/61/37
f 35/63/38 49/70/38 46/73/38
f 37/64/39 49/70/39 45/71/39 40/48/39
f 38/75/40 42/79/40 47/68/40 50/72/40
f 38/75/41 50/72/41 46/73/41 41/67/41
f 42/79/42 39/78/42 51/69/42 47/68/42
f 39/78/43 43/81/43 44/61/43 51/69/43
