# Blender v3.1.2 OBJ File: 'Witch_Tree (Toine Moment).blend'
# www.blender.org
mtllib Toine_Mushroom1.mtl
o Cube.028_Cube.029
v -0.110068 -0.031182 0.274032
v -0.062672 0.837037 0.228618
v -0.110068 -0.031182 -0.117013
v -0.032233 0.837037 -0.052361
v 0.280978 -0.031182 0.274032
v 0.230595 0.837037 0.224111
v 0.320796 -0.031182 -0.161436
v 0.205660 0.837037 -0.040629
v 0.085455 -0.031182 -0.290601
v 0.085455 0.837037 -0.117013
v 0.085455 -0.031182 0.374503
v 0.085455 0.837037 0.274032
v -0.214676 -0.031182 0.078509
v -0.110068 0.837037 0.078509
v 0.408316 -0.031182 0.078509
v 0.280978 0.837037 0.078509
v 0.085455 0.837037 0.078509
v 0.085455 -0.031182 0.078509
vt 0.375000 0.125000
vt 0.625000 0.125000
vt 0.625000 0.250000
vt 0.375000 0.250000
vt 0.375000 0.375000
vt 0.625000 0.375000
vt 0.625000 0.500000
vt 0.375000 0.500000
vt 0.375000 0.625000
vt 0.625000 0.625000
vt 0.625000 0.750000
vt 0.375000 0.750000
vt 0.375000 0.875000
vt 0.625000 0.875000
vt 0.625000 1.000000
vt 0.375000 1.000000
vt 0.250000 0.625000
vt 0.250000 0.750000
vt 0.750000 0.625000
vt 0.875000 0.625000
vt 0.875000 0.750000
vt 0.750000 0.750000
vt 0.125000 0.625000
vt 0.125000 0.750000
vt 0.125000 0.500000
vt 0.250000 0.500000
vt 0.750000 0.500000
vt 0.875000 0.500000
vt 0.375000 0.000000
vt 0.625000 0.000000
vn -0.8677 0.1092 -0.4850
vn 0.4926 0.1771 -0.8520
vn 0.8821 0.1035 0.4596
vn -0.3893 0.0877 0.9169
vn 0.0000 -1.0000 0.0000
vn 0.0000 1.0000 -0.0000
vn 0.4022 0.0906 0.9111
vn -0.5999 0.1351 -0.7886
vn 0.8999 0.1540 -0.4081
vn -0.9116 0.0903 0.4009
usemtl None
s off
f 13/1/1 14/2/1 4/3/1 3/4/1
f 9/5/2 10/6/2 8/7/2 7/8/2
f 15/9/3 16/10/3 6/11/3 5/12/3
f 11/13/4 12/14/4 2/15/4 1/16/4
f 18/17/5 15/9/5 5/12/5 11/18/5
f 17/19/6 14/20/6 2/21/6 12/22/6
f 16/10/6 17/19/6 12/22/6 6/11/6
f 13/23/5 18/17/5 11/18/5 1/24/5
f 5/12/7 6/11/7 12/14/7 11/13/7
f 3/4/8 4/3/8 10/6/8 9/5/8
f 3/25/5 9/26/5 18/17/5 13/23/5
f 8/7/6 10/27/6 17/19/6 16/10/6
f 10/27/6 4/28/6 14/20/6 17/19/6
f 9/26/5 7/8/5 15/9/5 18/17/5
f 7/8/9 8/7/9 16/10/9 15/9/9
f 1/29/10 2/30/10 14/2/10 13/1/10
o Cylinder.028
v 0.085455 0.851198 -0.612767
v 0.085455 1.011328 -0.570737
v 0.574261 0.851198 -0.410297
v 0.544542 1.011328 -0.380577
v 0.776731 0.851198 0.078509
v 0.671220 1.011328 0.109161
v 0.574261 0.851198 0.567315
v 0.499653 1.011328 0.523359
v 0.085455 0.851198 0.769786
v 0.085455 1.011328 0.694926
v -0.403351 0.851198 0.567315
v -0.328743 1.011328 0.523359
v -0.605821 0.851198 0.078509
v -0.500310 1.011328 0.109161
v -0.403351 0.851198 -0.410297
v -0.373632 1.011328 -0.380577
v 0.082415 1.073719 0.078631
vt 1.000000 0.500000
vt 1.000000 1.000000
vt 0.875000 1.000000
vt 0.875000 0.500000
vt 0.750000 1.000000
vt 0.750000 0.500000
vt 0.625000 1.000000
vt 0.625000 0.500000
vt 0.500000 1.000000
vt 0.500000 0.500000
vt 0.375000 1.000000
vt 0.375000 0.500000
vt 0.250000 1.000000
vt 0.250000 0.500000
vt 0.250000 0.250000
vt 0.080294 0.419706
vt 0.010000 0.250000
vt 0.125000 1.000000
vt 0.125000 0.500000
vt 0.000000 1.000000
vt 0.000000 0.500000
vt 0.750000 0.490000
vt 0.919706 0.419706
vt 0.990000 0.250000
vt 0.919706 0.080294
vt 0.750000 0.010000
vt 0.580294 0.080294
vt 0.510000 0.250000
vt 0.580294 0.419706
vt 0.250000 0.490000
vt 0.080294 0.080294
vt 0.250000 0.010000
vt 0.490000 0.250000
vt 0.419706 0.419706
vt 0.419706 0.080294
vn 0.3719 0.2357 -0.8979
vn 0.8610 0.4181 -0.2896
vn 0.8145 0.4721 0.3374
vn 0.3513 0.3965 0.8482
vn -0.3513 0.3965 0.8482
vn -0.8145 0.4721 0.3374
vn -0.1079 0.9938 -0.0279
vn -0.8610 0.4181 -0.2896
vn -0.3719 0.2357 -0.8979
vn 0.0000 -1.0000 0.0000
vn -0.0397 0.9946 -0.0957
vn -0.0418 0.9940 0.1008
vn 0.1067 0.9939 -0.0276
vn -0.1041 0.9936 0.0431
vn 0.1031 0.9938 0.0427
vn 0.0416 0.9941 0.1004
vn 0.0395 0.9947 -0.0954
usemtl None
s off
f 19/31/11 20/32/11 22/33/11 21/34/11
f 21/34/12 22/33/12 24/35/12 23/36/12
f 23/36/13 24/35/13 26/37/13 25/38/13
f 25/38/14 26/37/14 28/39/14 27/40/14
f 27/40/15 28/39/15 30/41/15 29/42/15
f 29/42/16 30/41/16 32/43/16 31/44/16
f 35/45/17 34/46/17 32/47/17
f 31/44/18 32/43/18 34/48/18 33/49/18
f 33/49/19 34/48/19 20/50/19 19/51/19
f 19/52/20 21/53/20 23/54/20 25/55/20 27/56/20 29/57/20 31/58/20 33/59/20
f 20/60/21 34/46/21 35/45/21
f 35/45/22 30/61/22 28/62/22
f 24/63/23 22/64/23 35/45/23
f 30/61/24 35/45/24 32/47/24
f 26/65/25 24/63/25 35/45/25
f 26/65/26 35/45/26 28/62/26
f 22/64/27 20/60/27 35/45/27
