# Blender v3.1.2 OBJ File: 'Witch_Tree.blend'
# www.blender.org
mtllib Witch_NewTree3.mtl
o Cylinder.026
v -0.118241 -0.191585 -1.405766
v 0.651723 -0.191585 -1.123856
v 1.583728 -0.191585 -0.530745
v 1.658185 -0.191585 0.538777
v 1.387693 -0.191585 1.595086
v -0.015580 -0.191585 1.912929
v -1.121993 -0.191585 1.626101
v -2.146487 -0.191585 0.870642
v -2.056874 -0.191585 -0.744699
v -1.209116 -0.191585 -1.522372
v 0.000000 1.946262 -1.166373
v 0.024436 3.357899 -1.000000
v 0.469012 5.861579 -0.807430
v 0.476317 8.613477 -0.878759
v 0.589484 11.174370 -0.639005
v 0.871082 11.174370 -0.088852
v 0.894896 8.613477 -0.424053
v 0.938698 5.861579 -0.405732
v 0.710100 3.260157 -0.878545
v 0.685577 1.946262 -0.943616
v 0.775528 11.174370 0.521750
v 0.966265 8.613477 0.189846
v 1.082570 5.861579 0.195323
v 0.951057 3.626691 -0.309017
v 1.302861 1.946262 -0.438209
v 0.339319 11.174370 0.959572
v 0.663163 8.613477 0.728451
v 0.845673 5.861579 0.766152
v 0.951056 3.626691 0.309017
v 1.109287 1.946262 0.360429
v -0.270926 11.174370 1.057381
v 0.101364 8.613477 0.986032
v 0.230143 5.848594 1.061738
v 0.587785 3.626691 0.809017
v 0.685577 1.946262 0.943616
v -0.822116 11.174370 0.777817
v -0.504544 8.613477 0.864202
v -0.000000 3.626691 1.000000
v -0.000000 1.946262 1.166373
v -1.103714 11.174370 0.227663
v -0.923123 8.613477 0.409497
v -0.720155 5.834574 0.664616
v -0.587785 3.577820 0.809017
v -0.685577 1.946262 0.943616
v -1.008159 11.174370 -0.382939
v -0.994492 8.613477 -0.204402
v -0.911159 5.861579 0.037059
v -0.951056 3.626691 0.309017
v -1.228198 1.946262 0.532093
v -0.571950 11.174370 -0.820761
v -0.691389 8.613477 -0.743007
v -0.674262 5.861579 -0.533770
v -0.951056 3.626691 -0.309017
v -1.109287 1.946262 -0.360429
v 0.038295 11.174370 -0.918570
v -0.129591 8.613477 -1.000588
v -0.147083 5.861579 -0.856336
v -0.656729 3.626691 -0.990632
v -0.891090 1.946262 -1.110804
v -0.377459 5.142750 0.921719
v -0.340180 6.591930 0.940298
v -0.650739 5.368834 0.747903
v -0.619559 6.279024 0.762693
v -0.014868 6.320451 1.013077
v -0.010608 5.306589 1.013436
v -0.698240 5.197078 0.828236
v -0.663522 5.197099 0.748179
v -0.382402 4.974716 0.931846
v -0.630810 6.452434 0.763866
v -0.767287 5.861579 0.638114
v -0.010658 6.496753 1.021232
v -0.345125 6.758883 0.951540
v -0.006486 5.128347 1.020852
v 0.318495 5.861579 1.088719
v -0.079420 5.879405 0.369381
v 0.206836 6.320946 0.482827
v -0.429035 5.369328 0.217653
v -0.397855 6.279518 0.232443
v 0.211096 5.307084 0.483186
v -0.155755 5.143245 0.391469
v -0.498451 5.835069 0.134366
v -0.118475 6.592425 0.410048
v 0.451847 5.849089 0.531488
v -0.417120 4.974694 1.011903
v -0.665528 6.452413 0.843923
v -0.802005 5.861558 0.718171
v -0.045376 6.496732 1.101289
v -0.379843 6.758862 1.031596
v -0.041204 5.128326 1.100909
v 0.283776 5.861558 1.168775
v -0.685457 5.368813 0.827960
v -0.412177 5.142729 1.001776
v -0.654277 6.279002 0.842750
v -0.754873 5.834553 0.744673
v -0.049586 6.320430 1.093134
v -0.374898 6.591909 1.020355
v -0.045327 5.306568 1.093493
v 0.195425 5.848573 1.141795
vt 0.750000 0.490000
vt 0.891068 0.444164
vt 0.978254 0.324164
vt 0.978254 0.175836
vt 0.891068 0.055836
vt 0.750000 0.010000
vt 0.608932 0.055836
vt 0.521746 0.175836
vt 0.521746 0.324164
vt 0.608932 0.444164
vt 0.100000 0.500000
vt 0.100000 0.571429
vt -0.000000 0.571429
vt -0.000000 0.500000
vt 0.100000 0.642857
vt -0.000000 0.642857
vt 0.100000 0.714286
vt -0.000000 0.714286
vt 0.100000 0.785714
vt -0.000000 0.785714
vt 0.100000 0.857143
vt -0.000000 0.857143
vt 0.200000 0.500000
vt 0.200000 0.571429
vt 0.200000 0.642857
vt 0.200000 0.714286
vt 0.200000 0.785714
vt 0.200000 0.857143
vt 0.300000 0.857143
vt 0.400000 0.857143
vt 0.500000 0.857143
vt 0.600000 0.857143
vt 0.700000 0.857143
vt 0.800000 0.857143
vt 0.900000 0.857143
vt 1.000000 0.857143
vt 0.300000 0.500000
vt 0.300000 0.571429
vt 0.300000 0.642857
vt 0.300000 0.714286
vt 0.300000 0.785714
vt 0.400000 0.500000
vt 0.400000 0.571429
vt 0.400000 0.642857
vt 0.400000 0.714286
vt 0.400000 0.785714
vt 0.500000 0.500000
vt 0.500000 0.571429
vt 0.500000 0.642857
vt 0.500000 0.785714
vt 0.600000 0.500000
vt 0.600000 0.571429
vt 0.600000 0.642857
vt 0.525633 0.677564
vt 0.512816 0.666822
vt 0.500000 0.656081
vt 0.600000 0.785714
vt 0.700000 0.500000
vt 0.700000 0.571429
vt 0.700000 0.642857
vt 0.700000 0.714286
vt 0.600000 0.714286
vt 0.700000 0.785714
vt 0.800000 0.500000
vt 0.800000 0.571429
vt 0.800000 0.642857
vt 0.800000 0.714286
vt 0.800000 0.785714
vt 0.900000 0.500000
vt 0.900000 0.571429
vt 0.900000 0.642857
vt 0.900000 0.714286
vt 0.900000 0.785714
vt 1.000000 0.500000
vt 1.000000 0.571429
vt 1.000000 0.642857
vt 1.000000 0.714286
vt 1.000000 0.785714
vt 0.470586 0.685695
vt 0.435293 0.699991
vt 0.532153 0.738887
vt 0.566076 0.726586
vt 0.522243 0.682382
vt 0.524372 0.705050
vt 0.524372 0.705050
vt 0.522243 0.682382
vt 0.471104 0.744778
vt 0.485552 0.755889
vt 0.500000 0.767001
vt 0.496281 0.736827
vt 0.475558 0.739245
vt 0.475558 0.739245
vt 0.496281 0.736827
vt 0.502345 0.686788
vt 0.502345 0.686788
vt 0.525633 0.733664
vt 0.525633 0.733664
vt 0.566076 0.726586
vt 0.600000 0.714286
vt 0.496281 0.736827
vt 0.475558 0.739245
vt 0.470586 0.685695
vt 0.435293 0.699991
vt 0.485552 0.755889
vt 0.500000 0.767001
vt 0.476037 0.691520
vt 0.474395 0.719196
vt 0.474395 0.719196
vt 0.476037 0.691520
vt 0.502345 0.686788
vt 0.400000 0.714286
vt 0.522243 0.682382
vt 0.524372 0.705050
vt 0.499869 0.711731
vt 0.474395 0.719196
vt 0.476037 0.691520
vt 0.470845 0.715237
vt 0.501629 0.741832
vt 0.471104 0.744778
vt 0.525633 0.733664
vt 0.528893 0.708225
vt 0.532153 0.738887
vt 0.498110 0.681630
vt 0.525633 0.677564
vt 0.512816 0.666822
vt 0.500000 0.656081
vn 0.0000 -1.0000 0.0000
vn 0.0304 0.1474 -0.9886
vn -0.0250 0.0943 -0.9952
vn 0.0429 0.0602 -0.9973
vn 0.1383 -0.0394 -0.9896
vn 0.3275 0.0413 -0.9440
vn -0.7743 0.3297 -0.5401
vn -0.9340 0.1262 -0.3343
vn -0.7682 0.1224 -0.6284
vn -0.4694 -0.0566 -0.8812
vn -0.2901 0.0171 -0.9568
vn 0.0000 1.0000 -0.0000
vn -0.9136 0.3995 -0.0760
vn -0.9892 0.1242 -0.0779
vn -0.9796 0.0477 -0.1952
vn -0.8979 -0.0522 -0.4370
vn -0.7972 -0.0137 -0.6036
vn -0.5582 0.3558 0.7496
vn -0.6966 0.1545 0.7006
vn -0.9080 0.0130 0.4188
vn -0.9843 -0.0279 0.1744
vn -0.9990 -0.0393 -0.0197
vn -0.2581 0.3307 0.9078
vn -0.3109 0.0951 0.9457
vn -0.8194 -0.0498 0.5710
vn 0.2360 0.3360 0.9118
vn 0.3077 0.0937 0.9469
vn 0.0880 -0.0539 0.9947
vn -0.3275 -0.0413 0.9440
vn 0.8705 0.3262 0.3686
vn 0.8055 0.0937 0.5852
vn 0.6772 -0.0641 0.7330
vn 0.4694 0.0566 0.8812
vn 0.2901 -0.0171 0.9568
vn 0.9795 0.1913 0.0625
vn 0.9802 0.1457 0.1339
vn 0.9796 -0.0477 0.1952
vn 0.8979 0.0522 0.4370
vn 0.7972 0.0137 0.6036
vn 0.5763 0.0851 -0.8128
vn 0.7543 0.1243 -0.6446
vn 0.9507 -0.0082 -0.3100
vn 0.9843 0.0279 -0.1744
vn 0.9990 0.0393 0.0197
vn 0.3265 0.0808 -0.9417
vn 0.2479 0.0775 -0.9657
vn 0.4161 0.0634 -0.9071
vn 0.6941 -0.0071 -0.7199
vn 0.8194 0.0498 -0.5710
vn -0.4465 -0.0208 0.8945
vn -0.1813 0.0270 0.9831
vn -0.8188 -0.4605 -0.3428
vn -0.6858 0.0082 0.7277
vn 0.8853 -0.2820 0.3699
vn -0.8433 0.4060 -0.3522
vn 0.6389 -0.7217 0.2665
vn 0.8147 0.4597 0.3534
vn 0.8799 -0.2833 0.3815
vn -0.5115 -0.8301 -0.2221
vn -0.6176 0.7396 -0.2676
vn 0.5294 0.8166 0.2298
vn -0.3690 0.9156 -0.1598
vn -0.8980 -0.2047 -0.3895
vn -0.8148 -0.4595 -0.3535
vn -0.2919 -0.0009 0.9565
vn -0.3772 -0.0733 0.9232
vn -0.4894 0.0026 0.8721
vn -0.3768 0.0668 0.9239
vn 0.9035 0.2022 0.3779
vn -0.5878 -0.7705 -0.2465
vn 0.5329 0.8161 0.2236
vn -0.3705 0.9159 -0.1541
vn -0.5106 0.0529 0.8582
vn -0.5491 -0.0546 0.8340
vn -0.2531 -0.0551 0.9659
vn -0.2856 0.0395 0.9575
vn -0.5265 0.0643 0.8477
vn -0.4986 -0.0553 0.8651
vn -0.2768 -0.0428 0.9600
vn -0.2561 0.0495 0.9654
vn -0.8796 0.2843 -0.3814
vn -0.5855 -0.7698 -0.2541
vn 0.3437 -0.9272 0.1488
vn 0.5658 0.7872 0.2456
vn -0.8389 0.4050 -0.3637
vn 0.8387 -0.4054 0.3636
vn 0.8982 0.2035 0.3896
vn 0.6344 -0.7225 0.2749
usemtl None
s off
f 1/1/1 2/2/1 3/3/1 4/4/1 5/5/1 6/6/1 7/7/1 8/8/1 9/9/1 10/10/1
f 10/11/2 59/12/2 11/13/2 1/14/2
f 59/12/3 58/15/3 12/16/3 11/13/3
f 58/15/4 57/17/4 13/18/4 12/16/4
f 57/17/5 56/19/5 14/20/5 13/18/5
f 56/19/6 55/21/6 15/22/6 14/20/6
f 9/23/7 54/24/7 59/12/7 10/11/7
f 54/24/8 53/25/8 58/15/8 59/12/8
f 53/25/9 52/26/9 57/17/9 58/15/9
f 52/26/10 51/27/10 56/19/10 57/17/10
f 51/27/11 50/28/11 55/21/11 56/19/11
f 55/21/12 50/28/12 45/29/12 40/30/12 36/31/12 31/32/12 26/33/12 21/34/12 16/35/12 15/36/12
f 8/37/13 49/38/13 54/24/13 9/23/13
f 49/38/14 48/39/14 53/25/14 54/24/14
f 48/39/15 47/40/15 52/26/15 53/25/15
f 47/40/16 46/41/16 51/27/16 52/26/16
f 46/41/17 45/29/17 50/28/17 51/27/17
f 7/42/18 44/43/18 49/38/18 8/37/18
f 44/43/19 43/44/19 48/39/19 49/38/19
f 43/44/20 70/45/20 47/40/20 48/39/20
f 70/45/21 41/46/21 46/41/21 47/40/21
f 41/46/22 40/30/22 45/29/22 46/41/22
f 6/47/23 39/48/23 44/43/23 7/42/23
f 39/48/24 38/49/24 43/44/24 44/43/24
f 37/50/25 36/31/25 40/30/25 41/46/25
f 5/51/26 35/52/26 39/48/26 6/47/26
f 35/52/27 34/53/27 38/49/27 39/48/27
f 34/53/28 74/54/28 73/55/28 68/56/28 38/49/28
f 32/57/29 31/32/29 36/31/29 37/50/29
f 4/58/30 30/59/30 35/52/30 5/51/30
f 30/59/31 29/60/31 34/53/31 35/52/31
f 29/60/32 28/61/32 74/62/32 34/53/32
f 28/61/33 27/63/33 32/57/33 74/62/33
f 27/63/34 26/33/34 31/32/34 32/57/34
f 3/64/35 25/65/35 30/59/35 4/58/35
f 25/65/36 24/66/36 29/60/36 30/59/36
f 24/66/37 23/67/37 28/61/37 29/60/37
f 23/67/38 22/68/38 27/63/38 28/61/38
f 22/68/39 21/34/39 26/33/39 27/63/39
f 2/69/40 20/70/40 25/65/40 3/64/40
f 20/70/41 19/71/41 24/66/41 25/65/41
f 19/71/42 18/72/42 23/67/42 24/66/42
f 18/72/43 17/73/43 22/68/43 23/67/43
f 17/73/44 16/35/44 21/34/44 22/68/44
f 1/74/45 11/75/45 20/70/45 2/69/45
f 11/75/46 12/76/46 19/71/46 20/70/46
f 12/76/47 13/77/47 18/72/47 19/71/47
f 13/77/48 14/78/48 17/73/48 18/72/48
f 14/78/49 15/36/49 16/35/49 17/73/49
f 38/49/50 68/79/50 67/80/50 70/45/50 43/44/50
f 74/62/51 32/57/51 37/50/51 72/81/51 71/82/51
f 33/83/52 64/84/52 76/85/52 83/86/52
f 70/87/53 69/88/53 72/89/53 37/50/53 41/46/53
f 63/90/54 42/91/54 81/92/54 78/93/54
f 65/94/55 33/83/55 83/86/55 79/95/55
f 61/96/56 63/90/56 78/93/56 82/97/56
f 74/62/57 71/82/57 87/98/57 90/99/57
f 42/91/58 63/90/58 93/100/58 94/101/58
f 67/80/59 68/79/59 84/102/59 66/103/59
f 72/89/60 69/88/60 85/104/60 88/105/60
f 60/106/61 62/107/61 91/108/61 92/109/61
f 65/94/62 60/106/62 92/109/62 97/110/62
f 70/45/63 67/80/63 66/103/63 86/111/63
f 64/84/64 33/83/64 98/112/64 95/113/64
f 75/114/65 79/95/65 83/86/65 76/85/65
f 78/93/66 75/114/66 76/85/66 82/97/66
f 81/92/67 77/115/67 75/114/67 78/93/67
f 77/115/68 80/116/68 79/95/68 75/114/68
f 42/91/69 62/107/69 77/115/69 81/92/69
f 64/84/70 61/96/70 82/97/70 76/85/70
f 62/107/71 60/106/71 80/116/71 77/115/71
f 60/106/72 65/94/72 79/95/72 80/116/72
f 92/109/73 91/108/73 66/117/73 84/102/73
f 94/101/74 93/100/74 85/118/74 86/119/74
f 96/120/75 95/113/75 87/121/75 88/122/75
f 98/112/76 97/110/76 89/123/76 90/124/76
f 91/108/77 94/101/77 86/119/77 66/117/77
f 93/100/78 96/120/78 88/122/78 85/118/78
f 95/113/79 98/112/79 90/124/79 87/121/79
f 97/110/80 92/109/80 84/102/80 89/123/80
f 69/88/81 70/87/81 86/119/81 85/104/81
f 61/96/82 64/84/82 95/113/82 96/120/82
f 68/56/83 73/55/83 89/125/83 84/126/83
f 71/82/84 72/81/84 88/122/84 87/98/84
f 33/83/85 65/94/85 97/110/85 98/112/85
f 73/55/86 74/54/86 90/124/86 89/125/86
f 62/107/87 42/91/87 94/101/87 91/108/87
f 63/90/88 61/96/88 96/120/88 93/100/88
