# Blender v3.1.2 OBJ File: 'Witch_Tree.blend'
# www.blender.org
mtllib Witch_RockWall.mtl
o Plane.009_Plane.005
v 44.640808 -1.122605 20.931667
v 45.830730 -1.123181 -55.286869
v 11.292379 88.272186 -0.966778
v 9.591984 85.666840 -76.479950
v 45.674103 -0.205703 -118.577606
v 1.590180 83.501152 -140.873199
v 62.334488 3.272485 -170.278763
v 14.471473 87.133385 -209.015823
v 39.030483 1.311235 58.796665
v -7.523411 73.361816 22.232910
v -3.063221 1.794786 99.159073
v -35.707916 95.095741 60.024151
v -84.140953 1.531645 126.667709
v -112.443787 89.841629 81.266068
v -161.146072 -1.946681 126.769196
v -185.418686 84.216667 94.980698
v 113.822891 1.412012 -210.873459
v 69.421318 70.770370 -252.381058
v 151.592896 1.001232 -274.767517
v 112.131866 87.596695 -304.285248
v 119.283211 -4.563669 -342.878387
v 97.906464 74.376610 -364.136658
v 16.905909 69.302032 12.586679
v 34.153175 49.563530 14.022369
v 35.025307 30.013716 15.375881
v 45.619774 23.461819 16.914700
v 49.668236 15.921864 18.314175
v 45.641228 7.162994 19.541748
v 33.176353 5.158808 -56.625175
v 42.133167 14.625586 -57.963486
v 47.473961 23.559481 -59.301792
v 40.686420 30.706051 -60.640102
v 36.609406 50.575787 -61.978409
v 22.621490 74.313759 -63.316719
v 45.829346 8.088358 -119.175110
v 41.316635 15.494554 -120.963943
v 38.945213 23.264814 -122.463745
v 26.956034 29.399828 -125.261765
v 32.601738 50.160992 -125.481415
v 15.606913 69.474159 -129.267029
v 60.298183 11.118268 -171.622971
v 59.893387 19.301884 -172.386444
v 55.103497 26.290075 -176.422363
v 57.543266 35.249241 -175.063080
v 51.054840 53.800720 -177.704468
v 27.118944 67.992928 -196.631729
v 16.700500 77.592270 47.244328
v 37.362083 53.259014 51.730808
v 38.343273 33.925938 54.209972
v 21.445286 21.869375 47.090755
v 30.206112 15.609407 51.978924
v 34.236439 8.280782 54.653393
v -20.218048 75.892509 87.110672
v -7.644626 49.150776 93.016479
v -8.726076 33.360947 92.693954
v -3.392098 27.261736 101.548645
v -3.065675 18.905565 101.353210
v -8.933714 7.757559 89.962601
v -102.614975 59.867458 95.424622
v -94.784691 39.864563 101.246399
v -89.006958 33.349369 121.001816
v -86.648788 26.323872 126.950348
v -85.589943 18.257063 127.835831
v -88.364326 7.118323 113.784225
v -172.715637 77.217468 121.964783
v -165.046326 43.038986 128.771164
v -166.521194 29.349924 118.445389
v -166.137009 20.675444 116.302536
v -166.118179 11.677198 112.551529
v -162.299591 6.046076 125.525787
v 108.697784 8.181451 -215.918411
v 114.795250 18.261694 -211.090927
v 117.627197 27.396032 -209.032028
v 116.452141 35.369747 -210.370331
v 104.222099 47.785393 -222.248489
v 91.871307 73.023849 -224.962906
v 139.650208 6.939944 -278.776001
v 130.766602 13.610871 -281.107880
v 135.732681 22.622387 -281.654663
v 146.794235 32.664074 -281.415833
v 142.354202 52.865910 -283.673248
v 116.366402 70.933098 -286.144928
v 113.012970 2.773197 -343.537170
v 128.832977 12.870952 -347.142059
v 138.686356 22.222998 -349.951202
v 136.480225 30.067808 -351.151978
v 126.394936 50.077484 -351.301971
v 110.283089 66.966042 -351.348663
vt 0.000000 0.857143
vt 1.000000 0.857143
vt 1.000000 1.000000
vt 0.000000 1.000000
vt 1.000000 0.142857
vt 1.000000 0.000000
vt 1.000000 0.000000
vt 1.000000 0.142857
vt 1.000000 0.000000
vt 1.000000 0.142857
vt 0.000000 1.000000
vt 0.000000 0.857143
vt 0.000000 1.000000
vt 0.000000 0.857143
vt 0.000000 1.000000
vt 0.000000 0.857143
vt 0.000000 1.000000
vt 0.000000 0.857143
vt 1.000000 0.000000
vt 1.000000 0.142857
vt 1.000000 0.000000
vt 1.000000 0.142857
vt 1.000000 0.000000
vt 1.000000 0.142857
vt 1.000000 1.000000
vt 1.000000 0.857143
vt 1.000000 0.857143
vt 1.000000 1.000000
vt 1.000000 0.714286
vt 1.000000 0.714286
vt 1.000000 0.571429
vt 1.000000 0.571429
vt 1.000000 0.428571
vt 1.000000 0.428571
vt 1.000000 0.285714
vt 1.000000 0.285714
vt 1.000000 1.000000
vt 1.000000 0.857143
vt 1.000000 0.714286
vt 1.000000 0.571429
vt 1.000000 0.428571
vt 1.000000 0.285714
vt 1.000000 1.000000
vt 1.000000 0.857143
vt 1.000000 0.714286
vt 1.000000 0.571429
vt 1.000000 0.428571
vt 1.000000 0.285714
vt 0.000000 0.000000
vt 0.000000 0.142857
vt 0.000000 0.142857
vt 0.000000 0.000000
vt 0.000000 0.285714
vt 0.000000 0.285714
vt 0.000000 0.428571
vt 0.000000 0.428571
vt 0.000000 0.571429
vt 0.000000 0.571429
vt 0.000000 0.714286
vt 0.000000 0.714286
vt 0.000000 0.000000
vt 0.000000 0.142857
vt 0.000000 0.285714
vt 0.000000 0.428571
vt 0.000000 0.571429
vt 0.000000 0.714286
vt 0.000000 0.000000
vt 0.000000 0.142857
vt 0.000000 0.285714
vt 0.000000 0.428571
vt 0.000000 0.571429
vt 0.000000 0.714286
vt 0.000000 0.000000
vt 0.000000 0.142857
vt 0.000000 0.285714
vt 0.000000 0.428571
vt 0.000000 0.571429
vt 0.000000 0.714286
vt 1.000000 1.000000
vt 1.000000 0.857143
vt 1.000000 0.714286
vt 1.000000 0.571429
vt 1.000000 0.428571
vt 1.000000 0.285714
vt 1.000000 0.714286
vt 1.000000 0.571429
vt 1.000000 0.428571
vt 1.000000 0.285714
vn 0.8391 0.5431 0.0309
vn 0.7495 0.6552 0.0945
vn 0.9454 0.1453 0.2917
vn 0.2319 0.9549 0.1855
vn 0.3224 0.9462 0.0262
vn 0.0518 0.6573 0.7519
vn 0.2271 0.7829 0.5792
vn 0.5575 0.5464 0.6251
vn 0.4876 0.8355 0.2535
vn 0.6101 0.7232 -0.3236
vn 0.9071 0.3711 -0.1983
vn 0.6372 0.7571 -0.1442
vn 0.9270 0.3235 -0.1900
vn 0.8947 -0.4450 -0.0381
vn 0.7792 -0.6267 0.0112
vn 0.8857 -0.4291 -0.1774
vn 0.1520 0.9645 0.2160
vn 0.6763 0.6420 0.3611
vn 0.7392 0.5477 0.3919
vn 0.8421 -0.4434 0.3071
vn 0.8850 -0.4002 0.2379
vn 0.9390 0.1075 0.3268
vn 0.2174 0.9527 0.2125
vn 0.3845 0.6903 0.6129
vn 0.4871 0.5944 0.6398
vn 0.4881 -0.0375 0.8720
vn 0.5119 0.1655 0.8430
vn 0.5798 -0.3450 0.7381
vn 0.0319 0.7266 0.6863
vn -0.0196 -0.0653 0.9977
vn -0.1447 -0.1727 0.9743
vn -0.0951 0.2188 0.9711
vn 0.1469 0.4438 0.8840
vn 0.3809 0.3118 0.8705
vn 0.1272 0.9016 0.4135
vn 0.1950 -0.7697 0.6080
vn 0.2975 0.0651 0.9525
vn 0.1905 0.7816 0.5940
vn 0.1234 0.6665 0.7352
vn 0.0543 0.2652 0.9627
vn 0.4008 0.7969 0.4521
vn 0.6850 -0.3655 0.6303
vn 0.7345 0.5733 0.3631
vn 0.7146 -0.4003 0.5737
vn 0.6528 0.0446 0.7562
vn 0.5869 0.5099 0.6290
vn 0.9307 0.3048 0.2022
vn 0.9083 0.0988 0.4065
vn 0.5680 0.7139 0.4096
vn 0.8810 -0.3821 0.2791
vn 0.9953 0.0387 -0.0887
vn 0.7600 0.6354 -0.1368
vn 0.7196 0.6800 0.1403
vn 0.5716 0.8052 0.1578
vn 0.8983 0.0510 0.4365
vn 0.7619 0.5189 0.3876
vn 0.8094 0.5051 0.2995
vn 0.8925 0.3316 0.3058
vn 0.7358 0.6664 -0.1206
vn 0.8134 0.5743 -0.0926
vn 0.9897 -0.0434 -0.1364
vn 0.5902 0.7993 -0.1128
vn 0.9797 -0.1866 -0.0734
vn 0.9673 -0.2392 0.0840
vn 0.7852 0.6157 -0.0662
vn 0.8047 -0.5864 -0.0929
vn 0.9958 -0.0842 -0.0364
vn 0.6151 0.7877 0.0345
vn 0.9903 0.1280 0.0543
vn 0.8083 0.5850 0.0667
usemtl None
s off
f 23/1/1 34/2/1 4/3/1 3/4/1
f 29/5/2 2/6/2 5/7/2 35/8/2
f 35/8/3 5/7/3 7/9/3 41/10/3
f 23/1/4 3/4/4 10/11/4 47/12/4
f 47/12/5 10/11/5 12/13/5 53/14/5
f 53/14/6 12/13/6 14/15/6 59/16/6
f 59/16/7 14/15/7 16/17/7 65/18/7
f 41/10/8 7/9/8 17/19/8 71/20/8
f 71/20/9 17/19/9 19/21/9 77/22/9
f 77/22/10 19/21/10 21/23/10 83/24/10
f 20/25/11 82/26/11 88/27/11 22/28/11
f 82/26/12 81/29/12 87/30/12 88/27/12
f 81/29/13 80/31/13 86/32/13 87/30/13
f 80/31/14 79/33/14 85/34/14 86/32/14
f 79/33/15 78/35/15 84/36/15 85/34/15
f 78/35/16 77/22/16 83/24/16 84/36/16
f 18/37/17 76/38/17 82/26/17 20/25/17
f 76/38/18 75/39/18 81/29/18 82/26/18
f 75/39/19 74/40/19 80/31/19 81/29/19
f 74/40/20 73/41/20 79/33/20 80/31/20
f 73/41/21 72/42/21 78/35/21 79/33/21
f 72/42/22 71/20/22 77/22/22 78/35/22
f 8/43/23 46/44/23 76/38/23 18/37/23
f 46/44/24 45/45/24 75/39/24 76/38/24
f 45/45/25 44/46/25 74/40/25 75/39/25
f 44/46/26 43/47/26 73/41/26 74/40/26
f 43/47/27 42/48/27 72/42/27 73/41/27
f 42/48/28 41/10/28 71/20/28 72/42/28
f 13/49/29 64/50/29 70/51/29 15/52/29
f 64/50/30 63/53/30 69/54/30 70/51/30
f 63/53/31 62/55/31 68/56/31 69/54/31
f 62/55/32 61/57/32 67/58/32 68/56/32
f 61/57/33 60/59/33 66/60/33 67/58/33
f 60/59/34 59/16/34 65/18/34 66/60/34
f 11/61/35 58/62/35 64/50/35 13/49/35
f 58/62/36 57/63/36 63/53/36 64/50/36
f 57/63/37 56/64/37 62/55/37 63/53/37
f 56/64/38 55/65/38 61/57/38 62/55/38
f 55/65/39 54/66/39 60/59/39 61/57/39
f 54/66/40 53/14/40 59/16/40 60/59/40
f 9/67/41 52/68/41 58/62/41 11/61/41
f 52/68/42 51/69/42 57/63/42 58/62/42
f 51/69/43 50/70/43 56/64/43 57/63/43
f 50/70/44 49/71/44 55/65/44 56/64/44
f 49/71/45 48/72/45 54/66/45 55/65/45
f 48/72/46 47/12/46 53/14/46 54/66/46
f 1/73/47 28/74/47 52/68/47 9/67/47
f 28/74/48 27/75/48 51/69/48 52/68/48
f 27/75/49 26/76/49 50/70/49 51/69/49
f 26/76/50 25/77/50 49/71/50 50/70/50
f 25/77/51 24/78/51 48/72/51 49/71/51
f 24/78/52 23/1/52 47/12/52 48/72/52
f 6/79/53 40/80/53 46/44/53 8/43/53
f 40/80/54 39/81/54 45/45/54 46/44/54
f 39/81/55 38/82/55 44/46/55 45/45/55
f 38/82/56 37/83/56 43/47/56 44/46/56
f 37/83/57 36/84/57 42/48/57 43/47/57
f 36/84/58 35/8/58 41/10/58 42/48/58
f 4/3/59 34/2/59 40/80/59 6/79/59
f 34/2/60 33/85/60 39/81/60 40/80/60
f 33/85/61 32/86/61 38/82/61 39/81/61
f 32/86/62 31/87/62 37/83/62 38/82/62
f 31/87/63 30/88/63 36/84/63 37/83/63
f 30/88/64 29/5/64 35/8/64 36/84/64
f 1/73/65 2/6/65 29/5/65 28/74/65
f 28/74/66 29/5/66 30/88/66 27/75/66
f 27/75/67 30/88/67 31/87/67 26/76/67
f 26/76/68 31/87/68 32/86/68 25/77/68
f 25/77/69 32/86/69 33/85/69 24/78/69
f 24/78/70 33/85/70 34/2/70 23/1/70
