# Blender v3.1.2 OBJ File: 'Witch_Tree.blend'
# www.blender.org
mtllib Witch_Stump1.mtl
o Cylinder.010
v -0.016739 0.815676 -0.817401
v -0.016739 1.603531 -0.660785
v 0.441103 0.816953 -0.632911
v 0.450506 1.603531 -0.467245
v 0.768460 0.945632 0.000000
v 0.636456 1.503666 0.000000
v 0.538481 0.945632 0.555219
v 0.445140 1.532916 0.467245
v -0.016739 0.945632 0.785199
v -0.016739 1.603531 0.660785
v -0.571958 0.945632 0.555219
v -0.478617 1.674146 0.467245
v -0.751565 1.133313 -0.114557
v -0.669934 1.703395 -0.000000
v -0.474581 0.816953 -0.632911
v -0.483984 1.603531 -0.467245
v 0.518673 1.604897 -0.522521
v -0.025677 1.604897 -0.747998
v 0.735308 1.488553 0.021829
v 0.512421 1.522629 0.566180
v -0.025677 1.604897 0.791657
v -0.563775 1.687165 0.566180
v -0.740977 1.625699 -0.100334
v -0.619030 1.559670 -0.409836
v 0.450506 1.444807 -0.467245
v -0.016739 1.444807 -0.660785
v 0.644046 1.444807 0.000000
v 0.450506 1.444807 0.467245
v -0.016739 1.444807 0.660785
v -0.483984 1.444807 0.467245
v -0.677524 1.444807 -0.000000
v -0.483984 1.444807 -0.467245
v -0.016739 0.205716 -1.000000
v 0.690368 0.205716 -0.707107
v 0.983261 0.205716 0.000000
v 0.690368 0.205716 0.707107
v -0.016739 0.205716 1.000000
v -0.723846 0.205716 0.707107
v -1.016739 0.205716 -0.000000
v -0.723846 0.205716 -0.707107
v -0.294726 1.646031 0.678918
v -0.184676 0.946126 1.181454
v -0.691489 0.946126 1.016955
v -0.247678 1.638838 0.564015
v -0.060778 0.206210 1.295440
v -0.864947 0.206210 0.987219
v -0.250362 1.444807 0.564015
v -0.370292 0.205716 0.853553
v -0.542789 0.946126 1.268888
v -0.542789 0.206210 1.268888
v -0.745231 0.688470 1.777219
v -0.860820 0.688470 1.581385
v -0.590180 0.688470 1.812021
v -0.760775 0.205470 1.802409
v -0.998034 0.205470 1.553280
v -0.486982 0.205470 1.899187
v -1.271044 0.482134 2.074109
v -1.324917 0.482134 1.898307
v -1.146880 0.482134 2.088879
v -1.286588 0.261765 2.099298
v -1.342701 0.261765 1.919600
v -1.163112 0.261765 2.126647
v 1.152597 0.629372 0.304345
v 1.594043 0.620111 1.112069
v 1.392825 0.200638 0.183557
v 1.682516 0.200638 1.220691
v -0.016739 0.945632 -0.785199
v 0.538481 0.945632 -0.555219
v -0.619418 1.133284 -0.430631
v 0.024691 0.563200 -0.934125
v -0.288901 0.209483 -1.064450
v -0.259500 0.562461 -0.962954
v -0.484282 0.563200 -0.786689
v 0.151296 0.209483 -1.015501
v -0.634779 0.209483 -0.787795
v -0.173858 0.478002 -1.379609
v -0.079154 0.213411 -1.440480
v -0.667161 0.213411 -1.270150
v -0.554584 0.478002 -1.269323
v -0.408434 0.213411 -1.477095
v -0.386441 0.477449 -1.401174
v -0.786662 1.721242 0.021829
v -0.801938 0.945632 -0.000000
v -0.571958 0.945632 -0.555219
v -0.570027 1.604897 -0.522521
v -0.891549 1.724630 -0.267333
v -0.897062 1.485833 -0.274386
v -0.838857 1.485807 -0.412214
v -0.839025 1.695934 -0.402114
v -0.903868 1.766642 -0.234393
v -0.910645 1.451475 -0.243497
v -0.826060 1.451457 -0.445809
v -0.825812 1.724378 -0.432499
v -0.851227 1.686843 -0.250838
v -0.856740 1.448046 -0.257891
v -0.798535 1.448020 -0.395719
v -0.798703 1.658147 -0.385619
vt 1.000000 0.500000
vt 1.000000 1.000000
vt 0.875000 1.000000
vt 0.875000 0.500000
vt 0.750000 1.000000
vt 0.750000 0.500000
vt 0.625000 1.000000
vt 0.625000 0.500000
vt 0.500000 1.000000
vt 0.500000 0.500000
vt 0.437500 0.500000
vt 0.500000 0.500000
vt 0.500000 0.500000
vt 0.437500 0.500000
vt 0.375000 0.500000
vt 0.375000 1.000000
vt 0.250000 1.000000
vt 0.250000 0.500000
vt 0.193931 0.114636
vt 0.250000 0.091412
vt 0.250000 0.091412
vt 0.193931 0.114636
vt 0.223292 0.586195
vt 0.222854 0.912769
vt 0.222854 0.912769
vt 0.223292 0.586195
vt 0.125000 0.500000
vt 0.125000 1.000000
vt 0.000000 1.000000
vt 0.000000 0.500000
vt 0.250000 0.408588
vt 0.362139 0.362139
vt 0.419706 0.419706
vt 0.250000 0.490000
vt 0.408588 0.250000
vt 0.490000 0.250000
vt 0.362139 0.137861
vt 0.419706 0.080294
vt 0.250000 0.010000
vt 0.137861 0.137861
vt 0.080294 0.080294
vt 0.165147 0.045147
vt 0.091412 0.250000
vt 0.010000 0.250000
vt 0.137861 0.362139
vt 0.080294 0.419706
vt 0.362139 0.362139
vt 0.250000 0.408588
vt 0.137861 0.362139
vt 0.091412 0.250000
vt 0.137861 0.137861
vt 0.362139 0.137861
vt 0.408588 0.250000
vt 0.375000 0.500000
vt 0.375000 0.500000
vt 0.375000 0.500000
vt 0.875000 0.500000
vt 0.000000 0.500000
vt 0.000000 0.500000
vt 0.875000 0.500000
vt 0.125000 0.500000
vt 0.098840 0.500000
vt 0.098840 0.500000
vt 0.125000 0.500000
vt 0.750000 0.500000
vt 0.750000 0.500000
vt 0.750000 0.500000
vt 0.250000 0.500000
vt 0.625000 0.500000
vt 0.437500 0.500000
vt 0.437500 1.000000
vt 0.500000 0.500000
vt 0.437500 0.500000
vt 0.375000 0.500000
vt 0.375000 0.500000
vt 0.500000 0.500000
vt 0.375000 0.500000
vt 0.375000 0.500000
vt 0.500000 0.500000
vt 0.437500 0.500000
vt 0.437500 0.500000
vt 0.500000 0.500000
vt 0.437500 0.500000
vt 0.500000 0.500000
vt 0.625000 0.500000
vt 0.625000 0.500000
vt 0.901160 0.500000
vt 0.999626 0.500000
vt 0.000374 0.500000
vt 0.999626 0.500000
vt 0.901160 0.500000
vt 0.901160 0.500000
vt 0.999626 0.500000
vt 0.000000 0.500000
vt 0.875000 0.500000
vt 0.898043 0.500000
vt 0.898043 0.500000
vt 0.000374 0.500000
vt 0.898043 0.500000
vt 1.000347 0.500000
vt 0.098840 0.500000
vt 0.000374 0.500000
vt -0.000347 0.500000
vt 0.101957 0.500000
vt 0.125000 0.500000
vt 0.151731 0.592560
vt 0.152191 0.906316
vt 0.211491 0.874508
vt 0.163581 0.868194
vt 0.163581 0.868194
vt 0.211491 0.874508
vt 0.151731 0.592560
vt 0.152191 0.906316
vt 0.211978 0.623814
vt 0.163063 0.630053
vt 0.211978 0.623814
vt 0.163063 0.630053
vn 0.3821 0.0572 -0.9224
vn 0.9271 0.0576 -0.3704
vn 0.9244 0.0378 0.3796
vn 0.3844 -0.0021 0.9232
vn -0.0003 -1.0000 0.0013
vn -0.9246 0.0061 0.3810
vn 0.3844 -0.0029 -0.9232
vn -0.6398 -0.0084 0.7685
vn -0.3823 0.0469 -0.9229
vn -0.0068 0.9998 0.0164
vn 0.1135 0.9799 0.1642
vn 0.1511 0.9885 -0.0000
vn 0.1195 0.9796 -0.1618
vn 0.0062 0.9999 0.0150
vn 0.0000 1.0000 0.0000
vn -0.9225 -0.0813 -0.3774
vn -0.3827 0.0000 0.9239
vn 0.3827 -0.0000 0.9239
vn 0.9241 -0.0245 -0.3813
vn -0.3851 -0.0084 -0.9228
vn -0.9272 -0.0323 0.3731
vn 0.9258 -0.0168 0.3777
vn -0.9285 0.1772 -0.3264
vn 0.0171 -0.9982 -0.0573
vn -0.7151 0.3438 -0.6086
vn 0.5854 0.3055 -0.7510
vn -0.8923 0.2591 0.3696
vn 0.3696 0.2591 0.8923
vn -0.8923 0.2591 -0.3696
vn 0.8923 0.2591 -0.3696
vn 0.0000 -1.0000 0.0000
vn -0.4975 0.5894 0.6364
vn 0.0002 -1.0000 -0.0012
vn -0.9481 0.2501 -0.1964
vn 0.9207 0.0087 0.3902
vn 0.9463 0.1436 0.2898
vn -0.9680 0.0144 -0.2506
vn 0.0055 0.5838 0.8119
vn 0.3841 -0.0073 -0.9233
vn -0.0007 -1.0000 0.0011
vn -0.6541 0.1513 -0.7411
vn -0.0388 -0.9915 0.1241
vn -0.4406 0.8592 0.2600
vn 0.7811 0.2399 0.5765
vn 0.0010 -1.0000 -0.0010
vn 0.0442 0.9011 0.4313
vn -0.9503 0.1029 0.2940
vn -0.1657 0.1512 0.9745
vn -0.0839 0.8772 0.4726
vn 0.3490 0.2056 0.9143
vn -0.0846 -0.9947 0.0579
vn -0.3061 0.9417 0.1396
vn 0.8737 0.3435 -0.3445
vn 0.4369 0.8974 -0.0617
vn -0.0072 -1.0000 -0.0000
vn -0.4470 0.1069 0.8881
vn 0.3670 0.2433 -0.8978
vn -0.3670 0.2433 -0.8978
vn 0.0173 0.9806 -0.1952
vn 0.0011 -1.0000 -0.0098
vn -0.3696 0.2591 -0.8923
vn 0.3696 0.2591 -0.8923
vn 0.2470 0.4397 -0.8635
vn 0.4521 0.3109 -0.8361
vn -0.0167 -0.9994 -0.0308
vn -0.3716 0.6022 -0.7066
vn 0.1028 0.2624 -0.9595
vn -0.5997 0.2624 -0.7560
vn 0.8108 0.3905 -0.4360
vn -0.1189 0.9806 -0.1558
vn -0.0062 -1.0000 -0.0077
vn -0.9183 0.3905 0.0648
vn -0.9301 0.0294 -0.3660
vn -0.9233 0.0174 -0.3837
vn -0.9251 0.0472 -0.3769
vn -0.9217 0.0211 -0.3873
vn -0.6589 -0.7458 -0.0980
vn 0.1466 0.0481 -0.9880
vn -0.7850 -0.5255 -0.3281
vn 0.6162 0.7840 0.0755
vn -0.9248 0.0316 -0.3791
vn -0.9217 0.0258 -0.3869
vn -0.9288 0.0252 -0.3697
vn -0.9256 0.0185 -0.3780
vn -0.9252 0.0255 -0.3785
vn 0.3930 0.0181 -0.9193
vn -0.4133 -0.0440 0.9095
vn 0.6037 0.7554 0.2548
usemtl None
s off
f 67/1/1 18/2/1 17/3/1 68/4/1
f 68/4/2 17/3/2 19/5/2 5/6/2
f 5/6/3 19/5/3 20/7/3 7/8/3
f 7/8/4 20/7/4 21/9/4 9/10/4
f 48/11/5 37/12/5 45/13/5 50/14/5
f 11/15/6 22/16/6 82/17/6 83/18/6
f 44/19/7 10/20/7 29/21/7 47/22/7
f 13/23/8 23/24/8 90/25/8 91/26/8
f 84/27/9 85/28/9 18/29/9 67/30/9
f 2/31/10 4/32/10 17/33/10 18/34/10
f 4/32/11 6/35/11 19/36/11 17/33/11
f 6/35/12 8/37/12 20/38/12 19/36/12
f 8/37/12 10/20/12 21/39/12 20/38/12
f 44/19/12 12/40/12 22/41/12 41/42/12
f 12/40/12 14/43/12 82/44/12 22/41/12
f 14/43/13 16/45/13 85/46/13 82/44/13
f 16/45/14 2/31/14 18/34/14 85/46/14
f 25/47/15 26/48/15 32/49/15 31/50/15 30/51/15 47/22/15 29/21/15 28/52/15 27/53/15
f 8/37/16 6/35/16 27/53/16 28/52/16
f 4/32/17 2/31/17 26/48/17 25/47/17
f 2/31/18 16/45/18 32/49/18 26/48/18
f 14/43/19 12/40/19 30/51/19 31/50/19
f 10/20/20 8/37/20 28/52/20 29/21/20
f 6/35/21 4/32/21 25/47/21 27/53/21
f 16/45/22 14/43/22 31/50/22 32/49/22
f 11/15/23 38/54/23 46/55/23 43/56/23
f 34/57/24 33/58/24 71/59/24 74/60/24
f 40/61/25 15/62/25 73/63/25 75/64/25
f 35/65/26 5/6/26 63/66/26 65/67/26
f 11/15/27 83/18/27 39/68/27 38/54/27
f 7/8/28 9/10/28 37/12/28 36/69/28
f 83/18/29 84/27/29 40/61/29 39/68/29
f 68/4/30 5/6/30 35/65/30 34/57/30
f 33/58/31 34/57/31 35/65/31 36/69/31 37/12/31 48/11/31 38/54/31 39/68/31 40/61/31
f 49/70/32 41/71/32 22/16/32 43/56/32
f 50/14/33 45/13/33 56/72/33 54/73/33
f 43/56/34 46/55/34 55/74/34 52/75/34
f 9/10/35 21/9/35 42/76/35
f 37/12/36 9/10/36 42/76/36 45/13/36
f 22/16/37 11/15/37 43/56/37
f 42/76/38 21/9/38 41/71/38 49/70/38
f 10/20/12 44/19/12 41/42/12 21/39/12
f 12/40/39 44/19/39 47/22/39 30/51/39
f 38/54/40 48/11/40 50/14/40 46/55/40
f 52/75/41 55/74/41 61/77/41 58/78/41
f 54/73/42 56/72/42 62/79/42 60/80/42
f 49/70/43 43/56/43 52/75/43 51/81/43
f 45/13/44 42/76/44 53/82/44 56/72/44
f 46/55/45 50/14/45 54/73/45 55/74/45
f 42/76/46 49/70/46 51/81/46 53/82/46
f 57/83/47 58/78/47 61/77/47 60/80/47
f 59/84/48 57/83/48 60/80/48 62/79/48
f 53/82/49 51/81/49 57/83/49 59/84/49
f 56/72/50 53/82/50 59/84/50 62/79/50
f 55/74/51 54/73/51 60/80/51 61/77/51
f 51/81/52 52/75/52 58/78/52 57/83/52
f 63/66/53 64/85/53 66/86/53 65/67/53
f 5/6/54 7/8/54 64/85/54 63/66/54
f 36/69/55 35/65/55 65/67/55 66/86/55
f 7/8/56 36/69/56 66/86/56 64/85/56
f 3/87/57 1/88/57 67/1/57 68/4/57
f 1/89/58 15/62/58 84/27/58 67/30/58
f 72/90/59 70/91/59 76/92/59 81/93/59
f 74/60/60 71/59/60 80/94/60 77/95/60
f 15/62/61 40/61/61 84/27/61
f 34/96/62 3/87/62 68/4/62
f 1/88/63 3/87/63 70/91/63 72/90/63
f 3/87/64 34/96/64 74/97/64 70/91/64
f 33/58/65 40/61/65 75/64/65 71/59/65
f 15/62/66 1/89/66 72/98/66 73/63/66
f 81/93/67 76/92/67 77/99/67 80/100/67
f 79/101/68 81/102/68 80/103/68 78/104/68
f 70/91/69 74/97/69 77/99/69 76/92/69
f 73/63/70 72/98/70 81/102/70 79/101/70
f 71/59/71 75/64/71 78/105/71 80/94/71
f 75/64/72 73/63/72 79/101/72 78/105/72
f 23/24/73 13/23/73 83/18/73 82/17/73
f 13/23/74 69/106/74 84/27/74 83/18/74
f 24/107/75 23/24/75 82/17/75 85/28/75
f 69/106/76 24/107/76 85/28/76 84/27/76
f 86/108/77 89/109/77 97/110/77 94/111/77
f 24/107/78 69/106/78 92/112/78 93/113/78
f 69/106/79 13/23/79 91/26/79 92/112/79
f 23/24/80 24/107/80 93/113/80 90/25/80
f 86/108/81 87/114/81 91/26/81 90/25/81
f 87/114/82 88/115/82 92/112/82 91/26/82
f 89/109/83 86/108/83 90/25/83 93/113/83
f 88/115/84 89/109/84 93/113/84 92/112/84
f 95/116/85 94/111/85 97/110/85 96/117/85
f 87/114/86 86/108/86 94/111/86 95/116/86
f 89/109/87 88/115/87 96/117/87 97/110/87
f 88/115/88 87/114/88 95/116/88 96/117/88
