# Blender v3.1.2 OBJ File: 'Witch_Tree.blend'
# www.blender.org
mtllib Witch_BigTree22.mtl
o Cylinder.024
v -0.118241 -0.191585 -1.405766
v 0.651723 -0.191585 -1.123856
v 2.962852 -0.191585 -0.740401
v 1.658185 -0.191585 0.538777
v 1.387693 -0.191585 1.595086
v -0.000000 -0.191585 1.743519
v -1.024815 -0.191585 1.410536
v -2.395608 -0.191585 0.975874
v -1.658185 -0.191585 -0.538777
v -2.109924 -0.191585 -2.666174
v 0.000000 1.946262 -1.166373
v -0.018674 3.382343 -0.792311
v 0.559567 3.287571 -0.689849
v 0.685577 1.946262 -0.943616
v 0.739011 3.641234 -0.266143
v 1.735589 1.946262 -0.459583
v 0.738997 3.629164 0.240114
v 1.109287 1.946262 0.360429
v 0.456729 3.613339 0.628639
v 0.685577 1.946262 0.943616
v 0.000022 3.602615 0.777056
v -0.000000 1.946262 1.166373
v -0.456755 3.552220 0.628677
v -0.685577 1.946262 0.943616
v -0.739014 3.609336 0.240101
v -1.228198 1.946262 0.532093
v -0.739004 3.618052 -0.297216
v -1.109287 1.946262 -0.360429
v -0.666352 3.646372 -0.947728
v -1.189581 1.946262 -1.527733
v -0.850498 3.626691 -1.209696
v 0.024436 3.357899 -1.000000
v -0.951056 3.626691 -0.309017
v -0.951056 3.626691 0.309017
v -0.587785 3.577820 0.809017
v -0.000000 3.626691 1.000000
v 0.587785 3.626691 0.809017
v 0.951056 3.626691 0.309017
v 0.951057 3.626691 -0.309017
v 0.710100 3.260157 -0.878545
v -0.682034 3.288731 -0.907767
v -0.034356 3.024702 -0.752349
v -0.754687 3.260411 -0.257255
v -0.754697 3.251695 0.280062
v -0.472438 3.194579 0.668639
v -0.015660 3.244974 0.817017
v 0.441046 3.255698 0.668600
v 0.723314 3.271523 0.280075
v 0.723328 3.283593 -0.226181
v 0.543884 2.929931 -0.649888
vt 0.750000 0.490000
vt 0.891068 0.444164
vt 0.978254 0.324164
vt 0.978254 0.175836
vt 0.891068 0.055836
vt 0.750000 0.010000
vt 0.608932 0.055836
vt 0.521746 0.175836
vt 0.521746 0.324164
vt 0.608932 0.444164
vt 0.100000 0.500000
vt 0.100000 0.571429
vt -0.000000 0.571429
vt -0.000000 0.500000
vt 0.100000 0.642857
vt -0.000000 0.642857
vt 0.200000 0.500000
vt 0.200000 0.571429
vt 0.200000 0.642857
vt 0.786167 0.642857
vt 0.282877 0.642857
vt 0.282877 0.642857
vt 0.786167 0.642857
vt 0.300000 0.500000
vt 0.300000 0.571429
vt 0.300000 0.642857
vt 0.400000 0.500000
vt 0.400000 0.571429
vt 0.400000 0.642857
vt 0.500000 0.500000
vt 0.500000 0.571429
vt 0.500000 0.642857
vt 0.600000 0.500000
vt 0.600000 0.571429
vt 0.600000 0.642857
vt 0.700000 0.500000
vt 0.700000 0.571429
vt 0.700000 0.642857
vt 0.800000 0.500000
vt 0.800000 0.571429
vt 0.800000 0.642857
vt 0.900000 0.500000
vt 0.900000 0.571429
vt 0.900000 0.642857
vt 1.000000 0.500000
vt 1.000000 0.571429
vt 1.000000 0.642857
vt 0.292866 0.642857
vt 0.346371 0.642857
vt 0.424734 0.642857
vt 0.508648 0.642857
vt 0.594017 0.642857
vt 0.678518 0.642857
vt 0.761652 0.642857
vt 0.842951 0.642857
vt 0.292866 0.642857
vt 0.346371 0.642857
vt 0.424734 0.642857
vt 0.508648 0.642857
vt 0.594017 0.642857
vt 0.678518 0.642857
vt 0.761652 0.642857
vt 0.842951 0.642857
vn 0.0000 -1.0000 -0.0000
vn 0.4472 0.1741 -0.8773
vn 0.2788 0.1166 -0.9532
vn -0.9481 0.2786 0.1531
vn -0.9890 0.1474 -0.0097
vn -0.1863 0.1172 0.9755
vn -0.8872 0.3365 -0.3156
vn -0.9892 0.1242 -0.0779
vn -0.3832 0.3196 0.8666
vn -0.6966 0.1545 0.7006
vn -0.2993 0.2487 0.9212
vn -0.3109 0.0951 0.9457
vn 0.1682 0.2977 0.9397
vn 0.3077 0.0937 0.9469
vn 0.8705 0.3262 0.3686
vn 0.8055 0.0937 0.5852
vn 0.7070 0.2781 0.6503
vn 0.8904 0.2383 0.3878
vn 0.2462 0.1716 -0.9539
vn 0.5834 0.2047 -0.7860
vn 0.3265 0.0808 -0.9417
vn 0.2479 0.0775 -0.9657
vn 0.3653 0.9102 -0.1952
vn -0.0376 0.9992 0.0140
vn 0.0622 0.9980 0.0075
vn 0.1373 0.9904 0.0184
vn -0.0492 0.9892 -0.1378
vn -0.0364 0.9961 -0.0806
vn -0.0292 0.9996 -0.0034
vn 0.0394 0.9992 0.0107
vn -0.2274 0.8316 -0.5067
vn 0.1592 0.9859 -0.0512
vn 0.0435 0.9929 -0.1109
vn -0.9990 0.0439 0.0010
vn 0.3186 -0.1190 -0.9404
vn 0.9935 -0.0313 0.1096
vn -0.9398 0.0784 0.3326
vn -0.3058 -0.0925 -0.9476
vn 0.9990 -0.0439 -0.0007
vn -0.1548 0.1164 0.9811
vn -0.8081 -0.0303 -0.5883
vn 0.7978 -0.1014 -0.5944
usemtl None
s off
f 1/1/1 2/2/1 3/3/1 4/4/1 5/5/1 6/6/1 7/7/1 8/8/1 9/9/1 10/10/1
f 10/11/2 30/12/2 11/13/2 1/14/2
f 30/12/3 31/15/3 32/16/3 11/13/3
f 9/17/4 28/18/4 30/12/4 10/11/4
f 28/18/5 33/19/5 31/15/5 30/12/5
f 12/20/6 29/21/6 41/22/6 42/23/6
f 8/24/7 26/25/7 28/18/7 9/17/7
f 26/25/8 34/26/8 33/19/8 28/18/8
f 7/27/9 24/28/9 26/25/9 8/24/9
f 24/28/10 35/29/10 34/26/10 26/25/10
f 6/30/11 22/31/11 24/28/11 7/27/11
f 22/31/12 36/32/12 35/29/12 24/28/12
f 5/33/13 20/34/13 22/31/13 6/30/13
f 20/34/14 37/35/14 36/32/14 22/31/14
f 4/36/15 18/37/15 20/34/15 5/33/15
f 18/37/16 38/38/16 37/35/16 20/34/16
f 3/39/17 16/40/17 18/37/17 4/36/17
f 16/40/18 39/41/18 38/38/18 18/37/18
f 2/42/19 14/43/19 16/40/19 3/39/19
f 14/43/20 40/44/20 39/41/20 16/40/20
f 1/45/21 11/46/21 14/43/21 2/42/21
f 11/46/22 32/47/22 40/44/22 14/43/22
f 29/21/23 12/20/23 32/47/23 31/15/23
f 27/48/24 29/21/24 31/15/24 33/19/24
f 25/49/25 27/48/25 33/19/25 34/26/25
f 23/50/26 25/49/26 34/26/26 35/29/26
f 21/51/27 23/50/27 35/29/27 36/32/27
f 19/52/28 21/51/28 36/32/28 37/35/28
f 17/53/29 19/52/29 37/35/29 38/38/29
f 15/54/30 17/53/30 38/38/30 39/41/30
f 13/55/31 15/54/31 39/41/31 40/44/31
f 12/20/32 13/55/32 40/44/32 32/47/32
f 41/22/33 43/56/33 44/57/33 45/58/33 46/59/33 47/60/33 48/61/33 49/62/33 50/63/33 42/23/33
f 17/53/34 15/54/34 49/62/34 48/61/34
f 23/50/35 21/51/35 46/59/35 45/58/35
f 29/21/36 27/48/36 43/56/36 41/22/36
f 15/54/37 13/55/37 50/63/37 49/62/37
f 21/51/38 19/52/38 47/60/38 46/59/38
f 27/48/39 25/49/39 44/57/39 43/56/39
f 13/55/40 12/20/40 42/23/40 50/63/40
f 19/52/41 17/53/41 48/61/41 47/60/41
f 25/49/42 23/50/42 45/58/42 44/57/42
