# Blender v3.1.2 OBJ File: 'Witch_Tree.blend'
# www.blender.org
mtllib Witch_BigTree1.mtl
o Cylinder.022
v -0.118241 -0.191585 -1.405766
v 1.053699 16.298286 -0.648810
v 0.651723 -0.191585 -1.123856
v 1.177053 16.307693 -0.043284
v 1.583728 -0.191585 -0.530745
v 0.920905 16.312819 0.519146
v 1.658185 -0.191585 0.538777
v 0.383094 16.311707 0.823652
v 1.387693 -0.191585 1.595086
v -0.230955 16.304781 0.753922
v -0.015580 -0.191585 1.912929
v -0.686695 16.294685 0.336592
v -1.121993 -0.191585 1.626101
v -0.810050 16.285280 -0.268934
v -2.146487 -0.191585 0.870642
v -0.553902 16.280153 -0.831364
v -2.056874 -0.191585 -0.744699
v -0.016090 16.281265 -1.135870
v -1.209116 -0.191585 -1.522372
v 0.597958 16.288193 -1.066140
v 0.000000 1.946262 -1.166373
v 0.024436 3.357899 -1.000000
v 0.469012 5.861579 -0.807430
v 0.476317 8.613477 -0.878759
v 0.589484 11.174370 -0.639005
v 0.844445 13.736731 -0.520989
v 0.967799 13.746138 0.084536
v 0.871082 11.174370 -0.088852
v 0.894896 8.613477 -0.424053
v 0.938698 5.861579 -0.405732
v 0.710100 3.260157 -0.878545
v 0.685577 1.946262 -0.943616
v 0.711651 13.751265 0.646967
v 0.775528 11.174370 0.521750
v 0.966265 8.613477 0.189846
v 1.082570 5.861579 0.195323
v 0.951057 3.626691 -0.309017
v 1.302861 1.946262 -0.438209
v 0.173840 13.750153 0.951472
v 0.339319 11.174370 0.959572
v 0.663163 8.613477 0.728451
v 0.845673 5.861579 0.766152
v 0.951056 3.626691 0.309017
v 1.109287 1.946262 0.360429
v -0.440209 13.743226 0.881743
v -0.270926 11.174370 1.057381
v 0.101364 8.613477 0.986032
v 0.230143 5.848594 1.061738
v 0.587785 3.626691 0.809017
v 0.685577 1.946262 0.943616
v -0.895949 13.733131 0.464412
v -0.822116 11.174370 0.777817
v -0.504544 8.613477 0.864202
v -0.000000 3.626691 1.000000
v -0.000000 1.946262 1.166373
v -1.019304 13.723724 -0.141113
v -1.103714 11.174370 0.227663
v -0.923123 8.613477 0.409497
v -0.720155 5.834574 0.664616
v -0.587785 3.577820 0.809017
v -0.685577 1.946262 0.943616
v -0.763156 13.718599 -0.703543
v -1.008159 11.174370 -0.382939
v -0.994492 8.613477 -0.204402
v -0.911159 5.861579 0.037059
v -0.951056 3.626691 0.309017
v -1.228198 1.946262 0.532093
v -0.225344 13.719711 -1.008049
v -0.571950 11.174370 -0.820761
v -0.691389 8.613477 -0.743007
v -0.674262 5.861579 -0.533770
v -0.951056 3.626691 -0.309017
v -1.109287 1.946262 -0.360429
v 0.388704 13.726637 -0.938320
v 0.038295 11.174370 -0.918570
v -0.129591 8.613477 -1.000588
v -0.147083 5.861579 -0.856336
v -0.656729 3.626691 -0.990632
v -0.891090 1.946262 -1.110804
v -0.377459 5.142750 0.921719
v -0.340180 6.591930 0.940298
v -0.650739 5.368834 0.747903
v -0.619559 6.279024 0.762693
v -0.014868 6.320451 1.013077
v -0.010608 5.306589 1.013436
v -0.698240 5.197078 0.828236
v -0.663522 5.197099 0.748179
v -0.382402 4.974716 0.931846
v -0.630810 6.452434 0.763866
v -0.767287 5.861579 0.638114
v -0.010658 6.496753 1.021232
v -0.345125 6.758883 0.951540
v -0.006486 5.128347 1.020852
v 0.318495 5.861579 1.088719
v -0.079420 5.879405 0.369381
v 0.206836 6.320946 0.482827
v -0.429035 5.369328 0.217653
v -0.397855 6.279518 0.232443
v 0.211096 5.307084 0.483186
v -0.155755 5.143245 0.391469
v -0.498451 5.835069 0.134366
v -0.118475 6.592425 0.410048
v 0.451847 5.849089 0.531488
v -0.417120 4.974694 1.011903
v -0.665528 6.452413 0.843923
v -0.802005 5.861558 0.718171
v -0.045376 6.496732 1.101289
v -0.379843 6.758862 1.031596
v -0.041204 5.128326 1.100909
v 0.283776 5.861558 1.168775
v -0.685457 5.368813 0.827960
v -0.412177 5.142729 1.001776
v -0.654277 6.279002 0.842750
v -0.754873 5.834553 0.744673
v -0.049586 6.320430 1.093134
v -0.374898 6.591909 1.020355
v -0.045327 5.306568 1.093493
v 0.195425 5.848573 1.141795
vt 1.000000 0.928571
vt 1.000000 1.000000
vt 0.900000 1.000000
vt 0.900000 0.928571
vt 0.800000 1.000000
vt 0.800000 0.928571
vt 0.700000 1.000000
vt 0.700000 0.928571
vt 0.600000 1.000000
vt 0.600000 0.928571
vt 0.500000 1.000000
vt 0.500000 0.928571
vt 0.400000 1.000000
vt 0.400000 0.928571
vt 0.300000 1.000000
vt 0.300000 0.928571
vt 0.200000 1.000000
vt 0.200000 0.928572
vt 0.391068 0.444164
vt 0.250000 0.490000
vt 0.108932 0.444164
vt 0.021746 0.324164
vt 0.021746 0.175836
vt 0.108932 0.055836
vt 0.250000 0.010000
vt 0.391068 0.055836
vt 0.478254 0.175836
vt 0.478254 0.324164
vt 0.100000 1.000000
vt 0.100000 0.928571
vt -0.000000 1.000000
vt -0.000000 0.928571
vt 0.750000 0.490000
vt 0.891068 0.444164
vt 0.978254 0.324164
vt 0.978254 0.175836
vt 0.891068 0.055836
vt 0.750000 0.010000
vt 0.608932 0.055836
vt 0.521746 0.175836
vt 0.521746 0.324164
vt 0.608932 0.444164
vt 0.100000 0.500000
vt 0.100000 0.571429
vt -0.000000 0.571429
vt -0.000000 0.500000
vt 0.100000 0.642857
vt -0.000000 0.642857
vt 0.100000 0.714286
vt -0.000000 0.714286
vt 0.100000 0.785714
vt -0.000000 0.785714
vt 0.100000 0.857143
vt -0.000000 0.857143
vt 0.200000 0.500000
vt 0.200000 0.571429
vt 0.200000 0.642857
vt 0.200000 0.714286
vt 0.200000 0.785714
vt 0.200000 0.857143
vt 0.300000 0.500000
vt 0.300000 0.571429
vt 0.300000 0.642857
vt 0.300000 0.714286
vt 0.300000 0.785714
vt 0.300000 0.857143
vt 0.400000 0.500000
vt 0.400000 0.571429
vt 0.400000 0.642857
vt 0.400000 0.714286
vt 0.400000 0.785714
vt 0.400000 0.857143
vt 0.500000 0.500000
vt 0.500000 0.571429
vt 0.500000 0.642857
vt 0.500000 0.785714
vt 0.500000 0.857143
vt 0.600000 0.500000
vt 0.600000 0.571429
vt 0.600000 0.642857
vt 0.525633 0.677564
vt 0.512816 0.666822
vt 0.500000 0.656081
vt 0.600000 0.785714
vt 0.600000 0.857143
vt 0.700000 0.500000
vt 0.700000 0.571429
vt 0.700000 0.642857
vt 0.700000 0.714286
vt 0.600000 0.714286
vt 0.700000 0.785714
vt 0.700000 0.857143
vt 0.800000 0.500000
vt 0.800000 0.571429
vt 0.800000 0.642857
vt 0.800000 0.714286
vt 0.800000 0.785714
vt 0.800000 0.857143
vt 0.900000 0.500000
vt 0.900000 0.571429
vt 0.900000 0.642857
vt 0.900000 0.714286
vt 0.900000 0.785714
vt 0.900000 0.857143
vt 1.000000 0.500000
vt 1.000000 0.571429
vt 1.000000 0.642857
vt 1.000000 0.714286
vt 1.000000 0.785714
vt 1.000000 0.857143
vt 0.470586 0.685695
vt 0.435293 0.699991
vt 0.532153 0.738887
vt 0.566076 0.726586
vt 0.522243 0.682382
vt 0.524372 0.705050
vt 0.524372 0.705050
vt 0.522243 0.682382
vt 0.471104 0.744778
vt 0.485552 0.755889
vt 0.500000 0.767001
vt 0.496281 0.736827
vt 0.475558 0.739245
vt 0.475558 0.739245
vt 0.496281 0.736827
vt 0.502345 0.686788
vt 0.502345 0.686788
vt 0.525633 0.733664
vt 0.525633 0.733664
vt 0.566076 0.726586
vt 0.600000 0.714286
vt 0.496281 0.736827
vt 0.475558 0.739245
vt 0.470586 0.685695
vt 0.435293 0.699991
vt 0.485552 0.755889
vt 0.500000 0.767001
vt 0.476037 0.691520
vt 0.474395 0.719196
vt 0.474395 0.719196
vt 0.476037 0.691520
vt 0.502345 0.686788
vt 0.400000 0.714286
vt 0.522243 0.682382
vt 0.524372 0.705050
vt 0.499869 0.711731
vt 0.474395 0.719196
vt 0.476037 0.691520
vt 0.470845 0.715237
vt 0.501629 0.741832
vt 0.471104 0.744778
vt 0.525633 0.733664
vt 0.528893 0.708225
vt 0.532153 0.738887
vt 0.498110 0.681630
vt 0.525633 0.677564
vt 0.512816 0.666822
vt 0.500000 0.656081
vn 0.9762 -0.0896 -0.1975
vn 0.9086 -0.0535 0.4143
vn 0.4927 0.0032 0.8702
vn -0.1133 0.0587 0.9918
vn -0.6736 0.0916 0.7334
vn -0.9762 0.0896 0.1975
vn -0.9086 0.0535 -0.4143
vn -0.4927 -0.0032 -0.8702
vn -0.0097 0.9999 -0.0135
vn 0.1133 -0.0587 -0.9918
vn 0.6736 -0.0916 -0.7334
vn 0.0000 -1.0000 0.0000
vn 0.0304 0.1474 -0.9886
vn -0.0250 0.0943 -0.9952
vn 0.0429 0.0602 -0.9973
vn 0.1383 -0.0394 -0.9896
vn 0.3275 0.0413 -0.9440
vn 0.5687 -0.0515 -0.8209
vn -0.7743 0.3297 -0.5401
vn -0.9340 0.1262 -0.3343
vn -0.7682 0.1224 -0.6284
vn -0.4694 -0.0566 -0.8812
vn -0.2901 0.0171 -0.9568
vn -0.0227 -0.0375 -0.9990
vn -0.9136 0.3995 -0.0760
vn -0.9892 0.1242 -0.0779
vn -0.9796 0.0477 -0.1952
vn -0.8979 -0.0522 -0.4370
vn -0.7972 -0.0137 -0.6036
vn -0.6061 -0.0089 -0.7953
vn -0.5582 0.3558 0.7496
vn -0.6966 0.1545 0.7006
vn -0.9080 0.0130 0.4188
vn -0.9843 -0.0279 0.1744
vn -0.9990 -0.0393 -0.0197
vn -0.9576 0.0231 -0.2872
vn -0.2581 0.3307 0.9078
vn -0.3109 0.0951 0.9457
vn -0.8194 -0.0498 0.5710
vn -0.9429 0.0460 0.3300
vn 0.2360 0.3360 0.9118
vn 0.3077 0.0937 0.9469
vn 0.0880 -0.0539 0.9947
vn -0.3275 -0.0413 0.9440
vn -0.5687 0.0513 0.8209
vn 0.8705 0.3262 0.3686
vn 0.8055 0.0937 0.5852
vn 0.6772 -0.0641 0.7330
vn 0.4694 0.0566 0.8812
vn 0.2901 -0.0171 0.9568
vn 0.0227 0.0372 0.9991
vn 0.9795 0.1913 0.0625
vn 0.9802 0.1457 0.1339
vn 0.9796 -0.0477 0.1952
vn 0.8979 0.0522 0.4370
vn 0.7972 0.0137 0.6036
vn 0.6061 0.0089 0.7953
vn 0.5763 0.0851 -0.8128
vn 0.7543 0.1243 -0.6446
vn 0.9507 -0.0082 -0.3100
vn 0.9843 0.0279 -0.1744
vn 0.9990 0.0393 0.0197
vn 0.9576 -0.0228 0.2872
vn 0.3265 0.0808 -0.9417
vn 0.2479 0.0775 -0.9657
vn 0.4161 0.0634 -0.9071
vn 0.6941 -0.0071 -0.7199
vn 0.8194 0.0498 -0.5710
vn 0.9429 -0.0459 -0.3300
vn -0.4465 -0.0208 0.8945
vn -0.1813 0.0270 0.9831
vn -0.8188 -0.4605 -0.3428
vn -0.6858 0.0082 0.7277
vn 0.8853 -0.2820 0.3699
vn -0.8433 0.4060 -0.3522
vn 0.6389 -0.7217 0.2665
vn 0.8147 0.4597 0.3534
vn 0.8799 -0.2833 0.3815
vn -0.5115 -0.8301 -0.2221
vn -0.6176 0.7396 -0.2676
vn 0.5294 0.8166 0.2298
vn -0.3690 0.9156 -0.1598
vn -0.8980 -0.2047 -0.3895
vn -0.8148 -0.4595 -0.3535
vn -0.2919 -0.0009 0.9565
vn -0.3772 -0.0733 0.9232
vn -0.4894 0.0026 0.8721
vn -0.3768 0.0668 0.9239
vn 0.9035 0.2022 0.3779
vn -0.5878 -0.7705 -0.2465
vn 0.5329 0.8161 0.2236
vn -0.3705 0.9159 -0.1541
vn -0.5106 0.0529 0.8582
vn -0.5491 -0.0546 0.8340
vn -0.2531 -0.0551 0.9659
vn -0.2856 0.0395 0.9575
vn -0.5265 0.0643 0.8477
vn -0.4986 -0.0553 0.8651
vn -0.2768 -0.0428 0.9600
vn -0.2561 0.0495 0.9654
vn -0.8796 0.2843 -0.3814
vn -0.5855 -0.7698 -0.2541
vn 0.3437 -0.9272 0.1488
vn 0.5658 0.7872 0.2456
vn -0.8389 0.4050 -0.3637
vn 0.8387 -0.4054 0.3636
vn 0.8982 0.2035 0.3896
vn 0.6344 -0.7225 0.2749
usemtl None
s off
f 26/1/1 2/2/1 4/3/1 27/4/1
f 27/4/2 4/3/2 6/5/2 33/6/2
f 33/6/3 6/5/3 8/7/3 39/8/3
f 39/8/4 8/7/4 10/9/4 45/10/4
f 45/10/5 10/9/5 12/11/5 51/12/5
f 51/12/6 12/11/6 14/13/6 56/14/6
f 56/14/7 14/13/7 16/15/7 62/16/7
f 62/16/8 16/15/8 18/17/8 68/18/8
f 4/19/9 2/20/9 20/21/9 18/22/9 16/23/9 14/24/9 12/25/9 10/26/9 8/27/9 6/28/9
f 68/18/10 18/17/10 20/29/10 74/30/10
f 74/30/11 20/29/11 2/31/11 26/32/11
f 1/33/12 3/34/12 5/35/12 7/36/12 9/37/12 11/38/12 13/39/12 15/40/12 17/41/12 19/42/12
f 19/43/13 79/44/13 21/45/13 1/46/13
f 79/44/14 78/47/14 22/48/14 21/45/14
f 78/47/15 77/49/15 23/50/15 22/48/15
f 77/49/16 76/51/16 24/52/16 23/50/16
f 76/51/17 75/53/17 25/54/17 24/52/17
f 75/53/18 74/30/18 26/32/18 25/54/18
f 17/55/19 73/56/19 79/44/19 19/43/19
f 73/56/20 72/57/20 78/47/20 79/44/20
f 72/57/21 71/58/21 77/49/21 78/47/21
f 71/58/22 70/59/22 76/51/22 77/49/22
f 70/59/23 69/60/23 75/53/23 76/51/23
f 69/60/24 68/18/24 74/30/24 75/53/24
f 15/61/25 67/62/25 73/56/25 17/55/25
f 67/62/26 66/63/26 72/57/26 73/56/26
f 66/63/27 65/64/27 71/58/27 72/57/27
f 65/64/28 64/65/28 70/59/28 71/58/28
f 64/65/29 63/66/29 69/60/29 70/59/29
f 63/66/30 62/16/30 68/18/30 69/60/30
f 13/67/31 61/68/31 67/62/31 15/61/31
f 61/68/32 60/69/32 66/63/32 67/62/32
f 60/69/33 90/70/33 65/64/33 66/63/33
f 90/70/34 58/71/34 64/65/34 65/64/34
f 58/71/35 57/72/35 63/66/35 64/65/35
f 57/72/36 56/14/36 62/16/36 63/66/36
f 11/73/37 55/74/37 61/68/37 13/67/37
f 55/74/38 54/75/38 60/69/38 61/68/38
f 53/76/39 52/77/39 57/72/39 58/71/39
f 52/77/40 51/12/40 56/14/40 57/72/40
f 9/78/41 50/79/41 55/74/41 11/73/41
f 50/79/42 49/80/42 54/75/42 55/74/42
f 49/80/43 94/81/43 93/82/43 88/83/43 54/75/43
f 47/84/44 46/85/44 52/77/44 53/76/44
f 46/85/45 45/10/45 51/12/45 52/77/45
f 7/86/46 44/87/46 50/79/46 9/78/46
f 44/87/47 43/88/47 49/80/47 50/79/47
f 43/88/48 42/89/48 94/90/48 49/80/48
f 42/89/49 41/91/49 47/84/49 94/90/49
f 41/91/50 40/92/50 46/85/50 47/84/50
f 40/92/51 39/8/51 45/10/51 46/85/51
f 5/93/52 38/94/52 44/87/52 7/86/52
f 38/94/53 37/95/53 43/88/53 44/87/53
f 37/95/54 36/96/54 42/89/54 43/88/54
f 36/96/55 35/97/55 41/91/55 42/89/55
f 35/97/56 34/98/56 40/92/56 41/91/56
f 34/98/57 33/6/57 39/8/57 40/92/57
f 3/99/58 32/100/58 38/94/58 5/93/58
f 32/100/59 31/101/59 37/95/59 38/94/59
f 31/101/60 30/102/60 36/96/60 37/95/60
f 30/102/61 29/103/61 35/97/61 36/96/61
f 29/103/62 28/104/62 34/98/62 35/97/62
f 28/104/63 27/4/63 33/6/63 34/98/63
f 1/105/64 21/106/64 32/100/64 3/99/64
f 21/106/65 22/107/65 31/101/65 32/100/65
f 22/107/66 23/108/66 30/102/66 31/101/66
f 23/108/67 24/109/67 29/103/67 30/102/67
f 24/109/68 25/110/68 28/104/68 29/103/68
f 25/110/69 26/1/69 27/4/69 28/104/69
f 54/75/70 88/111/70 87/112/70 90/70/70 60/69/70
f 94/90/71 47/84/71 53/76/71 92/113/71 91/114/71
f 48/115/72 84/116/72 96/117/72 103/118/72
f 90/119/73 89/120/73 92/121/73 53/76/73 58/71/73
f 83/122/74 59/123/74 101/124/74 98/125/74
f 85/126/75 48/115/75 103/118/75 99/127/75
f 81/128/76 83/122/76 98/125/76 102/129/76
f 94/90/77 91/114/77 107/130/77 110/131/77
f 59/123/78 83/122/78 113/132/78 114/133/78
f 87/112/79 88/111/79 104/134/79 86/135/79
f 92/121/80 89/120/80 105/136/80 108/137/80
f 80/138/81 82/139/81 111/140/81 112/141/81
f 85/126/82 80/138/82 112/141/82 117/142/82
f 90/70/83 87/112/83 86/135/83 106/143/83
f 84/116/84 48/115/84 118/144/84 115/145/84
f 95/146/85 99/127/85 103/118/85 96/117/85
f 98/125/86 95/146/86 96/117/86 102/129/86
f 101/124/87 97/147/87 95/146/87 98/125/87
f 97/147/88 100/148/88 99/127/88 95/146/88
f 59/123/89 82/139/89 97/147/89 101/124/89
f 84/116/90 81/128/90 102/129/90 96/117/90
f 82/139/91 80/138/91 100/148/91 97/147/91
f 80/138/92 85/126/92 99/127/92 100/148/92
f 112/141/93 111/140/93 86/149/93 104/134/93
f 114/133/94 113/132/94 105/150/94 106/151/94
f 116/152/95 115/145/95 107/153/95 108/154/95
f 118/144/96 117/142/96 109/155/96 110/156/96
f 111/140/97 114/133/97 106/151/97 86/149/97
f 113/132/98 116/152/98 108/154/98 105/150/98
f 115/145/99 118/144/99 110/156/99 107/153/99
f 117/142/100 112/141/100 104/134/100 109/155/100
f 89/120/101 90/119/101 106/151/101 105/136/101
f 81/128/102 84/116/102 115/145/102 116/152/102
f 88/83/103 93/82/103 109/157/103 104/158/103
f 91/114/104 92/113/104 108/154/104 107/130/104
f 48/115/105 85/126/105 117/142/105 118/144/105
f 93/82/106 94/81/106 110/156/106 109/157/106
f 82/139/107 59/123/107 114/133/107 111/140/107
f 83/122/108 81/128/108 116/152/108 113/132/108
