# Blender v3.1.2 OBJ File: 'Witch_Tree.blend'
# www.blender.org
mtllib Witch_BigTree3.mtl
o Cylinder.021
v 0.083486 -0.164755 -2.553959
v 0.034357 16.322985 -1.249679
v 0.853522 -0.164755 -1.545250
v 0.622142 16.322985 -1.058696
v 1.594143 -0.164755 -0.808837
v 0.985413 16.322985 -0.558696
v 1.658185 -0.164755 0.538777
v 0.985413 16.322985 0.059338
v 1.205198 -0.164755 1.435403
v 0.622142 16.322985 0.559338
v -0.000000 -0.164755 1.743519
v 0.034357 16.322985 0.750321
v -1.047626 -0.164755 1.615842
v -0.553429 16.322985 0.559338
v -1.711254 -0.164755 0.747756
v -0.916700 16.322985 0.059338
v -1.658185 -0.164755 -0.538777
v -0.916700 16.322985 -0.558696
v -1.243075 -0.164755 -1.639642
v -0.553429 16.322985 -1.058696
v 0.000000 1.973092 -1.166373
v 0.024436 3.384729 -1.228118
v 0.242851 6.025280 -1.392764
v -0.000000 8.731553 -1.615919
v -0.007036 11.657434 -1.602569
v -0.000000 13.926337 -1.492735
v 0.587785 13.926337 -1.301752
v 0.580749 11.657434 -1.411586
v 0.587785 8.731553 -1.424936
v 0.830636 6.025280 -1.201781
v 0.710100 3.286986 -1.106663
v 0.685577 1.973092 -0.943616
v 0.951057 13.926337 -0.801752
v 0.944020 11.657434 -0.911586
v 0.951057 8.731553 -0.924936
v 1.193907 6.025280 -0.701781
v 0.951057 3.653520 -0.537135
v 1.188106 1.973092 -0.368335
v 0.951056 13.926337 -0.183718
v 0.944020 11.657434 -0.293552
v 0.951056 8.731553 -0.306902
v 1.193907 6.025280 -0.083747
v 0.951056 3.653520 0.080899
v 1.109287 1.973092 0.360429
v 0.587785 13.926337 0.316282
v 0.580749 11.657434 0.206448
v 0.587785 8.731553 0.193098
v 0.830636 6.031416 0.412825
v 0.587785 3.653520 0.580899
v 0.685577 1.973092 0.943616
v -0.000000 13.926337 0.507265
v -0.007036 11.657434 0.397431
v -0.000000 8.731553 0.384081
v 0.164370 7.468031 1.475337
v 0.001773 3.662835 0.771882
v -0.000000 1.973092 1.166373
v -0.587785 13.926337 0.316282
v -0.594822 11.657434 0.206448
v -0.587785 8.731553 0.193098
v -0.344935 6.031416 0.408080
v -0.587785 3.604649 0.580899
v -0.685577 1.973092 0.943616
v -0.951057 13.926337 -0.183718
v -0.958093 11.657434 -0.293552
v -0.951057 8.731553 -0.306902
v -0.708206 6.025280 -0.083747
v -0.951057 3.653520 0.080899
v -1.228198 1.973092 0.532093
v -0.951057 13.926337 -0.801752
v -0.958093 11.657434 -0.911586
v -0.951057 8.731553 -0.924936
v -0.708206 6.025280 -0.701781
v -0.951057 3.653520 -0.537135
v -1.109287 1.973092 -0.360429
v -0.587785 13.926337 -1.301752
v -0.594822 11.657434 -1.411586
v -0.587785 8.731553 -1.424936
v -0.344935 6.025280 -1.201781
v -0.850498 3.653520 -1.437814
v -0.893028 1.973092 -1.276804
v 0.176749 6.745488 0.561843
v 0.214753 6.765180 2.321320
v -0.377500 4.747396 0.605299
v -0.326809 7.087583 1.579808
v 0.611460 7.081992 1.461015
v -0.198893 6.946927 1.933588
v 0.711347 6.933596 2.117553
v 0.644434 4.853504 0.591387
v 0.655734 9.036952 3.363647
v 0.555847 9.117570 2.707109
v 0.108757 9.173717 2.452712
v -0.382422 9.123161 2.825902
v -0.254506 9.050283 3.179682
v 0.159140 9.036729 3.567414
v 0.684344 11.891108 3.621255
v 0.584457 11.971725 2.964717
v 0.137367 12.027872 2.710320
v -0.353813 11.977316 3.083510
v -0.225896 11.904440 3.437290
v 0.187750 11.890884 3.825022
vt 1.000000 0.928571
vt 1.000000 1.000000
vt 0.900000 1.000000
vt 0.900000 0.928571
vt 0.800000 1.000000
vt 0.800000 0.928571
vt 0.700000 1.000000
vt 0.700000 0.928571
vt 0.600000 1.000000
vt 0.600000 0.928571
vt 0.500000 1.000000
vt 0.500000 0.928571
vt 0.400000 1.000000
vt 0.400000 0.928571
vt 0.300000 1.000000
vt 0.300000 0.928571
vt 0.200000 1.000000
vt 0.200000 0.928572
vt 0.391068 0.444164
vt 0.250000 0.490000
vt 0.108932 0.444164
vt 0.021746 0.324164
vt 0.021746 0.175836
vt 0.108932 0.055836
vt 0.250000 0.010000
vt 0.391068 0.055836
vt 0.478254 0.175836
vt 0.478254 0.324164
vt 0.100000 1.000000
vt 0.100000 0.928571
vt -0.000000 1.000000
vt -0.000000 0.928571
vt 0.750000 0.490000
vt 0.891068 0.444164
vt 0.978254 0.324164
vt 0.978254 0.175836
vt 0.891068 0.055836
vt 0.750000 0.010000
vt 0.608932 0.055836
vt 0.521746 0.175836
vt 0.521746 0.324164
vt 0.608932 0.444164
vt 0.100000 0.500000
vt 0.100000 0.571429
vt -0.000000 0.571429
vt -0.000000 0.500000
vt 0.100000 0.642857
vt -0.000000 0.642857
vt 0.100000 0.714286
vt -0.000000 0.714286
vt 0.100000 0.785714
vt -0.000000 0.785714
vt 0.100000 0.857143
vt -0.000000 0.857143
vt 0.200000 0.500000
vt 0.200000 0.571429
vt 0.200000 0.642857
vt 0.200000 0.714286
vt 0.200000 0.785714
vt 0.200000 0.857143
vt 0.300000 0.500000
vt 0.300000 0.571429
vt 0.300000 0.642857
vt 0.300000 0.714286
vt 0.300000 0.785714
vt 0.300000 0.857143
vt 0.400000 0.500000
vt 0.400000 0.571429
vt 0.400000 0.642857
vt 0.400000 0.714286
vt 0.400000 0.785714
vt 0.400000 0.857143
vt 0.500000 0.500000
vt 0.500000 0.571429
vt 0.500000 0.642857
vt 0.400000 0.714286
vt 0.443627 0.695857
vt 0.443627 0.695857
vt 0.400000 0.714286
vt 0.600000 0.642857
vt 0.521091 0.678764
vt 0.500000 0.785714
vt 0.500000 0.857143
vt 0.600000 0.500000
vt 0.600000 0.571429
vt 0.500000 0.672044
vt 0.454210 0.691386
vt 0.458045 0.714286
vt 0.500000 0.750971
vt 0.600000 0.785714
vt 0.600000 0.857143
vt 0.700000 0.500000
vt 0.700000 0.571429
vt 0.700000 0.642857
vt 0.700000 0.714286
vt 0.600000 0.714286
vt 0.700000 0.785714
vt 0.700000 0.857143
vt 0.800000 0.500000
vt 0.800000 0.571429
vt 0.800000 0.642857
vt 0.800000 0.714286
vt 0.800000 0.785714
vt 0.800000 0.857143
vt 0.900000 0.500000
vt 0.900000 0.571429
vt 0.900000 0.642857
vt 0.900000 0.714286
vt 0.900000 0.785714
vt 0.900000 0.857143
vt 1.000000 0.500000
vt 1.000000 0.571429
vt 1.000000 0.642857
vt 1.000000 0.714286
vt 1.000000 0.785714
vt 1.000000 0.857143
vt 0.521091 0.693278
vt 0.522303 0.694499
vt 0.500000 0.672044
vt 0.458045 0.714286
vt 0.500000 0.750971
vt 0.600000 0.714286
vt 0.443627 0.695857
vt 0.400000 0.714286
vt 0.541955 0.714286
vt 0.541955 0.714286
vt 0.522303 0.694499
vt 0.500000 0.672044
vt 0.500000 0.672044
vt 0.541955 0.714286
vt 0.458045 0.714286
vt 0.500000 0.750971
vt 0.600000 0.714286
vt 0.500000 0.750971
vt 0.458045 0.714286
vt 0.476349 0.695857
vt 0.522303 0.694499
vt 0.541955 0.714286
vt 0.600000 0.714286
vn 0.3077 0.0916 -0.9471
vn 0.8081 0.0480 -0.5871
vn 0.9999 -0.0143 0.0000
vn 0.8070 -0.0710 0.5863
vn 0.3075 -0.1004 0.9463
vn -0.3077 -0.0916 0.9471
vn -0.8081 -0.0480 0.5871
vn -0.9999 0.0143 0.0000
vn 0.0000 1.0000 -0.0000
vn -0.8070 0.0710 -0.5863
vn -0.3075 0.1004 -0.9463
vn 0.0000 -1.0000 0.0000
vn -0.3155 0.3763 -0.8711
vn 0.1667 -0.0744 -0.9832
vn 0.0150 0.0121 -0.9998
vn -0.3073 -0.1056 -0.9457
vn -0.3090 0.0036 -0.9511
vn -0.3087 0.0469 -0.9500
vn -0.9283 0.2320 -0.2906
vn -0.9843 0.0416 -0.1716
vn -0.9382 0.1527 -0.3107
vn -0.8032 -0.1202 -0.5835
vn -0.8090 0.0007 -0.5878
vn -0.8086 0.0309 -0.5875
vn -0.9694 0.2333 -0.0765
vn -0.9904 0.1137 -0.0780
vn -0.9948 0.1019 0.0000
vn -0.9960 -0.0894 0.0000
vn -1.0000 -0.0024 0.0000
vn -1.0000 0.0031 0.0000
vn -0.6996 0.2752 0.6595
vn -0.6808 0.2466 0.6898
vn -0.7981 0.1223 0.5899
vn -0.8064 -0.0246 0.5909
vn -0.8090 -0.0046 0.5878
vn -0.8087 -0.0259 0.5876
vn -0.1897 0.2901 0.9380
vn -0.3101 0.2201 0.9249
vn -0.9398 -0.1945 0.2811
vn 0.3095 -0.0229 0.9506
vn -0.3090 -0.0051 0.9510
vn -0.3087 -0.0450 0.9501
vn 0.2607 0.2639 0.9287
vn 0.3035 0.2171 0.9278
vn -0.3113 0.0370 0.9496
vn -0.3256 0.0500 0.9442
vn 0.3090 -0.0036 0.9511
vn 0.3087 -0.0469 0.9500
vn 0.8252 0.2829 0.4889
vn 0.7970 0.1714 0.5791
vn 0.8072 -0.0413 0.5888
vn 0.8026 0.1200 0.5844
vn 0.8090 -0.0007 0.5878
vn 0.8086 -0.0309 0.5875
vn 0.9760 0.2176 0.0069
vn 0.9906 0.1242 0.0580
vn 0.9948 -0.1019 0.0000
vn 0.9960 0.0894 0.0000
vn 1.0000 0.0024 0.0000
vn 1.0000 -0.0031 0.0000
vn 0.7016 0.2562 -0.6649
vn 0.8388 -0.0008 -0.5445
vn 0.8798 -0.0863 -0.4675
vn 0.8088 0.0241 -0.5876
vn 0.8090 0.0046 -0.5878
vn 0.8087 0.0259 -0.5876
vn 0.6011 0.3659 -0.7105
vn 0.2370 -0.0841 -0.9679
vn 0.2334 -0.0616 -0.9704
vn 0.3086 -0.0506 -0.9498
vn 0.3090 0.0051 -0.9510
vn 0.3087 0.0450 -0.9501
vn 0.6830 -0.3997 0.6113
vn 0.3201 0.1085 0.9412
vn -0.6208 0.5973 -0.5078
vn -0.9937 -0.0241 0.1096
vn 0.5666 0.6435 -0.5147
vn -0.9416 -0.0209 0.3361
vn -0.7353 0.1211 0.6668
vn -0.7886 -0.2473 0.5630
vn 0.9968 -0.0157 0.0781
vn 0.8217 -0.0438 0.5682
vn 0.4036 -0.4451 0.7994
vn -0.6837 -0.0588 0.7274
vn 0.9857 0.1057 -0.1315
vn -0.5390 0.4184 -0.7310
vn 0.4378 0.4689 -0.7671
vn -0.6794 -0.3762 0.6300
vn 0.0103 0.9880 0.1540
vn 0.0097 0.9996 0.0246
vn 0.9887 0.0036 -0.1500
vn 0.3782 -0.0870 0.9216
vn -0.6082 0.0774 -0.7900
vn 0.5001 0.0729 -0.8629
usemtl None
s off
f 26/1/1 2/2/1 4/3/1 27/4/1
f 27/4/2 4/3/2 6/5/2 33/6/2
f 33/6/3 6/5/3 8/7/3 39/8/3
f 39/8/4 8/7/4 10/9/4 45/10/4
f 45/10/5 10/9/5 12/11/5 51/12/5
f 51/12/6 12/11/6 14/13/6 57/14/6
f 57/14/7 14/13/7 16/15/7 63/16/7
f 63/16/8 16/15/8 18/17/8 69/18/8
f 4/19/9 2/20/9 20/21/9 18/22/9 16/23/9 14/24/9 12/25/9 10/26/9 8/27/9 6/28/9
f 69/18/10 18/17/10 20/29/10 75/30/10
f 75/30/11 20/29/11 2/31/11 26/32/11
f 1/33/12 3/34/12 5/35/12 7/36/12 9/37/12 11/38/12 13/39/12 15/40/12 17/41/12 19/42/12
f 19/43/13 80/44/13 21/45/13 1/46/13
f 80/44/14 79/47/14 22/48/14 21/45/14
f 79/47/15 78/49/15 23/50/15 22/48/15
f 78/49/16 77/51/16 24/52/16 23/50/16
f 77/51/17 76/53/17 25/54/17 24/52/17
f 76/53/18 75/30/18 26/32/18 25/54/18
f 17/55/19 74/56/19 80/44/19 19/43/19
f 74/56/20 73/57/20 79/47/20 80/44/20
f 73/57/21 72/58/21 78/49/21 79/47/21
f 72/58/22 71/59/22 77/51/22 78/49/22
f 71/59/23 70/60/23 76/53/23 77/51/23
f 70/60/24 69/18/24 75/30/24 76/53/24
f 15/61/25 68/62/25 74/56/25 17/55/25
f 68/62/26 67/63/26 73/57/26 74/56/26
f 67/63/27 66/64/27 72/58/27 73/57/27
f 66/64/28 65/65/28 71/59/28 72/58/28
f 65/65/29 64/66/29 70/60/29 71/59/29
f 64/66/30 63/16/30 69/18/30 70/60/30
f 13/67/31 62/68/31 68/62/31 15/61/31
f 62/68/32 61/69/32 67/63/32 68/62/32
f 61/69/33 60/70/33 66/64/33 67/63/33
f 60/70/34 59/71/34 65/65/34 66/64/34
f 59/71/35 58/72/35 64/66/35 65/65/35
f 58/72/36 57/14/36 63/16/36 64/66/36
f 11/73/37 56/74/37 62/68/37 13/67/37
f 56/74/38 55/75/38 61/69/38 62/68/38
f 84/76/39 86/77/39 93/78/39 92/79/39
f 49/80/40 88/81/40 55/75/40
f 53/82/41 52/83/41 58/72/41 59/71/41
f 52/83/42 51/12/42 57/14/42 58/72/42
f 9/84/43 50/85/43 56/74/43 11/73/43
f 50/85/44 49/80/44 55/75/44 56/74/44
f 55/86/45 83/87/45 61/69/45
f 60/88/46 81/89/46 53/82/46 59/71/46
f 47/90/47 46/91/47 52/83/47 53/82/47
f 46/91/48 45/10/48 51/12/48 52/83/48
f 7/92/49 44/93/49 50/85/49 9/84/49
f 44/93/50 43/94/50 49/80/50 50/85/50
f 43/94/51 42/95/51 48/96/51 49/80/51
f 42/95/52 41/97/52 47/90/52 48/96/52
f 41/97/53 40/98/53 46/91/53 47/90/53
f 40/98/54 39/8/54 45/10/54 46/91/54
f 5/99/55 38/100/55 44/93/55 7/92/55
f 38/100/56 37/101/56 43/94/56 44/93/56
f 37/101/57 36/102/57 42/95/57 43/94/57
f 36/102/58 35/103/58 41/97/58 42/95/58
f 35/103/59 34/104/59 40/98/59 41/97/59
f 34/104/60 33/6/60 39/8/60 40/98/60
f 3/105/61 32/106/61 38/100/61 5/99/61
f 32/106/62 31/107/62 37/101/62 38/100/62
f 31/107/63 30/108/63 36/102/63 37/101/63
f 30/108/64 29/109/64 35/103/64 36/102/64
f 29/109/65 28/110/65 34/104/65 35/103/65
f 28/110/66 27/4/66 33/6/66 34/104/66
f 1/111/67 21/112/67 32/106/67 3/105/67
f 21/112/68 22/113/68 31/107/68 32/106/68
f 22/113/69 23/114/69 30/108/69 31/107/69
f 23/114/70 24/115/70 29/109/70 30/108/70
f 24/115/71 25/116/71 28/110/71 29/109/71
f 25/116/72 26/1/72 27/4/72 28/110/72
f 55/86/73 88/117/73 87/118/73 82/119/73
f 48/96/74 47/90/74 53/82/74 81/89/74
f 81/89/75 60/88/75 84/120/75 54/121/75
f 60/70/76 83/87/76 86/77/76 84/76/76
f 48/96/77 81/89/77 54/121/77 85/122/77
f 92/79/78 93/78/78 99/123/78 98/124/78
f 61/69/79 83/87/79 60/70/79
f 86/77/80 83/87/80 55/86/80 82/119/80
f 87/118/81 88/117/81 48/125/81 85/126/81
f 88/81/82 49/80/82 48/125/82
f 82/119/83 87/118/83 89/127/83 94/128/83
f 93/78/84 94/128/84 100/129/84 99/123/84
f 87/118/85 85/126/85 90/130/85 89/127/85
f 54/121/86 84/120/86 92/131/86 91/132/86
f 85/122/87 54/121/87 91/132/87 90/133/87
f 86/77/88 82/119/88 94/128/88 93/78/88
f 97/134/89 98/135/89 99/136/89 95/137/89 96/138/89
f 95/137/90 99/136/90 100/129/90
f 89/127/91 90/130/91 96/138/91 95/137/91
f 94/128/92 89/127/92 95/137/92 100/129/92
f 91/132/93 92/131/93 98/135/93 97/134/93
f 90/133/94 91/132/94 97/134/94 96/139/94
