# Blender v3.1.2 OBJ File: 'Witch_Tree.blend'
# www.blender.org
mtllib Witch_NewTree1.mtl
o Cylinder.024
v -0.118241 -0.191585 -1.405766
v 0.651723 -0.191585 -1.123856
v 2.962852 -0.191585 -0.740401
v 1.658185 -0.191585 0.538777
v 1.387693 -0.191585 1.595086
v -0.000000 -0.191585 1.743519
v -1.024815 -0.191585 1.410536
v -2.395608 -0.191585 0.975874
v -1.658185 -0.191585 -0.538777
v -2.109924 -0.191585 -2.666174
v 0.000000 1.946262 -1.166373
v 0.024436 3.357899 -1.000000
v 0.242851 5.861579 -0.890904
v 0.000000 8.613477 -1.000000
v -0.007036 11.174370 -0.872592
v 0.580749 11.174370 -0.681609
v 0.587785 8.613477 -0.809017
v 0.830636 5.861579 -0.699921
v 0.710100 3.260157 -0.878545
v 0.685577 1.946262 -0.943616
v 0.944020 11.174370 -0.181609
v 0.951057 8.613477 -0.309017
v 1.193907 5.861579 -0.199921
v 0.951057 3.626691 -0.309017
v 1.735589 1.946262 -0.459583
v 0.944020 11.174370 0.436425
v 0.951056 8.613477 0.309017
v 1.193907 5.861579 0.418113
v 0.951056 3.626691 0.309017
v 1.109287 1.946262 0.360429
v 0.580749 11.174370 0.936426
v 0.587785 8.613477 0.809017
v 0.830636 5.861579 0.918113
v 0.587785 3.626691 0.809017
v 0.685577 1.946262 0.943616
v -0.007036 11.174370 1.127408
v -0.000000 8.613477 1.000000
v 0.242851 5.861579 1.109096
v -0.000000 3.626691 1.000000
v -0.000000 1.946262 1.166373
v -0.594822 11.174370 0.936425
v -0.587785 8.613477 0.809017
v -0.344935 5.861579 0.918113
v -0.587785 3.577820 0.809017
v -0.685577 1.946262 0.943616
v -0.958093 11.174370 0.436426
v -0.951056 8.613477 0.309017
v -0.708206 5.861579 0.418113
v -0.951056 3.626691 0.309017
v -1.228198 1.946262 0.532093
v -0.958093 11.174370 -0.181609
v -0.951056 8.613477 -0.309017
v -0.708206 5.861579 -0.199921
v -0.951056 3.626691 -0.309017
v -1.109287 1.946262 -0.360429
v -0.594822 11.174370 -0.681608
v -0.587785 8.613477 -0.809017
v -0.344934 5.861579 -0.699921
v -0.850498 3.626691 -1.209696
v -1.189581 1.946262 -1.527733
vt 0.750000 0.490000
vt 0.891068 0.444164
vt 0.978254 0.324164
vt 0.978254 0.175836
vt 0.891068 0.055836
vt 0.750000 0.010000
vt 0.608932 0.055836
vt 0.521746 0.175836
vt 0.521746 0.324164
vt 0.608932 0.444164
vt 0.100000 0.500000
vt 0.100000 0.571429
vt -0.000000 0.571429
vt -0.000000 0.500000
vt 0.100000 0.642857
vt -0.000000 0.642857
vt 0.100000 0.714286
vt -0.000000 0.714286
vt 0.100000 0.785714
vt -0.000000 0.785714
vt 0.100000 0.857143
vt -0.000000 0.857143
vt 0.200000 0.500000
vt 0.200000 0.571429
vt 0.200000 0.642857
vt 0.200000 0.714286
vt 0.200000 0.785714
vt 0.200000 0.857143
vt 0.300000 0.857143
vt 0.400000 0.857143
vt 0.500000 0.857143
vt 0.600000 0.857143
vt 0.700000 0.857143
vt 0.800000 0.857143
vt 0.900000 0.857143
vt 1.000000 0.857143
vt 0.300000 0.500000
vt 0.300000 0.571429
vt 0.300000 0.642857
vt 0.300000 0.714286
vt 0.300000 0.785714
vt 0.400000 0.500000
vt 0.400000 0.571429
vt 0.400000 0.642857
vt 0.400000 0.714286
vt 0.400000 0.785714
vt 0.500000 0.500000
vt 0.500000 0.571429
vt 0.500000 0.642857
vt 0.500000 0.714286
vt 0.500000 0.785714
vt 0.600000 0.500000
vt 0.600000 0.571429
vt 0.600000 0.642857
vt 0.600000 0.714286
vt 0.600000 0.785714
vt 0.700000 0.500000
vt 0.700000 0.571429
vt 0.700000 0.642857
vt 0.700000 0.714286
vt 0.700000 0.785714
vt 0.800000 0.500000
vt 0.800000 0.571429
vt 0.800000 0.642857
vt 0.800000 0.714286
vt 0.800000 0.785714
vt 0.900000 0.500000
vt 0.900000 0.571429
vt 0.900000 0.642857
vt 0.900000 0.714286
vt 0.900000 0.785714
vt 1.000000 0.500000
vt 1.000000 0.571429
vt 1.000000 0.642857
vt 1.000000 0.714286
vt 1.000000 0.785714
vn 0.0000 -1.0000 -0.0000
vn 0.4472 0.1741 -0.8773
vn 0.2788 0.1166 -0.9532
vn 0.0355 0.1241 -0.9916
vn -0.3084 -0.0648 -0.9491
vn -0.3087 0.0464 -0.9500
vn -0.9481 0.2786 0.1531
vn -0.9890 0.1474 -0.0097
vn -0.9304 0.1984 -0.3081
vn -0.8054 -0.0943 -0.5852
vn -0.8087 0.0270 -0.5876
vn 0.0000 1.0000 -0.0000
vn -0.8872 0.3365 -0.3156
vn -0.9892 0.1242 -0.0779
vn -0.9941 0.1080 0.0000
vn -0.9961 -0.0879 0.0000
vn -1.0000 -0.0027 0.0000
vn -0.3832 0.3196 0.8666
vn -0.6966 0.1545 0.7006
vn -0.8063 0.0582 0.5886
vn -0.8081 -0.0480 0.5871
vn -0.8086 -0.0315 0.5875
vn -0.2993 0.2487 0.9212
vn -0.3109 0.0951 0.9457
vn -0.3085 -0.0128 0.9511
vn -0.3090 0.0104 0.9510
vn -0.3087 -0.0481 0.9500
vn 0.1682 0.2977 0.9397
vn 0.3077 0.0937 0.9469
vn 0.3080 -0.0797 0.9480
vn 0.3084 0.0648 0.9491
vn 0.3087 -0.0464 0.9500
vn 0.8705 0.3262 0.3686
vn 0.8055 0.0937 0.5852
vn 0.8036 -0.1158 0.5838
vn 0.8054 0.0943 0.5852
vn 0.8087 -0.0270 0.5876
vn 0.7070 0.2781 0.6503
vn 0.8904 0.2383 0.3878
vn 0.9941 -0.1080 0.0000
vn 0.9961 0.0879 0.0000
vn 1.0000 0.0027 0.0000
vn 0.2462 0.1716 -0.9539
vn 0.5834 0.2047 -0.7860
vn 0.8755 -0.0371 -0.4819
vn 0.8081 0.0480 -0.5871
vn 0.8086 0.0315 -0.5875
vn 0.3265 0.0808 -0.9417
vn 0.2479 0.0775 -0.9657
vn 0.2409 0.0387 -0.9698
vn 0.3090 -0.0104 -0.9510
vn 0.3087 0.0481 -0.9500
usemtl None
s off
f 1/1/1 2/2/1 3/3/1 4/4/1 5/5/1 6/6/1 7/7/1 8/8/1 9/9/1 10/10/1
f 10/11/2 60/12/2 11/13/2 1/14/2
f 60/12/3 59/15/3 12/16/3 11/13/3
f 59/15/4 58/17/4 13/18/4 12/16/4
f 58/17/5 57/19/5 14/20/5 13/18/5
f 57/19/6 56/21/6 15/22/6 14/20/6
f 9/23/7 55/24/7 60/12/7 10/11/7
f 55/24/8 54/25/8 59/15/8 60/12/8
f 54/25/9 53/26/9 58/17/9 59/15/9
f 53/26/10 52/27/10 57/19/10 58/17/10
f 52/27/11 51/28/11 56/21/11 57/19/11
f 56/21/12 51/28/12 46/29/12 41/30/12 36/31/12 31/32/12 26/33/12 21/34/12 16/35/12 15/36/12
f 8/37/13 50/38/13 55/24/13 9/23/13
f 50/38/14 49/39/14 54/25/14 55/24/14
f 49/39/15 48/40/15 53/26/15 54/25/15
f 48/40/16 47/41/16 52/27/16 53/26/16
f 47/41/17 46/29/17 51/28/17 52/27/17
f 7/42/18 45/43/18 50/38/18 8/37/18
f 45/43/19 44/44/19 49/39/19 50/38/19
f 44/44/20 43/45/20 48/40/20 49/39/20
f 43/45/21 42/46/21 47/41/21 48/40/21
f 42/46/22 41/30/22 46/29/22 47/41/22
f 6/47/23 40/48/23 45/43/23 7/42/23
f 40/48/24 39/49/24 44/44/24 45/43/24
f 39/49/25 38/50/25 43/45/25 44/44/25
f 38/50/26 37/51/26 42/46/26 43/45/26
f 37/51/27 36/31/27 41/30/27 42/46/27
f 5/52/28 35/53/28 40/48/28 6/47/28
f 35/53/29 34/54/29 39/49/29 40/48/29
f 34/54/30 33/55/30 38/50/30 39/49/30
f 33/55/31 32/56/31 37/51/31 38/50/31
f 32/56/32 31/32/32 36/31/32 37/51/32
f 4/57/33 30/58/33 35/53/33 5/52/33
f 30/58/34 29/59/34 34/54/34 35/53/34
f 29/59/35 28/60/35 33/55/35 34/54/35
f 28/60/36 27/61/36 32/56/36 33/55/36
f 27/61/37 26/33/37 31/32/37 32/56/37
f 3/62/38 25/63/38 30/58/38 4/57/38
f 25/63/39 24/64/39 29/59/39 30/58/39
f 24/64/40 23/65/40 28/60/40 29/59/40
f 23/65/41 22/66/41 27/61/41 28/60/41
f 22/66/42 21/34/42 26/33/42 27/61/42
f 2/67/43 20/68/43 25/63/43 3/62/43
f 20/68/44 19/69/44 24/64/44 25/63/44
f 19/69/45 18/70/45 23/65/45 24/64/45
f 18/70/46 17/71/46 22/66/46 23/65/46
f 17/71/47 16/35/47 21/34/47 22/66/47
f 1/72/48 11/73/48 20/68/48 2/67/48
f 11/73/49 12/74/49 19/69/49 20/68/49
f 12/74/50 13/75/50 18/70/50 19/69/50
f 13/75/51 14/76/51 17/71/51 18/70/51
f 14/76/52 15/36/52 16/35/52 17/71/52
