# Blender v3.1.2 OBJ File: 'Witch_Tree.blend'
# www.blender.org
mtllib Witch_LanternLight.mtl
o Cylinder.018
v 0.027758 0.110247 -0.486775
v 0.454372 0.110247 -0.176821
v 0.454372 1.538183 -0.176821
v 0.027758 1.538183 -0.486775
v -0.308576 1.538183 0.377493
v -0.308576 0.110247 0.377493
v -0.471528 0.110247 -0.124022
v -0.471528 1.538183 -0.124022
v -0.018332 0.098596 -0.493623
v -0.018332 1.549834 -0.493623
v 0.275313 1.549834 0.410125
v 0.275313 0.098596 0.410125
v -0.275313 0.098596 0.410125
v -0.275313 1.549834 0.410125
v -0.463799 1.549834 -0.169973
v -0.463799 0.098596 -0.169973
v 0.442518 1.546963 -0.131636
v 0.442518 0.124202 -0.131636
v 0.281165 0.124202 0.364957
v 0.281165 1.546963 0.364957
vt 0.965966 0.540009
vt 0.965966 0.959991
vt 0.834034 0.959991
vt 0.834034 0.540009
vt 0.765319 0.540770
vt 0.765319 0.959230
vt 0.634681 0.959229
vt 0.634681 0.540770
vt 0.568881 0.536583
vt 0.568881 0.963417
vt 0.431119 0.963417
vt 0.431119 0.536583
vt 0.365966 0.540009
vt 0.365966 0.959991
vt 0.234034 0.959991
vt 0.234034 0.540009
vt 0.168881 0.536583
vt 0.168881 0.963417
vt 0.031119 0.963417
vt 0.031119 0.536583
vn 0.5878 0.0000 -0.8090
vn 0.9511 0.0000 0.3090
vn -0.0000 0.0000 1.0000
vn -0.9511 0.0000 0.3090
vn -0.5878 0.0000 -0.8090
usemtl None
s off
f 1/1/1 4/2/1 3/3/1 2/4/1
f 18/5/2 17/6/2 20/7/2 19/8/2
f 12/9/3 11/10/3 14/11/3 13/12/3
f 6/13/4 5/14/4 8/15/4 7/16/4
f 16/17/5 15/18/5 10/19/5 9/20/5
