# Blender v3.1.2 OBJ File: 'Witch_Tree.blend'
# www.blender.org
mtllib Witch_Prop_Plank2.mtl
o Cube.007
v -0.796120 -3.237225 0.185503
v -0.796120 3.237225 0.185503
v -0.796120 -3.237225 -0.185503
v -0.796120 3.237225 -0.185503
v 0.874183 -3.237225 -0.185503
v 0.874183 3.237225 -0.185503
v 0.825685 3.237225 0.115088
v 0.810772 -3.237225 0.130528
vt 0.375000 0.000000
vt 0.625000 0.000000
vt 0.625000 0.250000
vt 0.375000 0.250000
vt 0.625000 0.500000
vt 0.375000 0.500000
vt 0.418089 0.750000
vt 0.625000 0.844898
vt 0.625000 1.000000
vt 0.375000 1.000000
vt 0.125000 0.500000
vt 0.331911 0.750000
vt 0.125000 0.750000
vt 0.875000 0.500000
vt 0.875000 0.750000
vt 0.625000 0.655102
vt 0.530102 0.750000
vt 0.375000 0.706911
vn -1.0000 0.0000 0.0000
vn 0.0000 0.0000 -1.0000
vn 0.0388 0.0011 0.9992
vn 0.0000 -1.0000 -0.0000
vn 0.0000 1.0000 0.0000
vn 0.9839 -0.0009 0.1786
usemtl None
s off
f 1/1/1 2/2/1 4/3/1 3/4/1
f 3/4/2 4/3/2 6/5/2 5/6/2
f 8/7/3 7/8/3 2/9/3 1/10/3
f 3/11/4 5/6/4 8/12/4 1/13/4
f 6/5/5 4/14/5 2/15/5 7/16/5
f 5/6/6 6/5/6 7/17/6 8/18/6
