# Blender v3.1.2 OBJ File: 'Witch_Tree.blend'
# www.blender.org
mtllib Witch_Bottle3.mtl
o Cylinder.014
v 0.000000 -1.000000 -1.000000
v -0.000000 2.135903 -0.240200
v 0.866025 -1.000000 -0.500000
v 0.208019 2.135903 -0.120100
v 0.866025 -1.000000 0.500000
v 0.208019 2.135903 0.120100
v -0.000000 -1.000000 1.000000
v -0.000000 2.135903 0.240200
v -0.866025 -1.000000 0.500000
v -0.208019 2.135903 0.120100
v -0.866025 -1.000000 -0.500000
v -0.208019 2.135903 -0.120100
v -0.000000 0.321343 -1.700805
v 1.472941 0.321343 -0.850403
v 1.472941 0.321343 0.850403
v -0.000000 0.321343 1.700805
v -1.472941 0.321343 0.850402
v -1.472941 0.321343 -0.850403
v -0.000000 0.773054 -0.951770
v 0.824257 0.773054 -0.475885
v 0.824257 0.773054 0.475885
v -0.000000 0.773054 0.951770
v -0.824257 0.773054 0.475885
v -0.824257 0.773054 -0.475885
v 1.317145 -0.512793 -0.760454
v 1.317145 -0.512793 0.760454
v -0.000000 -0.512793 1.520908
v -1.317145 -0.512793 0.760454
v -1.317145 -0.512793 -0.760454
v 0.000000 -0.512793 -1.520908
vt 1.000000 0.875000
vt 1.000000 1.000000
vt 0.833333 1.000000
vt 0.833333 0.875000
vt 0.666667 1.000000
vt 0.666667 0.875000
vt 0.500000 1.000000
vt 0.500000 0.875000
vt 0.333333 1.000000
vt 0.333333 0.875000
vt 0.457846 0.370000
vt 0.250000 0.490000
vt 0.042154 0.370000
vt 0.042154 0.130000
vt 0.250000 0.010000
vt 0.457846 0.130000
vt 0.166667 1.000000
vt 0.166667 0.875000
vt -0.000000 1.000000
vt -0.000000 0.875000
vt 0.750000 0.490000
vt 0.957846 0.370000
vt 0.957846 0.130000
vt 0.750000 0.010000
vt 0.542154 0.130000
vt 0.542154 0.370000
vt 0.166667 0.625000
vt 0.166667 0.750000
vt -0.000000 0.750000
vt -0.000000 0.625000
vt 0.333333 0.625000
vt 0.333333 0.750000
vt 0.500000 0.625000
vt 0.500000 0.750000
vt 0.666667 0.625000
vt 0.666667 0.750000
vt 0.833333 0.625000
vt 0.833333 0.750000
vt 1.000000 0.625000
vt 1.000000 0.750000
vt 1.000000 0.500000
vt 0.833333 0.500000
vt 0.666667 0.500000
vt 0.500000 0.500000
vt 0.333333 0.500000
vt 0.166667 0.500000
vt -0.000000 0.500000
vn 0.4556 0.4120 -0.7891
vn 0.9112 0.4120 0.0000
vn 0.4556 0.4120 0.7891
vn -0.4556 0.4120 0.7891
vn 0.0000 1.0000 0.0000
vn -0.9112 0.4120 0.0000
vn -0.4556 0.4120 -0.7891
vn 0.0000 -1.0000 0.0000
vn -0.4915 -0.1836 -0.8513
vn -0.9830 -0.1836 0.0000
vn -0.4915 -0.1836 0.8513
vn 0.4915 -0.1836 0.8513
vn 0.9830 -0.1836 0.0000
vn 0.4915 -0.1836 -0.8513
vn -0.2857 0.8206 -0.4949
vn -0.5714 0.8206 0.0000
vn -0.2857 0.8206 0.4949
vn 0.2857 0.8206 0.4949
vn 0.5714 0.8206 0.0000
vn 0.2857 0.8206 -0.4949
vn 0.3669 -0.6794 -0.6355
vn 0.7338 -0.6794 0.0000
vn 0.3669 -0.6794 0.6355
vn -0.3669 -0.6794 0.6355
vn -0.7338 -0.6794 0.0000
vn -0.3669 -0.6794 -0.6355
usemtl None
s off
f 19/1/1 2/2/1 4/3/1 20/4/1
f 20/4/2 4/3/2 6/5/2 21/6/2
f 21/6/3 6/5/3 8/7/3 22/8/3
f 22/8/4 8/7/4 10/9/4 23/10/4
f 4/11/5 2/12/5 12/13/5 10/14/5 8/15/5 6/16/5
f 23/10/6 10/9/6 12/17/6 24/18/6
f 24/18/7 12/17/7 2/19/7 19/20/7
f 1/21/8 3/22/8 5/23/8 7/24/8 9/25/8 11/26/8
f 29/27/9 18/28/9 13/29/9 30/30/9
f 28/31/10 17/32/10 18/28/10 29/27/10
f 27/33/11 16/34/11 17/32/11 28/31/11
f 26/35/12 15/36/12 16/34/12 27/33/12
f 25/37/13 14/38/13 15/36/13 26/35/13
f 30/39/14 13/40/14 14/38/14 25/37/14
f 18/28/15 24/18/15 19/20/15 13/29/15
f 17/32/16 23/10/16 24/18/16 18/28/16
f 16/34/17 22/8/17 23/10/17 17/32/17
f 15/36/18 21/6/18 22/8/18 16/34/18
f 14/38/19 20/4/19 21/6/19 15/36/19
f 13/40/20 19/1/20 20/4/20 14/38/20
f 1/41/21 30/39/21 25/37/21 3/42/21
f 3/42/22 25/37/22 26/35/22 5/43/22
f 5/43/23 26/35/23 27/33/23 7/44/23
f 7/44/24 27/33/24 28/31/24 9/45/24
f 9/45/25 28/31/25 29/27/25 11/46/25
f 11/46/26 29/27/26 30/30/26 1/47/26
