# Blender v3.1.2 OBJ File: 'Witch_Tree.blend'
# www.blender.org
mtllib Witch_WellTop.mtl
o Cube.017
v -1.540551 0.578898 0.246273
v -1.540551 5.606922 0.246273
v -1.540551 0.578898 -0.246273
v -1.540551 5.606922 -0.246273
v -1.239609 0.578898 0.246273
v -1.239609 5.606922 0.246273
v -1.239609 0.578898 -0.246273
v -1.239609 5.606922 -0.246273
v -1.553956 3.673106 1.255460
v -1.648674 3.673106 -1.222286
v -1.648674 3.252476 1.255460
v -1.648674 3.252477 -1.222286
v -1.397241 3.673106 1.255460
v -1.397241 3.673106 -1.222286
v -1.397241 3.252476 1.255460
v -1.397241 3.252477 -1.222286
v -1.493993 3.068702 1.655060
v -1.582947 3.149673 -1.781276
v -1.857676 5.868035 0.235645
v 0.000000 3.068702 -1.641237
v -1.857676 5.133406 -0.153809
v 0.000000 3.068702 1.655060
v 0.000000 3.282765 1.183135
v 0.000000 2.902643 -1.353614
v -1.799282 2.902643 -1.353614
v -1.710328 3.282765 1.183135
v 0.000000 5.715199 -0.235645
v 0.000000 5.715199 0.235645
v -1.710328 5.715199 0.235645
v -1.710328 5.715199 -0.235645
v -1.710328 5.868035 0.235645
v -1.710328 5.868035 -0.235645
v 0.000000 5.868035 0.235645
v 0.000000 5.868035 -0.235645
v -1.710328 5.133406 -0.153809
v -1.710328 5.134062 0.155023
v -1.857676 5.715199 0.235645
v -1.857676 5.715199 -0.235645
v 0.000000 5.134062 0.155023
v 0.000000 5.133406 -0.153809
v -1.857676 5.868035 -0.235645
v -1.857676 5.134062 0.155023
v -0.844985 3.068702 -1.641237
v -0.844985 3.068702 1.655060
v -0.844985 3.282765 1.183135
v -0.844985 2.902643 -1.353614
v -0.844985 5.715199 0.235645
v -0.844985 5.715199 -0.235645
v -0.844985 5.868035 0.235645
v -0.844985 5.868035 -0.235645
v -0.844985 5.133406 -0.153809
v -0.844985 5.134062 0.155023
v -1.277657 3.282765 1.183135
v -1.277657 5.796170 -0.375683
v -1.277657 5.868035 -0.235645
v -1.277657 5.134062 0.155023
v -1.277657 5.715199 0.235645
v -1.277657 5.868035 0.235645
v -1.277657 5.133406 -0.153809
v -0.422493 3.068702 1.655060
v -0.422493 2.902643 -1.353614
v -0.422493 5.715199 0.235645
v -0.422493 5.868035 0.235645
v -0.422493 5.133406 -0.153809
v -0.422493 3.157156 -1.754681
v -0.422493 3.282765 1.183135
v -0.422493 5.803653 -0.349088
v -0.422493 5.868035 -0.235645
v -0.422493 5.134062 0.155023
v -1.574828 3.220211 1.573801
v 0.000000 3.220211 1.573801
v 0.000000 3.410510 1.113726
v -1.710328 3.410510 1.113726
v -0.844985 3.410510 1.113726
v -0.844985 3.220211 1.573801
v -1.277657 3.410510 1.113726
v -1.277657 3.287950 1.634599
v -0.422493 3.315048 1.707186
v -0.422493 3.410510 1.113726
v 0.000000 5.435781 0.385507
v -1.710328 4.898468 0.283030
v -0.844985 4.898468 0.283030
v -1.277657 4.898468 0.283030
v -0.422493 4.898468 0.283030
v -1.574828 5.435781 0.385507
v 0.000000 4.898468 0.283030
v -0.844985 5.435781 0.385507
v -1.277657 5.503520 0.446305
v -0.422493 5.530619 0.518893
v 0.000000 2.985673 1.511248
v 0.000000 2.908656 -1.560457
v -1.710328 5.424303 -0.194727
v -1.857676 5.424631 0.195334
v -1.857676 5.424303 -0.194727
v -1.710328 5.424631 0.195334
v -0.844985 2.985673 1.511248
v -0.844985 2.908656 -1.560457
v -1.799282 2.908656 -1.560457
v -1.493993 2.985673 1.511248
v -0.422493 2.985673 1.511248
v -0.422493 2.908656 -1.560457
v -1.710328 3.125299 1.435914
v -1.710328 5.167125 0.334269
v 1.540551 0.578898 0.246273
v 1.540551 5.606922 0.246273
v 1.540551 0.578898 -0.246273
v 1.540551 5.606922 -0.246273
v 1.239609 0.578898 0.246273
v 1.239609 5.606922 0.246273
v 1.239609 0.578898 -0.246273
v 1.239609 5.606922 -0.246273
v 1.553956 3.673106 1.255460
v 1.648674 3.673106 -1.222286
v 1.648674 3.252476 1.255460
v 1.648674 3.252477 -1.222286
v 1.397241 3.673106 1.255460
v 1.397241 3.673106 -1.222286
v 1.397241 3.252476 1.255460
v 1.397241 3.252477 -1.222286
v 1.493993 3.068702 1.655060
v 1.582947 3.149673 -1.781276
v 1.857676 5.868035 0.235645
v 1.857676 5.133406 -0.153809
v 1.799282 2.902643 -1.353614
v 1.710328 3.282765 1.183135
v 1.710328 5.715199 0.235645
v 1.710328 5.715199 -0.235645
v 1.710328 5.868035 0.235645
v 1.710328 5.868035 -0.235645
v 1.710328 5.133406 -0.153809
v 1.710328 5.134062 0.155023
v 1.857676 5.715199 0.235645
v 1.857676 5.715199 -0.235645
v 1.857676 5.868035 -0.235645
v 1.857676 5.134062 0.155023
v 0.844985 3.068702 -1.641237
v 0.844985 3.068702 1.655060
v 0.844985 3.282765 1.183135
v 0.844985 2.902643 -1.353614
v 0.844985 5.715199 0.235645
v 0.844985 5.715199 -0.235645
v 0.844985 5.868035 0.235645
v 0.844985 5.868035 -0.235645
v 0.844985 5.133406 -0.153809
v 0.844985 5.134062 0.155023
v 1.277657 3.282765 1.183135
v 1.277657 5.796170 -0.375683
v 1.277657 5.868035 -0.235645
v 1.277657 5.134062 0.155023
v 1.277657 5.715199 0.235645
v 1.277657 5.868035 0.235645
v 1.277657 5.133406 -0.153809
v 0.422493 3.068702 1.655060
v 0.422493 2.902643 -1.353614
v 0.422493 5.715199 0.235645
v 0.422493 5.868035 0.235645
v 0.422493 5.133406 -0.153809
v 0.422493 3.157156 -1.754681
v 0.422493 3.282765 1.183135
v 0.422493 5.803653 -0.349088
v 0.422493 5.868035 -0.235645
v 0.422493 5.134062 0.155023
v 1.574828 3.220211 1.573801
v 1.710328 3.410510 1.113726
v 0.844985 3.410510 1.113726
v 0.844985 3.220211 1.573801
v 1.277657 3.410510 1.113726
v 1.277657 3.287950 1.634599
v 0.422493 3.315048 1.707186
v 0.422493 3.410510 1.113726
v 1.710328 4.898468 0.283030
v 0.844985 4.898468 0.283030
v 1.277657 4.898468 0.283030
v 0.422493 4.898468 0.283030
v 1.574828 5.435781 0.385507
v 0.844985 5.435781 0.385507
v 1.277657 5.503520 0.446305
v 0.422493 5.530619 0.518893
v 1.710328 5.424303 -0.194727
v 1.857676 5.424631 0.195334
v 1.857676 5.424303 -0.194727
v 1.710328 5.424631 0.195334
v 0.844985 2.985673 1.511248
v 0.844985 2.908656 -1.560457
v 1.799282 2.908656 -1.560457
v 1.493993 2.985673 1.511248
v 0.422493 2.985673 1.511248
v 0.422493 2.908656 -1.560457
v 1.710328 3.125299 1.435914
v 1.710328 5.167125 0.334269
vt 0.375000 0.000000
vt 0.625000 0.000000
vt 0.625000 0.250000
vt 0.375000 0.250000
vt 0.625000 0.500000
vt 0.375000 0.500000
vt 0.625000 0.750000
vt 0.375000 0.750000
vt 0.625000 1.000000
vt 0.375000 1.000000
vt 0.125000 0.500000
vt 0.125000 0.750000
vt 0.875000 0.500000
vt 0.875000 0.750000
vt 0.375000 0.000000
vt 0.625000 0.000000
vt 0.625000 0.250000
vt 0.375000 0.250000
vt 0.625000 0.500000
vt 0.375000 0.500000
vt 0.625000 0.750000
vt 0.375000 0.750000
vt 0.625000 1.000000
vt 0.375000 1.000000
vt 0.125000 0.500000
vt 0.125000 0.750000
vt 0.875000 0.500000
vt 0.875000 0.750000
vt 0.596701 0.143429
vt 0.591509 0.130425
vt 0.601199 0.130654
vt 0.620834 0.150289
vt 0.843378 0.744530
vt 0.875000 0.744530
vt 0.843378 0.750000
vt 0.219122 0.520757
vt 0.250000 0.520757
vt 0.250000 0.541515
vt 0.219122 0.541515
vt 0.375000 0.229243
vt 0.597742 0.144471
vt 0.625000 0.154456
vt 0.375000 0.250000
vt 0.522570 0.098452
vt 0.525235 0.107623
vt 0.449021 0.115535
vt 0.441206 0.107720
vt 0.625000 0.125000
vt 0.625000 0.095544
vt 0.625000 0.095544
vt 0.625000 0.125000
vt 0.219122 0.729243
vt 0.250000 0.729243
vt 0.250000 0.750000
vt 0.219122 0.750000
vt 0.156622 0.642280
vt 0.125000 0.642280
vt 0.125000 0.634465
vt 0.156622 0.634465
vt 0.000000 0.000000
vt 0.000000 0.000000
vt 0.000000 0.000000
vt 0.000000 0.000000
vt 0.875000 0.500000
vt 0.875000 0.595544
vt 0.843378 0.595544
vt 0.780878 0.654456
vt 0.750000 0.654456
vt 0.750000 0.595544
vt 0.780878 0.595544
vt 0.875000 0.654456
vt 0.875000 0.595544
vt 0.875000 0.595544
vt 0.875000 0.654456
vt 0.843378 0.595544
vt 0.780878 0.654456
vt 0.750000 0.654456
vt 0.875000 0.654456
vt 0.875000 0.654456
vt 0.219122 0.615514
vt 0.250000 0.615514
vt 0.250000 0.634465
vt 0.219122 0.634465
vt 0.156622 0.615514
vt 0.125000 0.615514
vt 0.156622 0.541515
vt 0.125000 0.634465
vt 0.125000 0.615514
vt 0.601448 0.099711
vt 0.601448 0.099711
vt 0.525235 0.107623
vt 0.570484 0.134486
vt 0.570484 0.134486
vt 0.875000 0.595544
vt 0.188244 0.615514
vt 0.188244 0.541515
vt 0.188244 0.634465
vt 0.843378 0.654456
vt 0.811756 0.654456
vt 0.811756 0.654456
vt 0.843378 0.654456
vt 0.780878 0.595544
vt 0.811756 0.595544
vt 0.811756 0.595544
vt 0.780878 0.500000
vt 0.811756 0.500000
vt 0.219122 0.642280
vt 0.188244 0.642280
vt 0.156622 0.729243
vt 0.188244 0.729243
vt 0.188244 0.750000
vt 0.156622 0.750000
vt 0.156622 0.520757
vt 0.188244 0.520757
vt 0.780878 0.744530
vt 0.811756 0.744530
vt 0.811756 0.750000
vt 0.780878 0.750000
vt 0.843378 0.500000
vt 0.750000 0.744530
vt 0.750000 0.750000
vt 0.250000 0.642280
vt 0.750000 0.500000
vt 0.750000 0.595544
vt 0.250000 0.708485
vt 0.219122 0.708485
vt 0.219122 0.704248
vt 0.250000 0.704248
vt 0.750000 0.664543
vt 0.780878 0.664543
vt 0.811756 0.664543
vt 0.843378 0.664543
vt 0.188244 0.708485
vt 0.156622 0.708485
vt 0.156622 0.704248
vt 0.188244 0.704248
vt 0.125000 0.708485
vt 0.125000 0.704248
vt 0.500000 0.020757
vt 0.501445 0.025730
vt 0.379238 0.045752
vt 0.375000 0.041515
vt 0.875000 0.664543
vt 0.623652 0.005708
vt 0.603935 0.089183
vt 0.625000 0.000000
vt 0.188244 0.500000
vt 0.219122 0.500000
vt 0.125000 0.729243
vt 0.156622 0.500000
vt 0.625000 0.154456
vt 0.449021 0.115535
vt 0.375000 0.208485
vt 0.250000 0.500000
vt 0.581819 0.130196
vt 0.375000 0.000000
vt 0.375000 0.250000
vt 0.625000 0.250000
vt 0.625000 0.000000
vt 0.375000 0.500000
vt 0.625000 0.500000
vt 0.375000 0.750000
vt 0.625000 0.750000
vt 0.375000 1.000000
vt 0.625000 1.000000
vt 0.125000 0.500000
vt 0.125000 0.750000
vt 0.875000 0.750000
vt 0.875000 0.500000
vt 0.375000 0.000000
vt 0.375000 0.250000
vt 0.625000 0.250000
vt 0.625000 0.000000
vt 0.375000 0.500000
vt 0.625000 0.500000
vt 0.375000 0.750000
vt 0.625000 0.750000
vt 0.375000 1.000000
vt 0.625000 1.000000
vt 0.125000 0.500000
vt 0.125000 0.750000
vt 0.875000 0.750000
vt 0.875000 0.500000
vt 0.596701 0.143429
vt 0.620834 0.150289
vt 0.601199 0.130654
vt 0.591509 0.130425
vt 0.843378 0.744530
vt 0.843378 0.750000
vt 0.875000 0.744530
vt 0.219122 0.520757
vt 0.219122 0.541515
vt 0.375000 0.229243
vt 0.375000 0.250000
vt 0.625000 0.154456
vt 0.597742 0.144471
vt 0.522570 0.098452
vt 0.441206 0.107720
vt 0.449021 0.115535
vt 0.525235 0.107623
vt 0.625000 0.125000
vt 0.625000 0.125000
vt 0.625000 0.095544
vt 0.625000 0.095544
vt 0.219122 0.729243
vt 0.219122 0.750000
vt 0.156622 0.642280
vt 0.156622 0.634465
vt 0.125000 0.634465
vt 0.125000 0.642280
vt 0.875000 0.500000
vt 0.843378 0.595544
vt 0.875000 0.595544
vt 0.780878 0.654456
vt 0.780878 0.595544
vt 0.875000 0.654456
vt 0.875000 0.654456
vt 0.875000 0.595544
vt 0.875000 0.595544
vt 0.843378 0.595544
vt 0.780878 0.654456
vt 0.875000 0.654456
vt 0.875000 0.654456
vt 0.219122 0.615514
vt 0.219122 0.634465
vt 0.156622 0.615514
vt 0.156622 0.541515
vt 0.125000 0.615514
vt 0.125000 0.615514
vt 0.125000 0.634465
vt 0.525235 0.107623
vt 0.601448 0.099711
vt 0.601448 0.099711
vt 0.570484 0.134486
vt 0.570484 0.134486
vt 0.875000 0.595544
vt 0.188244 0.541515
vt 0.188244 0.615514
vt 0.188244 0.634465
vt 0.843378 0.654456
vt 0.843378 0.654456
vt 0.811756 0.654456
vt 0.811756 0.654456
vt 0.780878 0.595544
vt 0.811756 0.595544
vt 0.811756 0.595544
vt 0.780878 0.500000
vt 0.811756 0.500000
vt 0.219122 0.642280
vt 0.188244 0.642280
vt 0.156622 0.729243
vt 0.156622 0.750000
vt 0.188244 0.750000
vt 0.188244 0.729243
vt 0.156622 0.520757
vt 0.188244 0.520757
vt 0.780878 0.744530
vt 0.780878 0.750000
vt 0.811756 0.750000
vt 0.811756 0.744530
vt 0.843378 0.500000
vt 0.219122 0.704248
vt 0.219122 0.708485
vt 0.780878 0.664543
vt 0.811756 0.664543
vt 0.843378 0.664543
vt 0.188244 0.708485
vt 0.188244 0.704248
vt 0.156622 0.704248
vt 0.156622 0.708485
vt 0.125000 0.704248
vt 0.125000 0.708485
vt 0.500000 0.020757
vt 0.375000 0.041515
vt 0.379238 0.045752
vt 0.501445 0.025730
vt 0.875000 0.664543
vt 0.623652 0.005708
vt 0.603935 0.089183
vt 0.625000 0.000000
vt 0.188244 0.500000
vt 0.219122 0.500000
vt 0.125000 0.729243
vt 0.156622 0.500000
vt 0.625000 0.154456
vt 0.449021 0.115535
vt 0.375000 0.208485
vt 0.581819 0.130196
vn -1.0000 0.0000 0.0000
vn 0.0000 0.0000 -1.0000
vn 1.0000 0.0000 0.0000
vn 0.0000 0.0000 1.0000
vn 0.0000 -1.0000 0.0000
vn 0.0000 1.0000 0.0000
vn -0.9935 0.1119 0.0190
vn -0.2628 0.3434 0.9017
vn 0.0000 -0.9996 -0.0291
vn -0.9138 0.1967 -0.3554
vn 0.0000 -0.8660 0.5000
vn 0.0000 -0.4774 -0.8787
vn -0.3502 0.4706 -0.8099
vn -0.1837 0.5199 -0.8342
vn 0.0000 -1.0000 0.0021
vn 0.0000 -0.4737 0.8807
vn 0.0000 -0.1374 0.9905
vn 0.0000 -0.1393 -0.9903
vn -0.1652 0.4566 -0.8742
vn -0.3179 0.4447 -0.8373
vn -0.1634 0.0720 0.9839
vn 0.1837 0.5199 -0.8342
vn 0.2661 0.4401 -0.8576
vn 0.0688 0.2264 0.9716
vn 0.1634 0.0720 0.9839
vn 0.3179 0.4447 -0.8373
vn 0.1652 0.4566 -0.8742
vn 0.3587 0.4412 0.8226
vn 0.1941 0.4637 0.8645
vn -0.3587 0.4412 0.8226
vn -0.5708 -0.6969 -0.4341
vn -0.2768 0.4542 0.8468
vn -0.1205 0.5657 0.8158
vn -0.1885 0.6701 0.7179
vn 0.1024 0.5887 0.8019
vn 0.1885 0.6701 0.7179
vn 0.0000 -0.4875 -0.8731
vn -0.7809 0.2959 0.5501
vn -0.7019 -0.3992 0.5898
vn -0.0528 -0.5576 -0.8284
vn 0.0000 -0.7413 -0.6712
vn 0.0360 -0.6130 -0.7893
vn -0.8129 0.1031 0.5732
vn -0.9994 0.0227 0.0272
vn 0.0528 -0.5576 -0.8284
vn 0.9935 0.1119 0.0190
vn 0.2628 0.3434 0.9017
vn 0.9138 0.1967 -0.3554
vn 0.3502 0.4706 -0.8099
vn -0.2661 0.4401 -0.8576
vn -0.0688 0.2264 0.9716
vn -0.1941 0.4637 0.8645
vn 0.5708 -0.6969 -0.4341
vn 0.2768 0.4542 0.8468
vn 0.1205 0.5657 0.8158
vn -0.1024 0.5887 0.8019
vn 0.7809 0.2959 0.5501
vn 0.7019 -0.3992 0.5898
vn -0.0360 -0.6130 -0.7893
vn 0.8129 0.1031 0.5732
vn 0.9994 0.0227 0.0272
usemtl None
s off
f 1/1/1 2/2/1 4/3/1 3/4/1
f 3/4/2 4/3/2 8/5/2 7/6/2
f 7/6/3 8/5/3 6/7/3 5/8/3
f 5/8/4 6/7/4 2/9/4 1/10/4
f 3/11/5 7/6/5 5/8/5 1/12/5
f 8/5/6 4/13/6 2/14/6 6/7/6
f 9/15/7 10/16/7 12/17/7 11/18/7
f 11/18/5 12/17/5 16/19/5 15/20/5
f 15/20/3 16/19/3 14/21/3 13/22/3
f 13/22/6 14/21/6 10/23/6 9/24/6
f 11/25/4 15/20/4 13/22/4 9/26/4
f 16/19/2 12/27/2 10/28/2 14/21/2
f 94/29/1 93/30/1 37/31/1 38/32/1
f 77/33/8 70/34/8 17/35/8
f 101/36/9 91/37/9 24/38/9 61/39/9
f 98/40/10 92/41/10 30/42/10 18/43/10
f 103/44/1 95/45/1 36/46/1 81/47/1
f 38/48/1 37/49/1 19/50/1 41/51/1
f 100/52/11 90/53/11 22/54/11 60/55/11
f 83/56/12 81/57/12 36/58/12 56/59/12
f 28/60/3 27/61/3 34/62/3 33/63/3
f 18/64/13 30/65/13 54/66/13
f 63/67/6 33/68/6 34/69/6 68/70/6
f 31/71/6 32/72/6 41/73/6 19/74/6
f 54/66/14 30/65/14 32/72/14 55/75/14
f 62/76/4 28/77/4 33/68/4 63/67/4
f 29/78/4 31/71/4 19/74/4 37/79/4
f 64/80/15 40/81/15 39/82/15 69/83/15
f 59/84/16 35/85/16 25/86/16
f 35/85/15 36/58/15 42/87/15 21/88/15
f 95/45/17 29/89/17 37/90/17 93/91/17
f 92/41/18 35/92/18 21/93/18 94/29/18
f 32/72/2 30/65/2 38/94/2 41/73/2
f 64/80/16 51/95/16 46/96/16 61/39/16
f 59/84/15 51/95/15 52/97/15 56/59/15
f 57/98/4 47/99/4 49/100/4 58/101/4
f 67/102/19 48/103/19 50/104/19 68/70/19
f 58/101/6 49/100/6 50/104/6 55/75/6
f 65/105/20 43/106/20 48/103/20 67/102/20
f 84/107/12 82/108/12 52/97/12 69/83/12
f 99/109/11 96/110/11 44/111/11 17/112/11
f 98/113/9 97/114/9 46/96/9 25/86/9
f 78/115/21 75/116/21 44/117/21 60/118/21
f 31/71/6 58/101/6 55/75/6 32/72/6
f 29/78/4 57/98/4 58/101/4 31/71/4
f 35/85/15 59/84/15 56/59/15 36/58/15
f 51/95/16 59/84/16 25/86/16 46/96/16
f 48/103/22 54/66/22 55/75/22 50/104/22
f 43/106/23 18/119/23 54/66/23 48/103/23
f 82/108/12 83/56/12 56/59/12 52/97/12
f 75/116/24 77/33/24 17/35/24 44/117/24
f 71/120/25 78/115/25 60/118/25 22/121/25
f 86/122/12 84/107/12 69/83/12 39/82/12
f 20/123/26 65/105/26 67/102/26 27/124/26
f 27/124/27 67/102/27 68/70/27 34/69/27
f 40/81/16 64/80/16 61/39/16 24/38/16
f 51/95/15 64/80/15 69/83/15 52/97/15
f 47/99/4 62/76/4 63/67/4 49/100/4
f 49/100/6 63/67/6 68/70/6 50/104/6
f 96/110/11 100/52/11 60/55/11 44/111/11
f 97/114/9 101/36/9 61/39/9 46/96/9
f 23/125/12 66/126/12 79/127/12 72/128/12
f 80/129/28 89/130/28 78/115/28 71/120/28
f 87/131/29 88/132/29 77/33/29 75/116/29
f 45/133/12 53/134/12 76/135/12 74/136/12
f 89/130/30 87/131/30 75/116/30 78/115/30
f 66/126/12 45/133/12 74/136/12 79/127/12
f 53/134/12 26/137/12 73/138/12 76/135/12
f 99/139/31 102/140/31 73/141/31 26/142/31
f 88/132/32 85/143/32 70/34/32 77/33/32
f 57/98/33 29/78/33 85/143/33 88/132/33
f 62/76/34 47/99/34 87/131/34 89/130/34
f 47/99/35 57/98/35 88/132/35 87/131/35
f 28/77/36 62/76/36 89/130/36 80/129/36
f 72/128/37 79/127/37 84/107/37 86/122/37
f 74/136/37 76/135/37 83/56/37 82/108/37
f 79/127/37 74/136/37 82/108/37 84/107/37
f 76/135/37 73/138/37 81/57/37 83/56/37
f 102/140/1 103/44/1 81/47/1 73/141/1
f 70/144/38 85/145/38 103/44/38 102/140/38
f 17/146/39 70/144/39 102/140/39 99/139/39
f 43/147/40 65/148/40 101/36/40 97/114/40
f 45/133/41 66/126/41 100/52/41 96/110/41
f 26/137/41 53/134/41 99/149/41
f 18/150/42 43/147/42 97/114/42 98/113/42
f 53/134/41 45/133/41 96/110/41 99/109/41
f 30/42/18 92/41/18 94/29/18 38/151/18
f 36/46/17 95/45/17 93/91/17 42/152/17
f 66/126/41 23/125/41 90/53/41 100/52/41
f 85/145/43 29/89/43 95/45/43 103/44/43
f 25/153/44 35/92/44 92/41/44 98/40/44
f 65/148/45 20/154/45 91/37/45 101/36/45
f 21/93/1 42/155/1 93/30/1 94/29/1
f 104/156/3 106/157/3 107/158/3 105/159/3
f 106/157/2 110/160/2 111/161/2 107/158/2
f 110/160/1 108/162/1 109/163/1 111/161/1
f 108/162/4 104/164/4 105/165/4 109/163/4
f 106/166/5 104/167/5 108/162/5 110/160/5
f 111/161/6 109/163/6 105/168/6 107/169/6
f 112/170/46 114/171/46 115/172/46 113/173/46
f 114/171/5 118/174/5 119/175/5 115/172/5
f 118/174/1 116/176/1 117/177/1 119/175/1
f 116/176/6 112/178/6 113/179/6 117/177/6
f 114/180/4 112/181/4 116/176/4 118/174/4
f 119/175/2 117/177/2 113/182/2 115/183/2
f 181/184/3 133/185/3 132/186/3 180/187/3
f 168/188/47 120/189/47 163/190/47
f 188/191/9 154/192/9 24/38/9 91/37/9
f 185/193/48 121/194/48 127/195/48 179/196/48
f 190/197/3 171/198/3 131/199/3 182/200/3
f 133/201/3 134/202/3 122/203/3 132/204/3
f 187/205/11 153/206/11 22/54/11 90/53/11
f 173/207/12 149/208/12 131/209/12 171/210/12
f 121/211/49 147/212/49 127/213/49
f 156/214/6 161/215/6 34/69/6 33/68/6
f 128/216/6 122/217/6 134/218/6 129/219/6
f 147/212/22 148/220/22 129/219/22 127/213/22
f 155/221/4 156/214/4 33/68/4 28/77/4
f 126/222/4 132/223/4 122/217/4 128/216/4
f 157/224/15 162/225/15 39/82/15 40/81/15
f 152/226/16 124/227/16 130/228/16
f 130/228/15 123/229/15 135/230/15 131/209/15
f 182/200/17 180/231/17 132/232/17 126/233/17
f 179/196/18 181/184/18 123/234/18 130/235/18
f 129/219/2 134/218/2 133/236/2 127/213/2
f 157/224/16 154/192/16 139/237/16 144/238/16
f 152/226/15 149/208/15 145/239/15 144/238/15
f 150/240/4 151/241/4 142/242/4 140/243/4
f 160/244/27 161/215/27 143/245/27 141/246/27
f 151/241/6 148/220/6 143/245/6 142/242/6
f 158/247/26 160/244/26 141/246/26 136/248/26
f 174/249/12 162/225/12 145/239/12 172/250/12
f 186/251/11 120/252/11 137/253/11 183/254/11
f 185/255/9 124/227/9 139/237/9 184/256/9
f 169/257/25 153/258/25 137/259/25 166/260/25
f 128/216/6 129/219/6 148/220/6 151/241/6
f 126/222/4 128/216/4 151/241/4 150/240/4
f 130/228/15 131/209/15 149/208/15 152/226/15
f 144/238/16 139/237/16 124/227/16 152/226/16
f 141/246/14 143/245/14 148/220/14 147/212/14
f 136/248/50 141/246/50 147/212/50 121/261/50
f 172/250/12 145/239/12 149/208/12 173/207/12
f 166/260/51 137/259/51 120/189/51 168/188/51
f 71/120/21 22/121/21 153/258/21 169/257/21
f 86/122/12 39/82/12 162/225/12 174/249/12
f 20/123/20 27/124/20 160/244/20 158/247/20
f 27/124/19 34/69/19 161/215/19 160/244/19
f 40/81/16 24/38/16 154/192/16 157/224/16
f 144/238/15 145/239/15 162/225/15 157/224/15
f 140/243/4 142/242/4 156/214/4 155/221/4
f 142/242/6 143/245/6 161/215/6 156/214/6
f 183/254/11 137/253/11 153/206/11 187/205/11
f 184/256/9 139/237/9 154/192/9 188/191/9
f 23/125/12 72/128/12 170/262/12 159/263/12
f 80/129/30 71/120/30 169/257/30 178/264/30
f 176/265/52 166/260/52 168/188/52 177/266/52
f 138/267/12 165/268/12 167/269/12 146/270/12
f 178/264/28 169/257/28 166/260/28 176/265/28
f 159/263/12 170/262/12 165/268/12 138/267/12
f 146/270/12 167/269/12 164/271/12 125/272/12
f 186/273/53 125/274/53 164/275/53 189/276/53
f 177/266/54 168/188/54 163/190/54 175/277/54
f 150/240/55 177/266/55 175/277/55 126/222/55
f 155/221/36 178/264/36 176/265/36 140/243/36
f 140/243/56 176/265/56 177/266/56 150/240/56
f 28/77/34 80/129/34 178/264/34 155/221/34
f 72/128/37 86/122/37 174/249/37 170/262/37
f 165/268/37 172/250/37 173/207/37 167/269/37
f 170/262/37 174/249/37 172/250/37 165/268/37
f 167/269/37 173/207/37 171/210/37 164/271/37
f 189/276/3 164/275/3 171/198/3 190/197/3
f 163/278/57 189/276/57 190/197/57 175/279/57
f 120/280/58 186/273/58 189/276/58 163/278/58
f 136/281/45 184/256/45 188/191/45 158/282/45
f 138/267/41 183/254/41 187/205/41 159/263/41
f 125/272/41 186/283/41 146/270/41
f 121/284/59 185/255/59 184/256/59 136/281/59
f 146/270/41 186/251/41 183/254/41 138/267/41
f 127/195/18 133/285/18 181/184/18 179/196/18
f 131/199/17 135/286/17 180/231/17 182/200/17
f 159/263/41 187/205/41 90/53/41 23/125/41
f 175/279/60 190/197/60 182/200/60 126/233/60
f 124/287/61 185/193/61 179/196/61 130/235/61
f 158/282/40 188/191/40 91/37/40 20/154/40
f 123/234/3 181/184/3 180/187/3 135/288/3
