# Blender v3.1.2 OBJ File: 'Witch_Tree.blend'
# www.blender.org
mtllib Witch_Prop_Plank1obj.mtl
o Cube.007
v -0.392474 -3.237225 0.185503
v -0.392474 3.176996 0.185503
v 0.392474 -3.237225 -0.185503
v 0.094514 3.237225 0.185503
v 0.392474 0.779577 0.185503
v 0.392474 3.237225 0.044672
v 0.392474 -2.121317 0.185503
v 0.072497 -3.237225 0.185503
v 0.392474 -3.237225 0.075553
v -0.145275 3.237225 -0.185503
v -0.392474 -0.175972 -0.185503
v -0.392474 3.176996 0.006187
v 0.392474 3.237225 -0.080424
v 0.392474 1.403488 -0.185503
v 0.170156 3.237225 -0.185503
v -0.392474 -2.897615 -0.185503
v 0.037588 -3.237225 -0.185503
v -0.392474 -3.237225 0.013735
vt 0.375000 0.500000
vt 0.554193 0.500000
vt 0.625000 0.570807
vt 0.625000 0.655102
vt 0.530102 0.750000
vt 0.418089 0.750000
vt 0.375000 0.706911
vt 0.375000 0.793089
vt 0.625000 0.844898
vt 0.625000 1.000000
vt 0.375000 1.000000
vt 0.375000 0.355904
vt 0.535545 0.250000
vt 0.554193 0.250000
vt 0.625000 0.320807
vt 0.625000 0.429193
vt 0.719898 0.750000
vt 0.125000 0.605904
vt 0.230904 0.500000
vt 0.331911 0.750000
vt 0.125000 0.750000
vt 0.804193 0.500000
vt 0.625000 0.179193
vt 0.695807 0.500000
vt 0.875000 0.570807
vt 0.875000 0.750000
vt 0.375000 0.000000
vt 0.625000 0.000000
vt 0.375000 0.144096
vn 1.0000 -0.0000 0.0000
vn 0.0000 0.0000 1.0000
vn 0.0000 0.0000 -1.0000
vn 0.4268 0.0517 0.9029
vn 0.0000 -1.0000 0.0000
vn 0.3236 -0.0928 0.9416
vn -0.6190 0.0448 -0.7841
vn 0.4268 0.0517 -0.9029
vn -0.0704 0.9971 0.0307
vn -0.3711 -0.4699 -0.8009
vn -1.0000 0.0000 0.0000
usemtl None
s off
f 3/1/1 14/2/1 13/3/1 6/4/1 5/5/1 7/6/1 9/7/1
f 8/8/2 7/6/2 5/5/2 4/9/2 2/10/2 1/11/2
f 17/12/3 16/13/3 11/14/3 10/15/3 15/16/3 14/2/3 3/1/3
f 4/17/4 5/5/4 6/4/4
f 18/18/5 17/19/5 3/1/5 9/7/5 8/20/5 1/21/5
f 7/6/6 8/8/6 9/7/6
f 10/22/7 11/14/7 12/23/7
f 13/3/8 14/2/8 15/16/8
f 13/3/9 15/24/9 10/22/9 12/25/9 2/26/9 4/17/9 6/4/9
f 16/13/10 17/12/10 18/18/10
f 1/27/11 2/28/11 12/23/11 11/14/11 16/13/11 18/29/11
