# Blender v3.1.2 OBJ File: 'Witch_Tree.blend'
# www.blender.org
mtllib Witch_Chair1.mtl
o Cube.004
v -1.000000 1.759014 1.000000
v -1.036995 2.094226 1.110986
v -1.166479 1.759014 -1.055493
v -1.055493 2.094226 -1.000000
v 1.000000 1.759014 1.000000
v 1.055493 2.094226 1.092488
v 1.129483 1.759014 -1.073991
v 1.018498 2.094226 -1.000000
v -0.987573 1.759014 -1.056934
v -0.893883 2.094226 -1.000000
v -0.844156 1.759014 1.000000
v -0.873944 2.094226 1.109545
v 0.816486 2.094226 -1.000000
v 0.805195 1.759014 1.000000
v 0.905851 1.759014 -1.072189
v 0.851679 2.094226 1.094290
v -1.145125 1.759014 -0.791835
v -1.053120 2.094226 -0.729224
v 1.112875 1.759014 -0.807960
v 1.023243 2.094226 -0.731597
v -1.025523 2.094226 -0.923294
v -0.969177 1.759014 -0.793091
v 0.955218 2.094226 -0.925251
v 0.892940 1.759014 -0.806389
v -1.012175 1.759014 0.849674
v 1.052787 2.094226 0.939456
v -0.875402 2.094226 0.955265
v -0.854645 1.759014 0.849568
v 0.849105 2.094226 0.941126
v 0.812556 1.759014 0.848453
v -1.038348 2.094226 0.956601
v 1.009470 1.759014 0.848321
v -0.600292 1.759014 -1.060054
v -0.520985 2.094226 1.106424
v -0.544045 2.094226 -1.000000
v -0.506798 1.759014 1.000000
v -0.588300 1.759014 -0.795811
v -0.620382 2.094226 -0.923695
v -0.513636 1.759014 0.849340
v -0.522672 2.094226 0.952373
v 0.456222 2.094226 -1.000000
v 0.457784 1.759014 1.000000
v 0.538005 2.094226 -0.924839
v 0.485864 2.094226 0.944104
v 0.507030 1.759014 -1.068976
v 0.488203 2.094226 1.097503
v 0.500713 1.759014 -0.803588
v 0.461385 1.759014 0.848688
v -1.049705 2.094226 -0.339482
v 1.088969 1.759014 -0.425048
v -1.114388 1.759014 -0.412338
v 1.030073 2.094226 -0.345270
v -1.021264 2.094226 -0.533818
v -0.942698 1.759014 -0.413328
v 0.962734 2.094226 -0.538591
v 0.874356 1.759014 -0.423810
v -0.615458 2.094226 -0.534795
v -0.571038 1.759014 -0.415472
v 0.544835 2.094226 -0.537586
v 0.491621 1.759014 -0.421602
v -1.039773 1.759014 0.508930
v 1.046654 2.094226 0.592580
v -0.878708 2.094226 0.605562
v -0.878419 1.759014 0.508586
v 0.843271 2.094226 0.593952
v 0.829242 1.759014 0.504942
v -0.526494 2.094226 0.603187
v -0.529134 1.759014 0.507841
v 0.480562 2.094226 0.596397
v 0.469549 1.759014 0.505709
v -1.041414 2.094226 0.606659
v 1.030934 1.759014 0.504511
v -0.790480 0.010615 -1.159457
v -1.200056 0.010615 -1.156532
v -1.128409 0.010615 0.791999
v -1.095013 0.010615 1.270983
v 1.063092 0.010615 0.784360
v 1.039434 0.010615 1.271394
v -0.615991 0.010615 1.270662
v -0.637762 0.010615 0.790952
v 1.130712 0.010615 -1.213982
v 0.630077 0.010615 -1.210407
v 0.541540 0.010615 1.271727
v 0.553115 0.010615 0.785448
v -1.171582 0.010615 -0.748154
v 1.106992 0.010615 -0.725661
v -0.771918 0.010615 -0.750460
v 0.618472 0.010615 -0.722843
v 0.537364 4.262243 -1.077944
v 0.923282 4.035322 -1.078357
v -1.024416 3.895485 -1.076400
v -0.619729 4.207508 -1.076800
v -0.943089 3.895687 -0.686924
v 0.869131 3.850700 -0.691697
v -0.614809 4.122085 -0.687900
v 0.544187 4.209064 -0.690691
vt 0.375000 0.217933
vt 0.625000 0.217933
vt 0.625000 0.250000
vt 0.375000 0.250000
vt 0.375000 0.475649
vt 0.625000 0.475649
vt 0.625000 0.500000
vt 0.375000 0.500000
vt 0.375000 0.731716
vt 0.625000 0.731717
vt 0.625000 0.750000
vt 0.375000 0.750000
vt 0.375000 0.980519
vt 0.625000 0.980520
vt 0.625000 1.000000
vt 0.375000 1.000000
vt 0.350649 0.731717
vt 0.350649 0.750000
vt 0.855519 0.731716
vt 0.875000 0.731716
vt 0.875000 0.750000
vt 0.855519 0.750000
vt 0.813350 0.731717
vt 0.813350 0.750000
vt 0.125000 0.731717
vt 0.144481 0.731717
vt 0.144481 0.750000
vt 0.125000 0.750000
vt 0.375000 0.938350
vt 0.625000 0.938350
vt 0.625000 0.269481
vt 0.375000 0.269480
vt 0.625000 0.774351
vt 0.375000 0.774351
vt 0.649351 0.731717
vt 0.649351 0.750000
vt 0.307223 0.731717
vt 0.307223 0.750000
vt 0.375000 0.432223
vt 0.625000 0.432223
vt 0.307223 0.500000
vt 0.350649 0.500000
vt 0.350649 0.532068
vt 0.307223 0.532068
vt 0.649351 0.500000
vt 0.649351 0.532068
vt 0.625000 0.532067
vt 0.125000 0.500000
vt 0.144481 0.500000
vt 0.144481 0.532068
vt 0.125000 0.532067
vt 0.813350 0.500000
vt 0.855519 0.500000
vt 0.855520 0.532068
vt 0.813350 0.532068
vt 0.875000 0.500000
vt 0.875000 0.532067
vt 0.375000 0.532068
vt 0.375000 0.171776
vt 0.625000 0.171776
vt 0.375000 0.000000
vt 0.625000 0.000000
vt 0.625000 0.018284
vt 0.375000 0.018283
vt 0.350649 0.578224
vt 0.350649 0.578224
vt 0.350649 0.532068
vt 0.625000 0.690274
vt 0.649351 0.690274
vt 0.125000 0.690273
vt 0.144481 0.690274
vt 0.813350 0.690274
vt 0.855519 0.690273
vt 0.875000 0.690273
vt 0.350649 0.690274
vt 0.375000 0.690274
vt 0.692777 0.690274
vt 0.692777 0.731717
vt 0.144481 0.690274
vt 0.144481 0.731717
vt 0.692777 0.500000
vt 0.692777 0.532068
vt 0.186650 0.500000
vt 0.186650 0.532068
vt 0.625000 0.311650
vt 0.375000 0.311650
vt 0.186650 0.731716
vt 0.186650 0.750000
vt 0.375000 0.817777
vt 0.625000 0.817777
vt 0.692777 0.750000
vt 0.186650 0.690273
vt 0.307223 0.690274
vt 0.307223 0.578224
vt 0.186650 0.578224
vt 0.813350 0.578224
vt 0.692777 0.578224
vt 0.692777 0.578224
vt 0.813350 0.578224
vt 0.186650 0.731716
vt 0.186650 0.690273
vt 0.855520 0.532068
vt 0.813350 0.532068
vt 0.625000 0.578224
vt 0.375000 0.578224
vt 0.875000 0.578224
vt 0.855520 0.578224
vt 0.649351 0.578224
vt 0.649351 0.532068
vt 0.649351 0.578224
vt 0.144481 0.578224
vt 0.125000 0.578224
vt 0.144481 0.578224
vt 0.186650 0.578224
vt 0.375000 0.059726
vt 0.625000 0.059726
vt 0.307223 0.690274
vt 0.350649 0.690274
vt 0.350649 0.731717
vt 0.307223 0.731717
vt 0.144481 0.532068
vt 0.186650 0.532068
vt 0.307223 0.532068
vt 0.307223 0.578224
vt 0.692777 0.532068
vt 0.855520 0.578224
vn -0.9583 0.2827 0.0425
vn -0.0041 0.2119 -0.9773
vn 0.9882 -0.1517 0.0219
vn 0.0043 -0.3121 0.9500
vn 0.0000 -1.0000 0.0000
vn 0.0000 1.0000 0.0000
vn 0.0043 -0.3064 0.9519
vn -0.0042 0.1666 -0.9860
vn 0.0044 -0.2690 0.9631
vn -0.0041 0.2052 -0.9787
vn 0.9591 0.2822 0.0213
vn -0.9747 0.2191 0.0433
vn -0.9932 -0.1079 0.0441
vn 0.9912 0.1236 0.0481
vn 0.9954 -0.0936 0.0221
vn -0.9860 0.1521 0.0687
vn -0.0042 0.1728 -0.9849
vn 0.0043 -0.2911 0.9567
vn 0.0043 -0.2755 0.9613
vn -0.0042 0.1890 -0.9820
vn -0.0004 0.0737 0.9973
vn 0.9966 -0.0692 -0.0452
vn 0.0291 -0.0780 -0.9965
vn 0.9772 0.2114 0.0217
vn 0.9968 0.0396 0.0696
vn 0.0057 -0.1888 0.9820
vn -0.9956 0.0824 0.0442
vn -0.9975 -0.0549 0.0443
vn 0.9980 0.0587 0.0222
vn 0.0057 -0.1694 0.9855
vn 0.9890 0.1400 0.0480
vn 0.9934 -0.1055 -0.0451
vn -0.0021 -0.1597 -0.9872
vn -0.0021 -0.1581 -0.9874
vn -0.0070 0.2044 -0.9789
vn -0.9984 -0.0515 -0.0238
vn -0.9974 -0.0683 -0.0237
vn -0.0070 0.2261 -0.9741
vn -0.9908 0.1165 0.0691
vn 0.0007 0.2342 0.9722
vn 0.0007 0.2352 0.9719
vn 0.6130 0.7439 0.2661
vn -0.0598 0.9825 0.1764
vn -0.5849 0.7967 0.1520
vn -0.9935 0.0311 0.1092
vn 0.0412 0.0798 0.9960
vn -0.0221 -0.0745 -0.9970
vn -0.0221 0.0801 0.9965
vn 0.0007 -0.0713 -0.9975
usemtl None
s off
f 17/1/1 18/2/1 4/3/1 3/4/1
f 15/5/2 13/6/2 8/7/2 7/8/2
f 32/9/3 26/10/3 6/11/3 5/12/3
f 11/13/4 12/14/4 2/15/4 1/16/4
f 30/17/5 32/9/5 5/12/5 14/18/5
f 27/19/6 31/20/6 2/21/6 12/22/6
f 40/23/6 27/19/6 12/22/6 34/24/6
f 25/25/5 28/26/5 11/27/5 1/28/5
f 36/29/7 34/30/7 12/14/7 11/13/7
f 3/4/8 4/3/8 10/31/8 9/32/8
f 5/12/9 6/11/9 16/33/9 14/34/9
f 26/10/6 29/35/6 16/36/6 6/11/6
f 48/37/5 30/17/5 14/18/5 42/38/5
f 45/39/10 41/40/10 13/6/10 15/5/10
f 45/41/5 15/42/5 24/43/5 47/44/5
f 8/7/6 13/45/6 23/46/6 20/47/6
f 3/48/5 9/49/5 22/50/5 17/51/5
f 35/52/6 10/53/6 21/54/6 38/55/6
f 10/53/6 4/56/6 18/57/6 21/54/6
f 15/42/5 7/8/5 19/58/5 24/43/5
f 7/8/11 8/7/11 20/47/11 19/58/11
f 51/59/12 49/60/12 18/2/12 17/1/12
f 1/61/13 2/62/13 31/63/13 25/64/13
f 24/43/14 56/65/14 86/66/14 81/67/14
f 62/68/6 65/69/6 29/35/6 26/10/6
f 61/70/5 64/71/5 28/26/5 25/25/5
f 67/72/6 63/73/6 27/19/6 40/23/6
f 63/73/6 71/74/6 31/20/6 27/19/6
f 66/75/5 72/76/5 32/9/5 30/17/5
f 72/76/15 62/68/15 26/10/15 32/9/15
f 69/77/6 67/72/6 40/23/6 44/78/6
f 28/26/16 64/71/16 75/79/16 76/80/16
f 41/81/6 35/52/6 38/55/6 43/82/6
f 9/49/5 33/83/5 37/84/5 22/50/5
f 9/32/17 10/31/17 35/85/17 33/86/17
f 28/26/5 39/87/5 36/88/5 11/27/5
f 42/89/18 46/90/18 34/30/18 36/29/18
f 44/78/6 40/23/6 34/24/6 46/91/6
f 29/35/6 44/78/6 46/91/6 16/36/6
f 14/34/19 16/33/19 46/90/19 42/89/19
f 13/45/6 41/81/6 43/82/6 23/46/6
f 65/69/6 69/77/6 44/78/6 29/35/6
f 68/92/5 70/93/5 48/37/5 39/87/5
f 33/83/5 45/41/5 47/44/5 37/84/5
f 33/86/20 35/85/20 41/40/20 45/39/20
f 39/87/5 48/37/5 42/38/5 36/88/5
f 37/84/5 47/44/5 60/94/5 58/95/5
f 57/96/21 59/97/21 96/98/21 95/99/21
f 68/92/22 39/87/22 79/100/22 80/101/22
f 38/55/23 21/54/23 91/102/23 92/103/23
f 19/58/24 20/47/24 52/104/24 50/105/24
f 24/43/5 19/58/5 50/105/5 56/65/5
f 21/54/6 18/57/6 49/106/6 53/107/6
f 55/108/25 23/46/25 90/109/25 94/110/25
f 17/51/5 22/50/5 54/111/5 51/112/5
f 20/47/6 23/46/6 55/108/6 52/104/6
f 58/95/26 54/111/26 85/113/26 87/114/26
f 61/115/27 71/116/27 49/60/27 51/59/27
f 25/64/28 31/63/28 71/116/28 61/115/28
f 58/95/5 60/94/5 70/93/5 68/92/5
f 55/108/6 59/97/6 69/77/6 65/69/6
f 54/111/5 58/95/5 68/92/5 64/71/5
f 59/97/6 57/96/6 67/72/6 69/77/6
f 50/105/29 52/104/29 62/68/29 72/76/29
f 56/65/5 50/105/5 72/76/5 66/75/5
f 53/107/6 49/106/6 71/74/6 63/73/6
f 57/96/6 53/107/6 63/73/6 67/72/6
f 51/112/5 54/111/5 64/71/5 61/70/5
f 52/104/6 55/108/6 65/69/6 62/68/6
f 60/94/5 56/65/5 66/75/5 70/93/5
f 84/117/5 77/118/5 78/119/5 83/120/5
f 75/79/5 80/101/5 79/100/5 76/80/5
f 74/121/5 73/122/5 87/114/5 85/113/5
f 82/123/5 81/67/5 86/66/5 88/124/5
f 56/65/30 60/94/30 88/124/30 86/66/30
f 66/75/31 30/17/31 78/119/31 77/118/31
f 37/84/32 58/95/32 87/114/32 73/122/32
f 64/71/33 68/92/33 80/101/33 75/79/33
f 70/93/34 66/75/34 77/118/34 84/117/34
f 22/50/35 37/84/35 73/122/35 74/121/35
f 48/37/36 70/93/36 84/117/36 83/120/36
f 60/94/37 47/44/37 82/123/37 88/124/37
f 47/44/38 24/43/38 81/67/38 82/123/38
f 54/111/39 22/50/39 74/121/39 85/113/39
f 39/87/40 28/26/40 76/80/40 79/100/40
f 30/17/41 48/37/41 83/120/41 78/119/41
f 90/109/42 89/125/42 96/98/42 94/110/42
f 89/125/43 92/103/43 95/99/43 96/98/43
f 92/103/44 91/102/44 93/126/44 95/99/44
f 21/54/45 53/107/45 93/126/45 91/102/45
f 59/97/46 55/108/46 94/110/46 96/98/46
f 23/46/47 43/82/47 89/125/47 90/109/47
f 53/107/48 57/96/48 95/99/48 93/126/48
f 43/82/49 38/55/49 92/103/49 89/125/49
