# Blender v3.1.2 OBJ File: 'Witch_Tree.blend'
# www.blender.org
mtllib Witch_Axe2.mtl
o Cube.012_Cube.010
v -0.134724 3.596012 0.089696
v -0.134724 3.596012 -0.089696
v 0.134724 3.572640 -0.089696
v 0.134724 3.572640 0.089696
v -0.135230 2.830073 -0.089696
v 0.135230 2.830073 -0.089696
v 0.135230 2.830073 0.089696
v -0.135230 2.830073 0.089696
v -0.232478 2.830073 0.089696
v -0.232478 3.605663 0.089696
v 1.041245 3.710627 -0.001290
v -0.232478 3.605663 -0.089696
v -0.232478 2.830073 -0.089696
v 1.044840 2.490148 -0.001290
v 0.485548 3.602761 0.067708
v 0.484758 3.602761 -0.070367
v 0.488758 2.767003 0.067019
v 0.480894 2.767003 -0.070394
v -0.134977 3.213042 0.089696
v -0.134977 3.213042 -0.089696
v 0.134977 3.201357 -0.089696
v 0.134977 3.201357 0.089696
v -0.232478 3.217868 0.089696
v -0.232478 3.217868 -0.089696
v 1.165290 3.165107 -0.001290
v 0.487153 3.184882 0.067363
v 0.401501 3.181290 -0.058573
vt 0.612262 0.503771
vt 0.612262 0.746228
vt 0.612262 0.661886
vt 0.612262 0.503771
vt 0.589347 0.246228
vt 0.566432 0.246229
vt 0.566432 0.246229
vt 0.589347 0.246229
vt 0.589347 0.003772
vt 0.612262 0.003772
vt 0.612262 0.246228
vt 0.566432 0.003772
vt 0.566432 0.003772
vt 0.589347 0.503772
vt 0.589347 0.503772
vt 0.612262 0.003772
vt 0.612262 0.246228
vt 0.589347 0.003772
vt 0.566432 0.746229
vt 0.566432 0.503772
vt 0.566432 0.587868
vt 0.566432 0.746229
vt 0.589347 0.746228
vt 0.589347 0.746228
vt 0.566432 0.503772
vt 0.589347 0.503772
vt 0.566432 0.503772
vt 0.612262 0.503771
vt 0.566432 0.746229
vt 0.589347 0.746228
vt 0.612262 0.746228
vt 0.612262 0.746228
vn -0.0856 0.9963 0.0002
vn 0.0000 0.0000 -1.0000
vn -1.0000 0.0000 0.0000
vn 0.0000 -1.0000 0.0000
vn 0.0819 -0.0234 -0.9964
vn 0.0983 0.9952 0.0000
vn 0.0000 0.0000 1.0000
vn -0.1775 -0.9841 0.0044
vn 0.0636 -0.0003 0.9980
vn 0.0963 0.0072 -0.9953
vn -0.1904 0.9817 0.0011
vn 0.1074 -0.0120 0.9941
vn -0.4430 -0.8961 0.0254
vn 0.0958 -0.0081 -0.9954
vn 0.1099 0.0140 0.9938
vn 0.0629 -0.0003 0.9980
vn 0.0853 0.0236 -0.9961
usemtl None
s off
f 3/1/1 4/2/1 15/3/1 16/4/1
f 20/5/2 5/6/2 13/7/2 24/8/2
f 23/9/3 10/10/3 12/11/3 24/8/3
f 5/6/4 8/12/4 9/13/4 13/7/4
f 21/14/5 3/1/5 16/4/5 27/15/5
f 1/16/6 2/17/6 12/11/6 10/10/6
f 19/18/7 1/16/7 10/10/7 23/9/7
f 7/19/8 6/20/8 18/21/8 17/22/8
f 22/23/9 7/19/9 17/22/9 26/24/9
f 18/25/10 27/15/10 25/26/10 14/27/10
f 16/4/11 15/3/11 11/28/11
f 26/24/12 17/22/12 14/29/12 25/30/12
f 17/22/13 18/21/13 14/29/13
f 27/15/14 16/4/14 11/28/14 25/26/14
f 15/31/15 26/24/15 25/30/15 11/32/15
f 4/2/16 22/23/16 26/24/16 15/31/16
f 8/12/7 19/18/7 23/9/7 9/13/7
f 6/20/17 21/14/17 27/15/17 18/25/17
f 9/13/3 23/9/3 24/8/3 13/7/3
f 2/17/2 20/5/2 24/8/2 12/11/2
