# Blender v3.1.2 OBJ File: 'Witch_Tree.blend'
# www.blender.org
mtllib Witch_FireTorch.mtl
o Cylinder.015
v 0.000000 1.687861 -0.350000
v 0.386474 5.983361 -0.350000
v 0.303109 1.687861 -0.175000
v 0.689583 5.983361 -0.175000
v 0.303109 1.687861 0.175000
v 0.689583 5.983361 0.175000
v -0.000000 1.687861 0.350000
v 0.386474 5.983361 0.350000
v -0.303109 1.687861 0.175000
v 0.083365 5.983361 0.175000
v -0.303109 1.687861 -0.175000
v 0.083365 5.983361 -0.175000
v -1.366884 -0.241873 0.065112
v 0.247778 2.658326 -0.036376
v -1.124520 -0.241873 0.240112
v 0.494898 2.416458 0.142058
v -1.124520 -0.241873 0.590112
v 0.494898 2.416458 0.498927
v -1.366884 -0.241873 0.765112
v 0.247778 2.658326 0.677361
v -1.609248 -0.241873 0.590112
v 0.000658 2.900194 0.498926
v -1.609248 -0.241873 0.240112
v 0.000658 2.900194 0.142058
v 0.781673 -0.241873 1.181016
v -0.121118 2.658326 -0.180361
v 0.821880 -0.241873 0.884792
v -0.076330 2.394089 -0.510332
v 1.130620 -0.241873 0.719929
v 0.267582 2.394089 -0.693977
v 1.399152 -0.241873 0.851289
v 0.566706 2.658326 -0.547651
v 1.358945 -0.241873 1.147514
v 0.521919 2.922563 -0.217680
v 1.050205 -0.241873 1.312377
v 0.178007 2.922563 -0.034035
v 0.618290 -0.241873 -1.090946
v -0.158594 2.658326 0.258100
v 0.335318 -0.241873 -0.994551
v -0.423281 2.436441 0.348266
v 0.049871 -0.241873 -1.197086
v -0.690283 2.436441 0.158818
v 0.047397 -0.241873 -1.496016
v -0.692597 2.658326 -0.120796
v 0.330370 -0.241873 -1.592411
v -0.427909 2.880211 -0.210962
v 0.615816 -0.241873 -1.389876
v -0.160908 2.880211 -0.021514
v -0.005912 2.202656 0.053987
v 0.188928 2.049227 0.194673
v 0.188928 2.049227 0.476044
v -0.005912 2.202656 0.616730
v -0.200753 2.356086 0.476044
v -0.200753 2.356086 0.194673
v 0.147579 2.069021 0.050739
v 0.180333 1.923979 -0.190576
v 0.431844 1.923979 -0.324880
v 0.650600 2.069021 -0.217869
v 0.617846 2.214062 0.023446
v 0.366336 2.214062 0.157750
v -0.089083 2.245295 0.036793
v -0.315602 2.089189 0.113957
v -0.544101 2.089189 -0.048172
v -0.546081 2.245295 -0.287465
v -0.319563 2.401400 -0.364629
v -0.091064 2.401400 -0.202500
v 0.336512 5.428058 -0.350000
v 0.639621 5.428058 -0.175000
v 0.639621 5.428058 0.175000
v 0.336512 5.428058 0.350000
v 0.033404 5.428058 0.175000
v 0.033404 5.428058 -0.175000
v 0.669360 6.983784 -0.274334
v 0.482793 6.983784 -0.382049
v 0.492802 6.428480 -0.620701
v 0.482793 6.983784 0.382049
v 0.669360 6.983784 0.274335
v 0.008212 7.025884 -0.107715
v 0.008212 7.025884 0.107715
v 0.795911 6.428480 -0.445701
v 0.795911 6.428480 0.445701
v 0.492802 6.428480 0.620701
v -0.278232 6.470580 0.175000
v -0.278232 6.470580 -0.175000
vt 0.333333 0.935362
vt 0.333333 1.000000
vt 0.333333 1.000000
vt 0.333333 0.935362
vt 0.833333 0.935362
vt 0.833333 1.000000
vt 0.666667 1.000000
vt 0.666667 0.935362
vt 0.166667 0.935362
vt 0.166667 0.935362
vt 0.500000 0.935362
vt 0.500000 1.000000
vt 0.457846 0.370000
vt 0.250000 0.490000
vt 0.042154 0.370000
vt 0.042154 0.130000
vt 0.250000 0.010000
vt 0.457846 0.130000
vt 0.500000 0.935362
vt 0.500000 1.000000
vt 0.166667 1.000000
vt -0.000000 1.000000
vt -0.000000 0.935362
vt 0.750000 0.490000
vt 0.957846 0.370000
vt 0.957846 0.130000
vt 0.750000 0.010000
vt 0.542154 0.130000
vt 0.542154 0.370000
vt 1.000000 0.921442
vt 1.000000 1.000000
vt 0.833333 1.000000
vt 0.833333 0.921442
vt 0.666667 1.000000
vt 0.666667 0.921442
vt 0.500000 1.000000
vt 0.500000 0.921442
vt 0.333333 1.000000
vt 0.333333 0.921442
vt 0.457846 0.370000
vt 0.250000 0.490000
vt 0.042154 0.370000
vt 0.042154 0.130000
vt 0.250000 0.010000
vt 0.457846 0.130000
vt 0.166667 1.000000
vt 0.166667 0.921442
vt -0.000000 1.000000
vt -0.000000 0.921442
vt 0.750000 0.490000
vt 0.957846 0.370000
vt 0.957846 0.130000
vt 0.750000 0.010000
vt 0.542154 0.130000
vt 0.542154 0.370000
vt 1.000000 0.898403
vt 1.000000 1.000000
vt 0.833333 1.000000
vt 0.833333 0.898403
vt 0.666667 1.000000
vt 0.666667 0.898403
vt 0.500000 1.000000
vt 0.500000 0.898403
vt 0.333333 1.000000
vt 0.333333 0.898403
vt 0.457846 0.370000
vt 0.250000 0.490000
vt 0.042154 0.370000
vt 0.042154 0.130000
vt 0.250000 0.010000
vt 0.457846 0.130000
vt 0.166667 1.000000
vt 0.166667 0.898403
vt -0.000000 1.000000
vt -0.000000 0.898403
vt 0.750000 0.490000
vt 0.957846 0.370000
vt 0.957846 0.130000
vt 0.750000 0.010000
vt 0.542154 0.130000
vt 0.542154 0.370000
vt 1.000000 0.928793
vt 1.000000 1.000000
vt 0.833333 1.000000
vt 0.833333 0.928792
vt 0.666667 1.000000
vt 0.666667 0.928793
vt 0.500000 1.000000
vt 0.500000 0.928792
vt 0.333333 1.000000
vt 0.333333 0.928793
vt 0.457846 0.370000
vt 0.250000 0.490000
vt 0.042154 0.370000
vt 0.042154 0.130000
vt 0.250000 0.010000
vt 0.457846 0.130000
vt 0.166667 1.000000
vt 0.166667 0.928793
vt -0.000000 1.000000
vt -0.000000 0.928793
vt 0.750000 0.490000
vt 0.957846 0.370000
vt 0.957846 0.130000
vt 0.750000 0.010000
vt 0.542154 0.130000
vt 0.542154 0.370000
vt 0.166667 0.500000
vt -0.000000 0.500000
vt 0.333333 0.500000
vt 0.500000 0.500000
vt 0.666667 0.500000
vt 0.833333 0.500000
vt 1.000000 0.500000
vt 0.166667 0.500000
vt -0.000000 0.500000
vt 0.333333 0.500000
vt 0.500000 0.500000
vt 0.666667 0.500000
vt 0.833333 0.500000
vt 1.000000 0.500000
vt 0.166667 0.500000
vt -0.000000 0.500000
vt 0.333333 0.500000
vt 0.500000 0.500000
vt 0.666667 0.500000
vt 0.833333 0.500000
vt 1.000000 0.500000
vt 0.166667 0.500000
vt -0.000000 0.500000
vt 0.333333 0.500000
vt 0.500000 0.500000
vt 0.666667 0.500000
vt 0.833333 0.500000
vt 1.000000 0.500000
vt 1.000000 0.935362
vt 1.000000 0.935362
vt 1.000000 1.000000
vt 0.833333 1.000000
vt 0.833333 0.935362
vt 0.666667 0.935362
vt 0.666667 1.000000
vt 0.166667 1.000000
vt 0.042154 0.370000
vt 0.042154 0.130000
vt 0.457846 0.370000
vt 0.250000 0.490000
vt 0.250000 0.010000
vt 0.457846 0.130000
vt -0.000000 1.000000
vt -0.000000 0.935362
vn 0.0578 0.0429 0.9974
vn 0.9960 -0.0896 0.0000
vn -0.9581 -0.2864 0.0000
vn -0.4995 0.0449 0.8652
vn 0.0000 1.0000 -0.0000
vn -0.9673 0.0860 0.2385
vn -0.4995 0.0449 -0.8652
vn 0.0000 -1.0000 -0.0000
vn 0.3096 -0.3632 -0.8787
vn 0.7683 -0.6401 0.0000
vn 0.3456 -0.3244 0.8805
vn -0.4872 0.1499 0.8604
vn 0.6995 0.7147 0.0000
vn -0.9378 0.3471 -0.0000
vn -0.5138 0.1122 -0.8506
vn -0.9144 -0.3774 0.1463
vn -0.3576 -0.6508 -0.6697
vn 0.6124 -0.3303 -0.7182
vn 0.9885 0.1490 0.0274
vn -0.3295 0.7147 -0.6170
vn 0.4426 0.3420 0.8289
vn -0.5017 0.1032 0.8589
vn 0.5282 -0.3425 0.7770
vn -0.4674 -0.5895 0.6588
vn -0.9440 -0.2704 -0.1892
vn -0.4433 0.1881 -0.8764
vn -0.4048 0.7147 0.5705
vn 0.5386 0.3655 -0.7591
vn 0.9898 0.1192 0.0786
vn -0.5012 0.2660 -0.8234
vn -0.8791 0.4766 0.0000
vn -0.4835 0.3082 0.8193
vn 0.5105 -0.2426 0.8249
vn 0.8675 -0.4974 0.0000
vn 0.4922 -0.2878 -0.8215
vn -0.4862 0.2648 0.8328
vn 0.4134 0.4791 0.7743
vn 0.9477 0.3161 0.0433
vn 0.4834 -0.2411 -0.8415
vn -0.4079 -0.5001 -0.7639
vn -0.9538 -0.2962 -0.0495
vn 0.9690 0.2394 0.0614
vn 0.5132 0.4621 -0.7233
vn -0.3912 0.3157 -0.8645
vn -0.9753 -0.2140 -0.0540
vn -0.5072 -0.4815 0.7148
vn 0.3880 -0.2958 0.8729
vn -0.9960 0.0896 0.0000
vn 0.4995 -0.0449 0.8652
vn 0.4995 -0.0449 -0.8652
vn 0.4672 0.3562 -0.8092
vn 0.4672 0.3562 0.8092
vn -0.8887 0.4584 0.0000
vn 0.4772 -0.2982 -0.8266
vn 0.9273 0.0062 0.3744
vn 0.9974 0.0719 0.0000
vn 0.0578 0.0429 -0.9974
vn -0.4986 0.0757 0.8635
vn 0.9273 0.0062 -0.3744
vn -0.4986 0.0757 -0.8635
vn 0.4772 -0.2982 0.8266
vn -0.9673 0.0860 -0.2385
usemtl None
s off
f 71/1/1 10/2/1 79/3/1 83/4/1
f 68/5/2 4/6/2 6/7/2 69/8/2
f 72/9/3 71/1/3 83/4/3 84/10/3
f 70/11/4 8/12/4 10/2/4 71/1/4
f 4/13/5 2/14/5 12/15/5 10/16/5 8/17/5 6/18/5
f 8/12/6 70/11/6 82/19/6 76/20/6
f 72/9/7 12/21/7 2/22/7 67/23/7
f 1/24/8 3/25/8 5/26/8 7/27/8 9/28/8 11/29/8
f 49/30/9 14/31/9 16/32/9 50/33/9
f 50/33/10 16/32/10 18/34/10 51/35/10
f 51/35/11 18/34/11 20/36/11 52/37/11
f 52/37/12 20/36/12 22/38/12 53/39/12
f 16/40/13 14/41/13 24/42/13 22/43/13 20/44/13 18/45/13
f 53/39/14 22/38/14 24/46/14 54/47/14
f 54/47/15 24/46/15 14/48/15 49/49/15
f 13/50/8 15/51/8 17/52/8 19/53/8 21/54/8 23/55/8
f 55/56/16 26/57/16 28/58/16 56/59/16
f 56/59/17 28/58/17 30/60/17 57/61/17
f 57/61/18 30/60/18 32/62/18 58/63/18
f 58/63/19 32/62/19 34/64/19 59/65/19
f 28/66/20 26/67/20 36/68/20 34/69/20 32/70/20 30/71/20
f 59/65/21 34/64/21 36/72/21 60/73/21
f 60/73/22 36/72/22 26/74/22 55/75/22
f 25/76/8 27/77/8 29/78/8 31/79/8 33/80/8 35/81/8
f 61/82/23 38/83/23 40/84/23 62/85/23
f 62/85/24 40/84/24 42/86/24 63/87/24
f 63/87/25 42/86/25 44/88/25 64/89/25
f 64/89/26 44/88/26 46/90/26 65/91/26
f 40/92/27 38/93/27 48/94/27 46/95/27 44/96/27 42/97/27
f 65/91/28 46/90/28 48/98/28 66/99/28
f 66/99/29 48/98/29 38/100/29 61/101/29
f 37/102/8 39/103/8 41/104/8 43/105/8 45/106/8 47/107/8
f 23/108/30 54/47/30 49/49/30 13/109/30
f 21/110/31 53/39/31 54/47/31 23/108/31
f 19/111/32 52/37/32 53/39/32 21/110/32
f 17/112/33 51/35/33 52/37/33 19/111/33
f 15/113/34 50/33/34 51/35/34 17/112/34
f 13/114/35 49/30/35 50/33/35 15/113/35
f 35/115/36 60/73/36 55/75/36 25/116/36
f 33/117/37 59/65/37 60/73/37 35/115/37
f 31/118/38 58/63/38 59/65/38 33/117/38
f 29/119/39 57/61/39 58/63/39 31/118/39
f 27/120/40 56/59/40 57/61/40 29/119/40
f 25/121/41 55/56/41 56/59/41 27/120/41
f 47/122/42 66/99/42 61/101/42 37/123/42
f 45/124/43 65/91/43 66/99/43 47/122/43
f 43/125/44 64/89/44 65/91/44 45/124/44
f 41/126/45 63/87/45 64/89/45 43/125/45
f 39/127/46 62/85/46 63/87/46 41/126/46
f 37/128/47 61/82/47 62/85/47 39/127/47
f 11/129/7 72/9/7 67/23/7 1/130/7
f 9/131/48 71/1/48 72/9/48 11/129/48
f 7/132/4 70/11/4 71/1/4 9/131/4
f 5/133/49 69/8/49 70/11/49 7/132/49
f 3/134/2 68/5/2 69/8/2 5/133/2
f 1/135/50 67/136/50 68/5/50 3/134/50
f 75/137/51 74/138/51 73/139/51 80/140/51
f 81/141/52 77/142/52 76/20/52 82/19/52
f 83/4/53 79/3/53 78/143/53 84/10/53
f 68/5/54 67/136/54 75/137/54 80/140/54
f 4/6/55 68/5/55 80/140/55 73/139/55
f 10/16/56 12/15/56 78/144/56 79/145/56
f 12/21/57 72/9/57 84/10/57 78/143/57
f 2/14/58 4/13/58 73/146/58 74/147/58
f 69/8/59 6/7/59 77/142/59 81/141/59
f 6/18/60 8/17/60 76/148/60 77/149/60
f 70/11/61 69/8/61 81/141/61 82/19/61
f 67/23/62 2/22/62 74/150/62 75/151/62
