# Blender v3.1.2 OBJ File: 'Witch_Tree.blend'
# www.blender.org
mtllib Witch_Book2.mtl
o Cube.011_Cube.012
v 1.341124 -0.193456 1.861875
v 1.341124 0.193456 1.861875
v -1.448611 -0.193456 1.795227
v 1.341124 -0.193456 -1.861875
v 1.341124 0.193456 -1.861875
v -1.448611 0.193456 -1.795227
v -1.448611 0.193456 1.795227
v -1.448611 -0.193456 -1.795227
vt 0.570082 0.500000
vt 0.570082 0.750000
vt 0.429918 0.750000
vt 0.429918 0.500000
vt 0.570082 0.262734
vt 0.429918 0.262734
vt 0.570082 0.987266
vt 0.429918 0.987266
vn 1.0000 0.0000 0.0000
vn -0.0239 0.0000 -0.9997
vn -0.0239 0.0000 0.9997
usemtl None
s off
f 5/1/1 2/2/1 1/3/1 4/4/1
f 6/5/2 5/1/2 4/4/2 8/6/2
f 2/2/3 7/7/3 3/8/3 1/3/3
