# Blender v3.1.2 OBJ File: 'Witch_Tree.blend'
# www.blender.org
mtllib Witch_Chair2.mtl
o Cube.004
v -4.011328 1.759014 1.000000
v -4.250549 2.094226 1.110986
v -4.177807 1.759014 -1.055493
v -4.269047 2.094226 -1.181485
v 3.929217 1.759014 1.000000
v 4.140268 2.094226 1.092488
v 4.058700 1.759014 -1.073991
v 4.103273 2.094226 -1.181485
v -3.998901 1.759014 -1.056934
v -4.107437 2.094226 -1.181485
v -3.855484 1.759014 1.000000
v -4.087498 2.094226 1.109545
v 3.901261 2.094226 -1.181485
v 3.734411 1.759014 1.000000
v 3.835068 1.759014 -1.072189
v 3.936454 2.094226 1.094290
v -4.156453 1.759014 -0.791835
v -4.266675 2.094226 -0.729224
v 4.042091 1.759014 -0.807960
v 4.108018 2.094226 -0.731597
v -4.239077 2.094226 -1.104780
v -3.980505 1.759014 -0.793091
v 4.039993 2.094226 -1.106736
v 3.822156 1.759014 -0.806389
v -4.023503 1.759014 0.849674
v 4.137563 2.094226 0.939456
v -4.088957 2.094226 0.955265
v -3.865973 1.759014 0.849568
v 3.933881 2.094226 0.941126
v 3.741773 1.759014 0.848453
v -4.251902 2.094226 0.956601
v 3.938686 1.759014 0.848321
v -3.611620 1.759014 -1.060054
v -3.532313 2.094226 1.106424
v -3.555372 2.094226 -1.181485
v -3.518126 1.759014 1.000000
v -3.599628 1.759014 -0.795811
v -3.631710 2.094226 -1.105180
v -3.524963 1.759014 0.849340
v -3.534000 2.094226 0.952373
v 3.385439 2.094226 -1.181485
v 3.387001 1.759014 1.000000
v 3.467221 2.094226 -1.106324
v 3.415080 2.094226 0.944104
v 3.436246 1.759014 -1.068976
v 3.417419 2.094226 1.097503
v 3.429930 1.759014 -0.803588
v 3.390602 1.759014 0.848688
v -4.263259 2.094226 -0.339482
v 4.018185 1.759014 -0.425048
v -4.125716 1.759014 -0.412338
v 4.114849 2.094226 -0.345270
v -4.234818 2.094226 -0.533818
v -3.954026 1.759014 -0.413328
v 4.047509 2.094226 -0.538591
v 3.803573 1.759014 -0.423810
v -3.626786 2.094226 -0.534795
v -3.582366 1.759014 -0.415472
v 3.474051 2.094226 -0.537586
v 3.420838 1.759014 -0.421602
v -4.051101 1.759014 0.508930
v 4.131430 2.094226 0.592580
v -4.092262 2.094226 0.605562
v -3.889747 1.759014 0.508586
v 3.928046 2.094226 0.593952
v 3.758459 1.759014 0.504942
v -3.537822 2.094226 0.603187
v -3.540462 1.759014 0.507841
v 3.409779 2.094226 0.596397
v 3.398766 1.759014 0.505709
v -4.254969 2.094226 0.606659
v 3.960151 1.759014 0.504511
v -3.801808 0.010615 -1.159457
v -4.211384 0.010615 -1.156532
v -4.139737 0.010615 0.791999
v -4.106340 0.010615 1.270983
v 3.992308 0.010615 0.784360
v 3.968651 0.010615 1.271394
v -3.627319 0.010615 1.270662
v -3.649091 0.010615 0.790952
v 4.059928 0.010615 -1.213982
v 3.559294 0.010615 -1.210407
v 3.470757 0.010615 1.271727
v 3.482332 0.010615 0.785448
v -4.182910 0.010615 -0.748154
v 4.036208 0.010615 -0.725661
v -3.783246 0.010615 -0.750460
v 3.547688 0.010615 -0.722843
vt 0.375000 0.217933
vt 0.625000 0.217933
vt 0.625000 0.250000
vt 0.375000 0.250000
vt 0.375000 0.475649
vt 0.625000 0.475649
vt 0.625000 0.500000
vt 0.375000 0.500000
vt 0.375000 0.731716
vt 0.625000 0.731717
vt 0.625000 0.750000
vt 0.375000 0.750000
vt 0.375000 0.980519
vt 0.625000 0.980520
vt 0.625000 1.000000
vt 0.375000 1.000000
vt 0.350649 0.731717
vt 0.350649 0.750000
vt 0.855519 0.731716
vt 0.875000 0.731716
vt 0.875000 0.750000
vt 0.855519 0.750000
vt 0.813350 0.731717
vt 0.813350 0.750000
vt 0.125000 0.731717
vt 0.144481 0.731717
vt 0.144481 0.750000
vt 0.125000 0.750000
vt 0.375000 0.938350
vt 0.625000 0.938350
vt 0.625000 0.269481
vt 0.375000 0.269480
vt 0.625000 0.774351
vt 0.375000 0.774351
vt 0.649351 0.731717
vt 0.649351 0.750000
vt 0.307223 0.731717
vt 0.307223 0.750000
vt 0.375000 0.432223
vt 0.625000 0.432223
vt 0.307223 0.500000
vt 0.350649 0.500000
vt 0.350649 0.532068
vt 0.307223 0.532068
vt 0.649351 0.500000
vt 0.649351 0.532068
vt 0.625000 0.532067
vt 0.125000 0.500000
vt 0.144481 0.500000
vt 0.144481 0.532068
vt 0.125000 0.532067
vt 0.813350 0.500000
vt 0.855519 0.500000
vt 0.855520 0.532068
vt 0.813350 0.532068
vt 0.875000 0.500000
vt 0.875000 0.532067
vt 0.375000 0.532068
vt 0.375000 0.171776
vt 0.625000 0.171776
vt 0.375000 0.000000
vt 0.625000 0.000000
vt 0.625000 0.018284
vt 0.375000 0.018283
vt 0.350649 0.578224
vt 0.350649 0.578224
vt 0.350649 0.532068
vt 0.625000 0.690274
vt 0.649351 0.690274
vt 0.125000 0.690273
vt 0.144481 0.690274
vt 0.813350 0.690274
vt 0.855519 0.690273
vt 0.875000 0.690273
vt 0.350649 0.690274
vt 0.375000 0.690274
vt 0.692777 0.690274
vt 0.692777 0.731717
vt 0.144481 0.690274
vt 0.144481 0.731717
vt 0.692777 0.500000
vt 0.692777 0.532068
vt 0.186650 0.500000
vt 0.186650 0.532068
vt 0.625000 0.311650
vt 0.375000 0.311650
vt 0.186650 0.731716
vt 0.186650 0.750000
vt 0.375000 0.817777
vt 0.625000 0.817777
vt 0.692777 0.750000
vt 0.186650 0.690273
vt 0.307223 0.690274
vt 0.307223 0.578224
vt 0.186650 0.578224
vt 0.855520 0.578224
vt 0.813350 0.578224
vt 0.186650 0.731716
vt 0.186650 0.690273
vt 0.625000 0.578224
vt 0.375000 0.578224
vt 0.875000 0.578224
vt 0.144481 0.578224
vt 0.125000 0.578224
vt 0.649351 0.578224
vt 0.144481 0.578224
vt 0.186650 0.578224
vt 0.375000 0.059726
vt 0.625000 0.059726
vt 0.692777 0.578224
vt 0.307223 0.690274
vt 0.350649 0.690274
vt 0.350649 0.731717
vt 0.307223 0.731717
vt 0.144481 0.532068
vt 0.186650 0.532068
vt 0.307223 0.532068
vt 0.307223 0.578224
vn -0.9580 -0.2849 0.0318
vn -0.0040 -0.3071 -0.9517
vn 0.8507 -0.5253 0.0189
vn 0.0043 -0.3097 0.9508
vn 0.0000 -1.0000 -0.0000
vn 0.0000 1.0000 0.0000
vn 0.0033 -0.3055 0.9522
vn -0.0040 -0.3511 -0.9363
vn 0.0044 -0.2709 0.9626
vn -0.0033 -0.3140 -0.9494
vn 0.9867 -0.1619 0.0164
vn -0.9344 -0.3537 0.0415
vn -0.8141 -0.5796 0.0361
vn 0.9912 0.1236 0.0481
vn 0.8731 -0.4872 0.0194
vn -0.9860 0.1521 0.0687
vn -0.0031 -0.3447 -0.9387
vn 0.0006 -0.2910 0.9567
vn 0.0036 -0.2762 0.9611
vn -0.0006 -0.3295 -0.9442
vn 0.9966 -0.0692 -0.0452
vn 0.9704 -0.2404 0.0215
vn 0.0057 -0.1888 0.9820
vn -0.8863 -0.4614 0.0394
vn -0.8347 -0.5495 0.0371
vn 0.9266 -0.3755 0.0206
vn 0.0057 -0.1694 0.9855
vn 0.9890 0.1400 0.0480
vn 0.9934 -0.1055 -0.0451
vn -0.0021 -0.1597 -0.9872
vn -0.0021 -0.1581 -0.9874
vn -0.0070 0.2044 -0.9789
vn -0.9984 -0.0515 -0.0238
vn -0.9974 -0.0683 -0.0237
vn -0.0070 0.2261 -0.9741
vn -0.9908 0.1165 0.0691
vn 0.0007 0.2342 0.9722
vn 0.0007 0.2352 0.9719
usemtl None
s off
f 17/1/1 18/2/1 4/3/1 3/4/1
f 15/5/2 13/6/2 8/7/2 7/8/2
f 32/9/3 26/10/3 6/11/3 5/12/3
f 11/13/4 12/14/4 2/15/4 1/16/4
f 30/17/5 32/9/5 5/12/5 14/18/5
f 27/19/6 31/20/6 2/21/6 12/22/6
f 40/23/6 27/19/6 12/22/6 34/24/6
f 25/25/5 28/26/5 11/27/5 1/28/5
f 36/29/7 34/30/7 12/14/7 11/13/7
f 3/4/8 4/3/8 10/31/8 9/32/8
f 5/12/9 6/11/9 16/33/9 14/34/9
f 26/10/6 29/35/6 16/36/6 6/11/6
f 48/37/5 30/17/5 14/18/5 42/38/5
f 45/39/10 41/40/10 13/6/10 15/5/10
f 45/41/5 15/42/5 24/43/5 47/44/5
f 8/7/6 13/45/6 23/46/6 20/47/6
f 3/48/5 9/49/5 22/50/5 17/51/5
f 35/52/6 10/53/6 21/54/6 38/55/6
f 10/53/6 4/56/6 18/57/6 21/54/6
f 15/42/5 7/8/5 19/58/5 24/43/5
f 7/8/11 8/7/11 20/47/11 19/58/11
f 51/59/12 49/60/12 18/2/12 17/1/12
f 1/61/13 2/62/13 31/63/13 25/64/13
f 24/43/14 56/65/14 86/66/14 81/67/14
f 62/68/6 65/69/6 29/35/6 26/10/6
f 61/70/5 64/71/5 28/26/5 25/25/5
f 67/72/6 63/73/6 27/19/6 40/23/6
f 63/73/6 71/74/6 31/20/6 27/19/6
f 66/75/5 72/76/5 32/9/5 30/17/5
f 72/76/15 62/68/15 26/10/15 32/9/15
f 69/77/6 67/72/6 40/23/6 44/78/6
f 28/26/16 64/71/16 75/79/16 76/80/16
f 41/81/6 35/52/6 38/55/6 43/82/6
f 9/49/5 33/83/5 37/84/5 22/50/5
f 9/32/17 10/31/17 35/85/17 33/86/17
f 28/26/5 39/87/5 36/88/5 11/27/5
f 42/89/18 46/90/18 34/30/18 36/29/18
f 44/78/6 40/23/6 34/24/6 46/91/6
f 29/35/6 44/78/6 46/91/6 16/36/6
f 14/34/19 16/33/19 46/90/19 42/89/19
f 13/45/6 41/81/6 43/82/6 23/46/6
f 65/69/6 69/77/6 44/78/6 29/35/6
f 68/92/5 70/93/5 48/37/5 39/87/5
f 33/83/5 45/41/5 47/44/5 37/84/5
f 33/86/20 35/85/20 41/40/20 45/39/20
f 39/87/5 48/37/5 42/38/5 36/88/5
f 37/84/5 47/44/5 60/94/5 58/95/5
f 38/55/6 21/54/6 53/96/6 57/97/6
f 68/92/21 39/87/21 79/98/21 80/99/21
f 19/58/22 20/47/22 52/100/22 50/101/22
f 24/43/5 19/58/5 50/101/5 56/65/5
f 21/54/6 18/57/6 49/102/6 53/96/6
f 17/51/5 22/50/5 54/103/5 51/104/5
f 20/47/6 23/46/6 55/105/6 52/100/6
f 58/95/23 54/103/23 85/106/23 87/107/23
f 61/108/24 71/109/24 49/60/24 51/59/24
f 25/64/25 31/63/25 71/109/25 61/108/25
f 58/95/5 60/94/5 70/93/5 68/92/5
f 55/105/6 59/110/6 69/77/6 65/69/6
f 54/103/5 58/95/5 68/92/5 64/71/5
f 59/110/6 57/97/6 67/72/6 69/77/6
f 50/101/26 52/100/26 62/68/26 72/76/26
f 56/65/5 50/101/5 72/76/5 66/75/5
f 53/96/6 49/102/6 71/74/6 63/73/6
f 57/97/6 53/96/6 63/73/6 67/72/6
f 51/104/5 54/103/5 64/71/5 61/70/5
f 52/100/6 55/105/6 65/69/6 62/68/6
f 60/94/5 56/65/5 66/75/5 70/93/5
f 84/111/5 77/112/5 78/113/5 83/114/5
f 75/79/5 80/99/5 79/98/5 76/80/5
f 74/115/5 73/116/5 87/107/5 85/106/5
f 82/117/5 81/67/5 86/66/5 88/118/5
f 56/65/27 60/94/27 88/118/27 86/66/27
f 66/75/28 30/17/28 78/113/28 77/112/28
f 37/84/29 58/95/29 87/107/29 73/116/29
f 64/71/30 68/92/30 80/99/30 75/79/30
f 70/93/31 66/75/31 77/112/31 84/111/31
f 22/50/32 37/84/32 73/116/32 74/115/32
f 48/37/33 70/93/33 84/111/33 83/114/33
f 60/94/34 47/44/34 82/117/34 88/118/34
f 47/44/35 24/43/35 81/67/35 82/117/35
f 54/103/36 22/50/36 74/115/36 85/106/36
f 39/87/37 28/26/37 76/80/37 79/98/37
f 30/17/38 48/37/38 83/114/38 78/113/38
f 23/46/6 43/82/6 59/110/6 55/105/6
f 43/82/6 38/55/6 57/97/6 59/110/6
