# Blender v3.1.2 OBJ File: 'Witch_Tree.blend'
# www.blender.org
mtllib Witch_Crate.mtl
o Cube.016
v -1.852262 -0.029976 1.852262
v -1.852262 3.674549 1.852262
v -1.852262 -0.029976 -1.852262
v -1.852262 3.674549 -1.852262
v 1.852262 -0.029976 1.852262
v 1.852262 3.674549 1.852262
v 1.852262 -0.029976 -1.852262
v 1.852262 3.674549 -1.852262
v -1.852262 0.342739 1.479547
v -1.852262 3.301833 1.479547
v -1.852262 3.301833 -1.479547
v -1.852262 0.342739 -1.479547
v -1.479547 0.342739 -1.852262
v -1.479547 3.301833 -1.852262
v 1.479547 3.301833 -1.852262
v 1.479547 0.342739 -1.852262
v 1.852262 0.342739 -1.479547
v 1.852262 3.301833 -1.479547
v 1.852262 3.301833 1.479547
v 1.852262 0.342739 1.479547
v 1.479547 0.342739 1.852262
v 1.479547 3.301833 1.852262
v -1.479547 3.301833 1.852262
v -1.479547 0.342739 1.852262
v -1.479547 -0.029976 -1.479547
v 1.479547 -0.029976 -1.479547
v 1.479547 -0.029976 1.479547
v -1.479547 -0.029976 1.479547
v 1.479547 3.674549 -1.479547
v -1.479547 3.674549 -1.479547
v -1.479547 3.674549 1.479547
v 1.479547 3.674549 1.479547
v 1.479547 0.263359 -1.479547
v -1.479547 0.263359 -1.479547
v -1.479547 0.263359 1.479547
v 1.479547 0.263359 1.479547
v -1.479547 3.381214 -1.479547
v 1.479547 3.381214 -1.479547
v 1.479547 3.381214 1.479547
v -1.479547 3.381214 1.479547
v -0.158143 0.263359 -0.158143
v 0.158143 0.263359 -0.158143
v 0.158143 0.263359 0.158143
v -0.158143 0.263359 0.158143
v -1.520658 3.381214 1.520658
v 1.520658 3.381214 1.520658
v 1.520658 3.381214 -1.520658
v -1.520658 3.381214 -1.520658
v -1.558928 0.586790 1.479547
v -1.558928 0.342739 1.235496
v -1.731498 0.342739 1.479547
v -1.558928 3.301833 1.235496
v -1.558928 3.057782 1.479547
v -1.731498 3.301833 1.479547
v -1.558928 0.342739 -1.235496
v -1.558928 0.586790 -1.479547
v -1.731498 0.342739 -1.479547
v -1.558928 3.057782 -1.479547
v -1.558928 3.301833 -1.235496
v -1.731498 3.301833 -1.479547
v -1.235496 3.301833 -1.558928
v -1.479547 3.057782 -1.558928
v -1.479547 3.301833 -1.731498
v -1.479547 0.586790 -1.558928
v -1.235496 0.342739 -1.558928
v -1.479547 0.342739 -1.731498
v 1.235496 0.342739 -1.558928
v 1.479547 0.586790 -1.558928
v 1.479547 0.342739 -1.731498
v 1.479547 3.057782 -1.558928
v 1.235496 3.301833 -1.558928
v 1.479547 3.301833 -1.731498
v 1.558928 3.301833 -1.235496
v 1.558928 3.057782 -1.479547
v 1.731498 3.301833 -1.479547
v 1.558928 0.586790 -1.479547
v 1.558928 0.342739 -1.235496
v 1.731498 0.342739 -1.479547
v 1.558928 0.342739 1.235496
v 1.558928 0.586790 1.479547
v 1.731498 0.342739 1.479547
v 1.558928 3.057782 1.479547
v 1.558928 3.301833 1.235496
v 1.731498 3.301833 1.479547
v 1.235496 3.301833 1.558928
v 1.479547 3.057782 1.558928
v 1.479547 3.301833 1.774512
v 1.479547 0.586790 1.558928
v 1.235496 0.342739 1.558928
v 1.479547 0.342739 1.774512
v -1.280550 0.288742 1.558928
v -1.479547 0.586790 1.558928
v -1.479547 0.342739 1.774512
v -1.479547 3.057782 1.558928
v -1.235496 3.301833 1.558928
v -1.479547 3.301833 1.774512
v -1.558928 2.066337 0.000000
v -1.558928 1.822286 -0.244051
v -1.558928 1.578236 -0.000000
v -1.558928 1.822286 0.244051
v 0.000000 1.578236 -1.558928
v -0.244051 1.822286 -1.558928
v -0.000000 2.066337 -1.558928
v 0.244051 1.822286 -1.558928
v 1.558928 1.578236 0.000000
v 1.558928 1.822286 -0.244051
v 1.558928 2.066337 -0.000000
v 1.558928 1.822286 0.244051
v -0.000000 1.578236 1.558928
v 0.244051 1.822286 1.558928
v 0.000000 2.066337 1.558928
v -0.244051 1.822286 1.558928
v -1.765799 0.354109 1.468177
v -1.783320 0.557673 1.524451
v -1.783320 0.297835 1.264614
v -1.765799 3.290463 1.468177
v -1.783320 3.346737 1.264614
v -1.783320 3.086900 1.524451
v -1.765799 0.354109 -1.468177
v -1.783320 0.297835 -1.264614
v -1.783320 0.557673 -1.524451
v -1.765799 3.290463 -1.468177
v -1.783320 3.086900 -1.524451
v -1.783320 3.346737 -1.264614
v -1.472984 3.295270 -1.808647
v -1.187781 3.254118 -1.783320
v -1.431832 3.010067 -1.783320
v -1.472984 0.349302 -1.808647
v -1.431832 0.634505 -1.783320
v -1.187781 0.390455 -1.783320
v 1.472984 0.349302 -1.808647
v 1.187781 0.390455 -1.783320
v 1.431832 0.634505 -1.783320
v 1.472984 3.295270 -1.808647
v 1.431832 3.010067 -1.783320
v 1.187781 3.254118 -1.783320
v 1.765799 3.290463 -1.468177
v 1.783320 3.346737 -1.264614
v 1.783320 3.086900 -1.524451
v 1.765799 0.354109 -1.468177
v 1.783320 0.557673 -1.524451
v 1.783320 0.297835 -1.264614
v 1.765799 0.354109 1.468177
v 1.783320 0.297835 1.264614
v 1.783320 0.557673 1.524451
v 1.765799 3.290463 1.468177
v 1.783320 3.086900 1.524451
v 1.783320 3.346737 1.264614
v 1.231524 3.306804 1.783320
v 1.484518 3.053810 1.783320
v 1.484518 0.591200 1.783320
v 1.231524 0.338206 1.783320
v -1.187781 0.390455 1.783320
v -1.484080 0.591200 1.783320
v -1.484080 3.053810 1.783320
v -1.231087 3.306804 1.783320
v -1.793247 1.822286 0.244051
v -1.793247 2.066337 0.000000
v -1.793247 1.822286 -0.244051
v -1.793247 1.578236 -0.000000
v 0.244051 1.822286 -1.793247
v 0.000000 1.578236 -1.793247
v -0.244051 1.822286 -1.793247
v -0.000000 2.066337 -1.793247
v 1.793247 1.822286 0.244051
v 1.793247 1.578236 0.000000
v 1.793247 1.822286 -0.244051
v 1.793247 2.066337 -0.000000
v -0.244051 1.822286 1.793247
v -0.000000 1.578236 1.793247
v 0.244051 1.822286 1.793247
v 0.000000 2.066337 1.793247
v -1.479547 1.670692 -1.479547
v 1.479547 1.670692 -1.479547
v 1.479547 1.670692 1.479547
v -1.479547 1.670692 1.479547
v -0.158143 1.670692 -0.158143
v 0.158143 1.670692 -0.158143
v 0.158143 1.670692 0.158143
v -0.158143 1.670692 0.158143
v -1.520658 1.670692 -1.520658
v -1.520658 1.670692 1.520658
v 1.520658 1.670692 1.520658
v 1.520658 1.670692 -1.520658
vt 0.583378 0.224847
vt 0.416623 0.224847
vt 0.508912 0.150382
vt 0.599847 0.791623
vt 0.599847 0.958378
vt 0.525382 0.866088
vt 0.583378 0.474847
vt 0.416623 0.474847
vt 0.508912 0.400382
vt 0.599847 0.541623
vt 0.599847 0.708378
vt 0.525382 0.616088
vt 0.400153 0.025153
vt 0.599847 0.025153
vt 0.599847 0.025153
vt 0.583378 0.025153
vt 0.416623 0.025153
vt 0.400153 0.025153
vt 0.599847 0.291622
vt 0.599847 0.458378
vt 0.525382 0.366088
vt 0.375000 0.000000
vt 0.625000 0.000000
vt 0.625000 0.250000
vt 0.599847 0.224847
vt 0.375000 0.250000
vt 0.400153 0.224847
vt 0.599847 0.275153
vt 0.400153 0.275153
vt 0.625000 0.500000
vt 0.599847 0.474847
vt 0.375000 0.500000
vt 0.400153 0.474847
vt 0.599847 0.525153
vt 0.400153 0.525153
vt 0.625000 0.750000
vt 0.599847 0.724847
vt 0.375000 0.750000
vt 0.400153 0.724847
vt 0.599847 0.775153
vt 0.400153 0.775153
vt 0.625000 1.000000
vt 0.599847 0.974847
vt 0.375000 1.000000
vt 0.400153 0.974847
vt 0.125000 0.500000
vt 0.349847 0.525153
vt 0.150153 0.525153
vt 0.349847 0.724847
vt 0.125000 0.750000
vt 0.150153 0.724847
vt 0.875000 0.500000
vt 0.849847 0.525153
vt 0.650153 0.525153
vt 0.875000 0.750000
vt 0.849847 0.724847
vt 0.650153 0.724847
vt 0.239328 0.614328
vt 0.260672 0.614328
vt 0.260672 0.635672
vt 0.239328 0.635672
vt 0.849847 0.724847
vt 0.650153 0.724847
vt 0.650153 0.724847
vt 0.849847 0.724847
vt 0.583378 0.724847
vt 0.416623 0.724847
vt 0.508912 0.650382
vt 0.349847 0.525153
vt 0.150153 0.525153
vt 0.400153 0.458378
vt 0.400153 0.291622
vt 0.474618 0.383912
vt 0.583378 0.974847
vt 0.416623 0.974847
vt 0.508912 0.900382
vt 0.849847 0.525153
vt 0.650153 0.525153
vt 0.416623 0.275153
vt 0.583378 0.275153
vt 0.491088 0.349618
vt 0.400153 0.708378
vt 0.400153 0.541623
vt 0.474618 0.633912
vt 0.150153 0.724847
vt 0.416623 0.525153
vt 0.583378 0.525153
vt 0.491088 0.599618
vt 0.400153 0.958378
vt 0.400153 0.791622
vt 0.474618 0.883912
vt 0.650153 0.724847
vt 0.416623 0.775153
vt 0.583378 0.775153
vt 0.491088 0.849618
vt 0.349847 0.724847
vt 0.849847 0.724847
vt 0.400153 0.208378
vt 0.400153 0.041622
vt 0.474618 0.133912
vt 0.400153 0.224847
vt 0.599847 0.224847
vt 0.599847 0.208378
vt 0.599847 0.041622
vt 0.525382 0.116088
vt 0.599847 0.275153
vt 0.400153 0.275153
vt 0.599847 0.474847
vt 0.400153 0.474847
vt 0.599847 0.525153
vt 0.400153 0.525153
vt 0.599847 0.724847
vt 0.400153 0.724847
vt 0.599847 0.775153
vt 0.400153 0.775153
vt 0.599847 0.974847
vt 0.400153 0.974847
vt 0.849847 0.525153
vt 0.650153 0.525153
vt 0.650153 0.724847
vt 0.650153 0.525153
vt 0.849847 0.724847
vt 0.650153 0.525153
vt 0.599847 0.708378
vt 0.525382 0.616088
vt 0.400153 0.208378
vt 0.400153 0.224847
vt 0.400153 0.724847
vt 0.416623 0.724847
vt 0.508912 0.650382
vt 0.583378 0.724847
vt 0.599847 0.025153
vt 0.583378 0.025153
vt 0.491088 0.849618
vt 0.416623 0.775153
vt 0.400153 0.708378
vt 0.400153 0.791622
vt 0.474618 0.883912
vt 0.599847 0.041622
vt 0.400153 0.525153
vt 0.400153 0.541622
vt 0.400153 0.025153
vt 0.400153 0.041622
vt 0.474618 0.633912
vt 0.416623 0.525153
vt 0.491088 0.349618
vt 0.416623 0.275153
vt 0.416623 0.025153
vt 0.599847 0.525153
vt 0.583378 0.525153
vt 0.400153 0.291622
vt 0.474618 0.383912
vt 0.583378 0.275153
vt 0.599847 0.541623
vt 0.525382 0.366088
vt 0.599847 0.291622
vt 0.599847 0.474847
vt 0.599847 0.458378
vt 0.508912 0.400382
vt 0.583378 0.474847
vt 0.599847 0.958378
vt 0.416623 0.474847
vt 0.400153 0.474847
vt 0.400153 0.458378
vt 0.583378 0.974847
vt 0.491088 0.099618
vt 0.491088 0.099618
vt 0.416623 0.974847
vt 0.474618 0.133912
vt 0.400153 0.275153
vt 0.400153 0.025153
vt 0.599847 0.025153
vt 0.400153 0.224847
vt 0.583378 0.224847
vt 0.599847 0.224847
vt 0.599847 0.224847
vt 0.599847 0.275153
vt 0.599847 0.275153
vt 0.400153 0.275153
vt 0.400153 0.474847
vt 0.592493 0.467493
vt 0.598087 0.539862
vt 0.400153 0.525153
vt 0.400153 0.724847
vt 0.592493 0.717493
vt 0.599847 0.724847
vt 0.598087 0.789862
vt 0.583378 0.775153
vt 0.400153 0.775153
vt 0.400153 0.958378
vt 0.400153 0.974847
vt 0.599847 0.974847
vt 0.504037 0.137433
vt 0.481973 0.143027
vt 0.481973 0.143027
vt 0.481973 0.126557
vt 0.481973 0.376557
vt 0.489328 0.385672
vt 0.481973 0.393027
vt 0.481973 0.626557
vt 0.489328 0.635672
vt 0.481973 0.643027
vt 0.481973 0.876557
vt 0.489328 0.885672
vt 0.481973 0.893027
vt 0.508912 0.150382
vt 0.518027 0.143027
vt 0.592493 0.217493
vt 0.407507 0.217493
vt 0.590732 0.032507
vt 0.498443 0.106973
vt 0.407507 0.034268
vt 0.407507 0.467493
vt 0.518027 0.393027
vt 0.590732 0.282507
vt 0.498443 0.356973
vt 0.407507 0.284268
vt 0.407507 0.717493
vt 0.407507 0.784268
vt 0.518027 0.643027
vt 0.590732 0.532507
vt 0.498443 0.606973
vt 0.491088 0.599618
vt 0.407507 0.534268
vt 0.590732 0.782507
vt 0.498443 0.856973
vt 0.508912 0.900382
vt 0.518027 0.893027
vt 0.592493 0.967493
vt 0.407507 0.967493
vt 0.416623 0.224847
vt 0.599847 0.791623
vt 0.599847 0.208378
vt 0.525382 0.866088
vt 0.525382 0.116088
vt 0.739328 0.614328
vt 0.760672 0.614328
vt 0.760672 0.635672
vt 0.739328 0.635672
vt 0.849847 0.525153
vt 0.849847 0.525153
vn -1.0000 0.0000 0.0000
vn 0.0000 0.0000 1.0000
vn -0.0000 0.0000 -1.0000
vn 1.0000 0.0000 0.0000
vn 0.0000 -1.0000 0.0000
vn 0.0000 1.0000 0.0000
vn -0.0071 0.9960 -0.0890
vn -0.0240 0.7046 -0.7092
vn 0.1382 -0.9756 -0.1705
vn -0.1382 -0.1705 0.9756
vn -0.0240 -0.7092 0.7046
vn 0.1382 0.1705 0.9756
vn 0.7057 0.7084 -0.0145
vn -0.1382 -0.9756 0.1705
vn -0.7083 -0.7058 -0.0131
vn 0.1382 0.9756 0.1705
vn -0.1382 -0.9756 -0.1705
vn -0.0240 0.7092 0.7046
vn 0.1382 -0.9756 0.1705
vn -0.0240 -0.7046 -0.7092
vn -0.1382 -0.1705 -0.9756
vn -0.7071 0.7071 0.0000
vn 0.1382 -0.1705 0.9756
vn -0.1382 0.1705 -0.9756
vn 0.7071 -0.7071 0.0000
vn -0.7071 -0.7071 -0.0000
vn -0.1382 0.9756 -0.1705
vn 0.7071 0.7071 -0.0000
vn -0.1331 0.9793 -0.1523
vn 0.9793 -0.1331 -0.1523
vn -0.0192 0.9996 -0.0218
vn 0.9793 0.1331 -0.1523
vn -0.9996 0.0176 -0.0199
vn 0.0240 0.7092 0.7046
vn -0.1331 -0.9793 -0.1523
vn -0.9996 -0.0175 -0.0199
vn 0.0240 -0.7046 -0.7092
vn 0.1331 -0.9793 -0.1523
vn 0.0240 -0.7092 0.7046
vn -0.9861 -0.1173 0.1173
vn -0.9861 0.1173 0.1173
vn -0.9861 -0.1173 -0.1173
vn -0.9861 0.1173 -0.1173
vn 0.0771 -0.0771 -0.9940
vn 0.0771 0.0771 -0.9940
vn -0.0771 0.0771 -0.9940
vn -0.0771 -0.0771 -0.9940
vn 0.9861 0.1173 -0.1173
vn 0.9861 -0.1173 -0.1173
vn 0.9861 -0.1173 0.1173
vn 0.9861 0.1173 0.1173
vn 0.0362 0.0362 0.9987
vn 0.0361 -0.0361 0.9987
vn -0.0243 -0.0359 0.9991
vn -0.0361 0.0361 0.9987
vn -1.0000 0.0039 -0.0039
vn -1.0000 -0.0039 -0.0039
vn -1.0000 0.0039 0.0039
vn -1.0000 -0.0039 0.0039
vn 0.0042 -0.0042 -1.0000
vn 0.0042 0.0042 -1.0000
vn -0.0042 0.0042 -1.0000
vn -0.0042 -0.0042 -1.0000
vn 1.0000 -0.0039 0.0039
vn 0.0040 -0.0040 1.0000
vn 1.0000 0.0039 0.0039
vn 1.0000 0.0039 -0.0039
vn 1.0000 -0.0039 -0.0039
vn 0.0040 0.0040 1.0000
vn -0.0040 0.0040 1.0000
vn -0.0037 -0.0045 1.0000
vn -0.1382 0.1705 0.9756
vn -0.0240 0.7046 0.7092
vn 0.1382 -0.1705 -0.9756
vn -0.0240 -0.7092 -0.7046
vn -0.1382 0.9756 0.1705
vn 0.1382 0.1705 -0.9756
vn -0.0240 -0.7046 0.7092
vn 0.0193 0.9996 -0.0218
vn -0.0240 0.7092 -0.7046
vn 0.1382 0.9756 -0.1705
vn -0.7083 0.7057 -0.0138
vn 0.0240 -0.7092 -0.7046
vn 0.9996 0.0193 -0.0218
vn 0.1331 0.9793 -0.1523
vn 0.7057 -0.7083 -0.0138
vn 0.0240 0.7046 0.7092
vn 0.9996 -0.0192 -0.0218
vn -0.7058 -0.7083 -0.0131
vn 0.0240 -0.7046 0.7092
vn -0.9793 -0.1331 -0.1523
vn 0.7084 0.7057 -0.0145
vn 0.0240 0.7092 -0.7046
vn 0.0176 -0.9996 -0.0199
vn -0.9793 0.1331 -0.1523
vn 0.7083 -0.7058 0.0133
vn 0.0240 0.7046 -0.7092
vn 0.1400 -0.9223 0.3602
vn -0.7057 0.7083 -0.0138
usemtl None
s off
f 58/1/1 56/2/1 98/3/1
f 85/4/2 95/5/2 111/6/2
f 70/7/3 68/8/3 104/9/3
f 73/10/4 83/11/4 107/12/4
f 9/13/3 10/14/3 54/15/3 53/16/3 49/17/3 51/18/3
f 61/19/3 71/20/3 103/21/3
f 1/22/1 2/23/1 10/14/1 9/13/1
f 2/23/1 4/24/1 11/25/1 10/14/1
f 4/24/1 3/26/1 12/27/1 11/25/1
f 3/26/1 1/22/1 9/13/1 12/27/1
f 3/26/3 4/24/3 14/28/3 13/29/3
f 4/24/3 8/30/3 15/31/3 14/28/3
f 8/30/3 7/32/3 16/33/3 15/31/3
f 7/32/3 3/26/3 13/29/3 16/33/3
f 7/32/4 8/30/4 18/34/4 17/35/4
f 8/30/4 6/36/4 19/37/4 18/34/4
f 6/36/4 5/38/4 20/39/4 19/37/4
f 5/38/4 7/32/4 17/35/4 20/39/4
f 5/38/2 6/36/2 22/40/2 21/41/2
f 6/36/2 2/42/2 23/43/2 22/40/2
f 2/42/2 1/44/2 24/45/2 23/43/2
f 1/44/2 5/38/2 21/41/2 24/45/2
f 3/46/5 7/32/5 26/47/5 25/48/5
f 7/32/5 5/38/5 27/49/5 26/47/5
f 5/38/5 1/50/5 28/51/5 27/49/5
f 1/50/5 3/46/5 25/48/5 28/51/5
f 8/30/6 4/52/6 30/53/6 29/54/6
f 4/52/6 2/55/6 31/56/6 30/53/6
f 2/55/6 6/36/6 32/57/6 31/56/6
f 6/36/6 8/30/6 29/54/6 32/57/6
f 41/58/5 42/59/5 43/60/5 44/61/5
f 45/62/3 46/63/3 183/64/3 182/65/3
f 82/66/4 80/67/4 108/68/4
f 25/48/2 26/47/2 33/69/2 34/70/2
f 67/71/3 65/72/3 101/73/3
f 94/74/2 92/75/2 112/76/2
f 29/54/2 30/53/2 37/77/2 38/78/2
f 64/79/3 62/80/3 102/81/3
f 79/82/4 77/83/4 105/84/4
f 28/51/4 25/48/4 34/70/4 35/85/4
f 76/86/4 74/87/4 106/88/4
f 91/89/2 89/90/2 109/91/2
f 32/57/1 29/54/1 38/78/1 39/92/1
f 88/93/2 86/94/2 110/95/2
f 26/47/1 27/49/1 36/96/1 33/69/1
f 30/53/4 31/56/4 40/97/4 37/77/4
f 27/49/3 28/51/3 35/85/3 36/96/3
f 31/56/3 32/57/3 39/92/3 40/97/3
f 55/98/1 50/99/1 99/100/1
f 12/27/6 9/13/6 51/18/6 50/99/6 55/98/6 57/101/6
f 10/14/5 11/25/5 60/102/5 59/103/5 52/104/5 54/15/5
f 11/25/2 12/27/2 57/101/2 56/2/2 58/1/2 60/102/2
f 52/104/1 59/103/1 97/105/1
f 13/29/4 14/28/4 63/106/4 62/80/4 64/79/4 66/107/4
f 14/28/5 15/31/5 72/108/5 71/20/5 61/19/5 63/106/5
f 15/31/1 16/33/1 69/109/1 68/8/1 70/7/1 72/108/1
f 16/33/6 13/29/6 66/107/6 65/72/6 67/71/6 69/109/6
f 17/35/2 18/34/2 75/110/2 74/87/2 76/86/2 78/111/2
f 18/34/5 19/37/5 84/112/5 83/11/5 73/10/5 75/110/5
f 19/37/3 20/39/3 81/113/3 80/67/3 82/66/3 84/112/3
f 20/39/6 17/35/6 78/111/6 77/83/6 79/82/6 81/113/6
f 21/41/1 22/40/1 87/114/1 86/94/1 88/93/1 90/115/1
f 22/40/5 23/43/5 96/116/5 95/5/5 85/4/5 87/114/5
f 23/43/4 24/45/4 93/117/4 92/75/4 94/74/4 96/116/4
f 24/45/7 21/41/7 90/115/7 89/90/7 91/89/7 93/117/7
f 34/70/5 33/69/5 42/59/5 41/58/5
f 33/69/5 36/96/5 43/60/5 42/59/5
f 36/96/5 35/85/5 44/61/5 43/60/5
f 35/85/5 34/70/5 41/58/5 44/61/5
f 37/77/5 40/97/5 45/62/5 48/118/5
f 174/119/6 175/120/6 183/64/6 184/121/6
f 175/120/6 176/122/6 182/65/6 183/64/6
f 39/92/5 38/78/5 47/123/5 46/63/5
f 107/12/8 83/11/8 148/124/8 168/125/8
f 57/101/9 55/98/9 120/126/9 119/127/9
f 80/67/10 81/113/10 143/128/10 145/129/10
f 82/66/11 108/68/11 165/130/11 147/131/11
f 53/16/12 54/15/12 116/132/12 118/133/12
f 88/93/13 110/95/13 171/134/13 151/135/13
f 81/113/14 79/82/14 144/136/14 143/128/14
f 109/91/15 89/90/15 152/137/15 170/138/15
f 54/15/16 52/104/16 117/139/16 116/132/16
f 77/83/17 78/111/17 140/140/17 142/141/17
f 108/68/18 80/67/18 145/129/18 165/130/18
f 50/99/19 51/18/19 113/142/19 115/143/19
f 79/82/20 105/84/20 166/144/20 144/136/20
f 78/111/21 76/86/21 141/145/21 140/140/21
f 64/79/22 102/81/22 163/146/22 129/147/22
f 51/18/23 49/17/23 114/148/23 113/142/23
f 74/87/24 75/110/24 137/149/24 139/150/24
f 101/73/25 65/72/25 130/151/25 162/152/25
f 102/81/26 62/80/26 127/153/26 163/146/26
f 75/110/27 73/10/27 138/154/27 137/149/27
f 61/19/28 103/21/28 164/155/28 126/156/28
f 71/20/29 72/108/29 134/157/29 136/158/29
f 103/21/22 71/20/22 136/158/22 164/155/22
f 70/7/25 104/9/25 161/159/25 135/160/25
f 72/108/30 70/7/30 135/160/30 134/157/30
f 95/5/31 96/116/31 156/161/31
f 104/9/28 68/8/28 133/162/28 161/159/28
f 68/8/32 69/109/32 131/163/32 133/162/32
f 67/71/26 101/73/26 162/152/26 132/164/26
f 96/116/33 94/74/33 155/165/33
f 49/17/34 100/166/34 157/167/34 114/148/34
f 69/109/35 67/71/35 132/164/35 131/163/35
f 92/75/36 93/117/36 154/168/36
f 99/100/37 50/99/37 115/143/37 160/169/37
f 65/72/38 66/107/38 128/170/38 130/151/38
f 100/166/39 53/16/39 118/133/39 157/167/39
f 49/17/1 53/16/1 100/166/1
f 114/171/40 115/143/40 113/142/40
f 117/172/41 118/133/41 116/132/41
f 120/126/42 121/173/42 119/127/42
f 123/174/43 124/175/43 122/176/43
f 126/177/44 127/153/44 125/178/44
f 129/179/45 130/151/45 128/170/45
f 132/164/46 133/180/46 131/163/46
f 135/160/47 136/181/47 134/157/47
f 138/182/48 139/150/48 137/149/48
f 141/183/49 142/141/49 140/140/49
f 144/136/50 145/184/50 143/128/50
f 147/131/51 148/185/51 146/186/51
f 149/187/52 150/188/52 87/114/52
f 151/189/53 152/137/53 90/115/53
f 153/190/54 154/191/54 93/117/54
f 155/165/55 156/192/55 96/116/55
f 158/193/1 159/194/1 160/195/1 157/196/1
f 162/152/3 163/197/3 164/198/3 161/199/3
f 166/144/4 167/200/4 168/201/4 165/202/4
f 170/138/2 171/203/2 172/204/2 169/205/2
f 123/174/56 159/206/56 158/207/56 124/208/56
f 120/126/57 160/169/57 159/194/57 121/209/57
f 117/210/58 158/211/58 157/167/58 118/133/58
f 160/169/59 115/143/59 114/212/59 157/196/59
f 132/164/60 162/152/60 161/199/60 133/213/60
f 135/160/61 161/159/61 164/214/61 136/181/61
f 126/215/62 164/216/62 163/146/62 127/153/62
f 162/152/63 130/151/63 129/217/63 163/197/63
f 144/136/64 166/144/64 165/202/64 145/218/64
f 170/138/65 152/137/65 151/219/65 171/203/65
f 147/131/66 165/130/66 168/220/66 148/185/66
f 138/221/67 168/222/67 167/223/67 139/150/67
f 166/144/68 142/141/68 141/224/68 167/200/68
f 149/225/69 172/226/69 171/134/69 150/188/69
f 155/165/70 169/227/70 172/228/70 156/229/70
f 153/190/71 170/138/71 169/205/71 154/230/71
f 84/112/72 82/66/72 147/131/72 146/186/72
f 73/10/73 107/12/73 168/125/73 138/154/73
f 56/2/74 57/101/74 119/127/74 121/231/74
f 106/88/75 74/87/75 139/150/75 167/223/75
f 83/11/76 84/112/76 146/186/76 148/124/76
f 60/102/77 58/1/77 123/174/77 122/176/77
f 105/84/78 77/83/78 142/141/78 166/144/78
f 87/114/79 85/4/79 149/232/79
f 76/86/80 106/88/80 167/223/80 141/145/80
f 59/103/81 60/102/81 122/176/81 124/233/81
f 85/4/82 111/6/82 172/234/82 149/232/82
f 58/1/83 98/3/83 159/206/83 123/174/83
f 86/94/84 87/114/84 150/188/84
f 63/106/85 61/19/85 126/156/85 125/178/85
f 110/95/86 86/94/86 150/188/86 171/134/86
f 97/105/87 59/103/87 124/233/87 158/235/87
f 90/115/88 88/93/88 151/135/88
f 94/74/89 112/76/89 169/227/89 155/165/89
f 55/98/90 99/100/90 160/169/90 120/126/90
f 62/80/91 63/106/91 125/178/91 127/153/91
f 111/6/92 95/5/92 156/161/92 172/234/92
f 98/3/93 56/2/93 121/231/93 159/206/93
f 89/90/94 90/115/94 152/137/94
f 66/107/95 64/79/95 129/147/95 128/170/95
f 91/89/96 109/91/96 170/138/96 153/190/96
f 52/104/97 97/105/97 158/235/97 117/139/97
f 93/117/98 91/89/98 153/190/98
f 112/76/99 92/75/99 154/168/99 169/227/99
f 178/236/6 177/237/6 180/238/6 179/239/6
f 174/119/6 173/240/6 177/237/6 178/236/6
f 173/240/6 176/122/6 180/238/6 177/237/6
f 176/122/6 175/120/6 179/239/6 180/238/6
f 175/120/6 174/119/6 178/236/6 179/239/6
f 47/123/2 48/118/2 181/241/2 184/121/2
f 48/118/4 45/62/4 182/65/4 181/241/4
f 46/63/1 47/123/1 184/121/1 183/64/1
f 38/78/5 37/77/5 48/118/5 47/123/5
f 176/122/6 173/240/6 181/241/6 182/65/6
f 173/240/6 174/119/6 184/121/6 181/241/6
f 40/97/5 39/92/5 46/63/5 45/62/5
