# Blender v3.1.2 OBJ File: 'Witch_Tree.blend'
# www.blender.org
mtllib Witch_Brick_Col2.mtl
o Cube.006
v -1.174833 -0.561956 1.174834
v -1.054243 1.612877 1.054243
v -1.070541 -0.457664 -1.070541
v -1.017867 1.612877 -1.017867
v 1.109373 -0.496496 1.109373
v 1.101819 1.612877 1.101819
v 1.140294 -0.527417 -1.140294
v 1.205308 1.612877 -1.205308
v -0.735161 3.327706 1.122012
v -1.158363 3.771240 -1.158363
v 1.057073 3.669950 -1.057073
v 0.542649 3.243686 1.000000
v 1.054304 2.620214 1.052384
v 1.000000 2.612877 -1.000000
v 1.141394 3.767706 0.037744
v -1.164709 3.792288 0.040668
v 1.260871 1.612877 0.000000
v 1.000000 -0.387123 0.000000
v -1.003938 1.612877 0.000000
v -1.252606 -0.639729 0.000000
v -0.194536 -0.303304 1.256502
v -0.197092 0.301078 1.259059
v -0.087054 -0.195823 0.460300
v -0.234918 0.338904 0.312437
v 1.275897 -0.379053 1.332252
v 1.159607 0.257980 1.215961
v 1.092667 -0.195823 0.460300
v 1.204339 0.302713 0.348627
v -0.806352 0.204903 1.263507
v -0.816829 0.831213 1.273983
v -0.777382 0.233874 0.374785
v -0.712441 0.726826 0.439725
v 0.628798 0.178444 1.289965
v 0.634802 0.853200 1.295970
v 0.487854 0.319388 0.460300
v 0.519393 0.737790 0.428761
v -0.414207 1.672271 1.207369
v -0.460677 2.222298 1.253839
v -0.427217 1.659261 0.388943
v -0.425623 2.187244 0.390536
v 0.964890 1.589589 1.290050
v 0.948937 2.242558 1.274098
v 0.909538 1.644941 0.374623
v 1.032140 2.325759 0.252021
v -1.305730 2.729589 1.314875
v -1.334458 3.476887 1.343603
v -1.305013 2.730306 0.295163
v -1.278164 3.420593 0.322012
v 0.039845 2.895442 1.149021
v 0.107901 3.350362 1.217078
v 0.039845 2.895442 0.460300
v 0.181141 3.423602 0.319003
v -0.429660 -0.195823 1.125715
v -0.429660 0.191041 1.125715
v -1.176785 -0.254226 1.184119
v -1.263317 0.335975 1.270650
v -0.282028 -0.343455 -0.201638
v -0.339951 0.280749 -0.143715
v -1.347187 -0.424628 -0.282811
v -1.118382 0.191041 -0.054006
v 0.913605 2.224191 1.214554
v 0.909137 2.784264 1.210086
v 0.053625 2.230610 1.208135
v 0.136045 2.699893 1.125715
v 0.940572 2.197225 -0.169811
v 0.839873 2.715000 -0.069112
v 0.136045 2.313030 -0.054006
v 0.136045 2.699893 -0.054006
v 1.197222 1.121325 1.168730
v 1.288754 1.598024 1.257574
v 0.430474 1.041783 1.249117
v 0.406077 1.612602 1.274253
v 1.338529 0.940117 -0.237139
v 1.269372 1.618896 -0.165889
v 0.328068 0.980011 -0.193761
v 0.380894 1.597656 -0.142487
v 1.127142 -0.224913 0.025822
v 1.132189 0.207257 0.030869
v 0.263930 -0.359144 0.160052
v 0.213383 0.386987 0.210599
v 1.241963 -0.339734 -1.308980
v 1.216825 0.291893 -1.283842
v 0.321022 -0.302052 -1.271298
v 0.370337 0.230034 -1.221983
v 1.107012 2.908882 0.767308
v 1.107012 3.295746 0.767308
v 0.356745 2.847337 0.828853
v 0.413488 3.300548 0.772110
v 1.122050 2.893844 -0.427451
v 1.154676 3.343409 -0.460077
v 0.406100 2.896691 -0.424604
v 0.418291 3.295746 -0.412413
v 1.236388 1.796324 -0.078954
v 1.332891 2.279692 -0.175457
v 1.260726 1.771987 0.634105
v 1.413539 2.360340 0.786919
v 0.028711 1.768369 -0.106910
v 0.056667 2.183188 -0.078954
v 0.042193 1.781850 0.624242
v -0.038823 2.278679 0.705258
v 1.316382 0.372302 -0.700293
v 1.246556 0.849328 -0.630467
v 1.267518 0.421166 0.099552
v 1.354567 0.957339 0.186602
v 0.016516 0.412144 -0.660450
v -0.047188 0.943014 -0.724154
v -0.058883 0.336746 0.183972
v 0.014763 0.881064 0.110327
v 1.300151 2.826313 -1.287907
v 1.266949 3.307501 -1.254704
v 1.236388 2.890077 -0.535422
v 1.407412 3.447964 -0.364398
v 0.014700 2.848110 -1.266111
v -0.032383 3.365990 -1.313194
v 0.017685 2.851094 -0.496440
v 0.014615 3.318993 -0.493370
v 0.252091 1.559857 -1.471326
v 0.209830 2.399554 -1.429158
v 0.273552 1.537981 -0.265636
v 0.250554 2.440641 -0.288685
v -1.391658 1.712938 -1.321605
v -1.379969 2.277001 -1.309890
v -1.494236 1.610595 -0.341786
v -1.463499 2.360332 -0.372454
v -1.317094 0.621202 -1.360335
v -1.245048 1.255012 -1.288288
v -0.439906 0.751729 -1.229808
v -0.400954 1.235484 -1.268759
v -1.178912 0.759384 0.000197
v -1.250181 1.260146 0.071467
v -0.447356 0.759179 0.000403
v -0.412995 1.223443 0.034764
v -0.189821 0.815122 -1.203749
v -0.213398 1.231384 -1.227325
v 0.612378 0.707466 -1.311404
v 0.521848 1.224933 -1.220874
v -0.186910 0.818033 -0.021117
v -0.205577 1.223563 -0.002450
v 0.507432 0.812412 -0.015496
v 0.715730 1.418816 0.192803
v -1.202703 3.349728 -0.979378
v -1.266474 4.002577 -1.043149
v -0.412875 3.450835 -0.878271
v -0.386735 3.863838 -0.904410
v -1.217507 3.334924 0.417361
v -1.160317 3.896420 0.360171
v -0.364640 3.402601 0.349684
v -0.351173 3.899401 0.363152
v -1.000000 2.612877 1.000000
v -1.035778 2.612877 -1.035778
v 1.165117 2.623831 0.010954
v -1.000000 2.612877 0.000000
v -1.120508 0.712510 1.124756
v -1.161056 0.945946 1.529225
v -0.412875 0.703367 1.149889
v -0.328181 0.979483 1.541425
v -1.161355 -0.445156 1.619756
v -1.320142 -0.307838 2.289686
v -0.362021 -0.433322 1.624061
v -0.412875 -0.202180 1.999237
v -0.145953 -0.506364 0.974824
v -0.503685 -0.568661 1.594282
v -0.139516 0.432496 0.992519
v -0.268092 0.330838 1.508579
v 1.012904 -0.394253 1.639164
v 0.858550 -0.447595 2.096198
v 1.124748 0.417855 1.598478
v 0.912404 0.498434 2.244240
v 1.489364 -0.483892 1.217325
v 1.497004 0.040314 1.236207
v 2.250938 -0.512726 1.640595
v 2.358013 0.160399 1.610028
v 0.888012 -0.413197 2.339517
v 0.684795 0.156018 2.387285
v 1.502067 -0.402382 2.694692
v 1.549027 0.125739 2.870415
vt 0.375000 0.125000
vt 0.625000 0.125000
vt 0.625000 0.250000
vt 0.375000 0.250000
vt 0.625000 0.500000
vt 0.375000 0.500000
vt 0.375000 0.625000
vt 0.625000 0.625000
vt 0.625000 0.750000
vt 0.375000 0.750000
vt 0.625000 1.000000
vt 0.375000 1.000000
vt 0.125000 0.625000
vt 0.125000 0.750000
vt 0.625000 0.625000
vt 0.625000 0.500000
vt 0.625000 0.500000
vt 0.625000 0.625000
vt 0.625000 0.750000
vt 0.625000 0.125000
vt 0.625000 0.000000
vt 0.625000 0.000000
vt 0.625000 0.125000
vt 0.625000 1.000000
vt 0.625000 0.750000
vt 0.625000 1.000000
vt 0.625000 0.250000
vt 0.625000 0.250000
vt 0.375000 0.000000
vt 0.625000 0.000000
vt 0.125000 0.500000
vt 0.625000 0.625000
vt 0.375000 0.000000
vt 0.625000 0.000000
vt 0.625000 0.250000
vt 0.375000 0.250000
vt 0.625000 0.500000
vt 0.375000 0.500000
vt 0.625000 0.750000
vt 0.375000 0.750000
vt 0.625000 1.000000
vt 0.375000 1.000000
vt 0.125000 0.500000
vt 0.125000 0.750000
vt 0.875000 0.500000
vt 0.875000 0.750000
vt 0.375000 0.000000
vt 0.625000 0.000000
vt 0.625000 0.250000
vt 0.375000 0.250000
vt 0.625000 0.500000
vt 0.375000 0.500000
vt 0.625000 0.750000
vt 0.375000 0.750000
vt 0.625000 1.000000
vt 0.375000 1.000000
vt 0.125000 0.500000
vt 0.125000 0.750000
vt 0.875000 0.500000
vt 0.875000 0.750000
vt 0.375000 0.000000
vt 0.625000 0.000000
vt 0.625000 0.250000
vt 0.375000 0.250000
vt 0.625000 0.500000
vt 0.375000 0.500000
vt 0.625000 0.750000
vt 0.375000 0.750000
vt 0.625000 1.000000
vt 0.375000 1.000000
vt 0.125000 0.500000
vt 0.125000 0.750000
vt 0.875000 0.500000
vt 0.875000 0.750000
vt 0.375000 0.000000
vt 0.625000 0.000000
vt 0.625000 0.250000
vt 0.375000 0.250000
vt 0.625000 0.500000
vt 0.375000 0.500000
vt 0.625000 0.750000
vt 0.375000 0.750000
vt 0.625000 1.000000
vt 0.375000 1.000000
vt 0.125000 0.500000
vt 0.125000 0.750000
vt 0.875000 0.500000
vt 0.875000 0.750000
vt 0.375000 0.000000
vt 0.625000 0.000000
vt 0.625000 0.250000
vt 0.375000 0.250000
vt 0.625000 0.500000
vt 0.375000 0.500000
vt 0.625000 0.750000
vt 0.375000 0.750000
vt 0.625000 1.000000
vt 0.375000 1.000000
vt 0.125000 0.500000
vt 0.125000 0.750000
vt 0.875000 0.500000
vt 0.875000 0.750000
vt 0.375000 0.000000
vt 0.625000 0.000000
vt 0.625000 0.250000
vt 0.375000 0.250000
vt 0.625000 0.500000
vt 0.375000 0.500000
vt 0.625000 0.750000
vt 0.375000 0.750000
vt 0.625000 1.000000
vt 0.375000 1.000000
vt 0.125000 0.500000
vt 0.125000 0.750000
vt 0.875000 0.500000
vt 0.875000 0.750000
vt 0.375000 0.000000
vt 0.625000 0.000000
vt 0.625000 0.250000
vt 0.375000 0.250000
vt 0.625000 0.500000
vt 0.375000 0.500000
vt 0.625000 0.750000
vt 0.375000 0.750000
vt 0.625000 1.000000
vt 0.375000 1.000000
vt 0.125000 0.500000
vt 0.125000 0.750000
vt 0.875000 0.500000
vt 0.875000 0.750000
vt 0.375000 0.000000
vt 0.625000 0.000000
vt 0.625000 0.250000
vt 0.375000 0.250000
vt 0.625000 0.500000
vt 0.375000 0.500000
vt 0.625000 0.750000
vt 0.375000 0.750000
vt 0.625000 1.000000
vt 0.375000 1.000000
vt 0.125000 0.500000
vt 0.125000 0.750000
vt 0.875000 0.500000
vt 0.875000 0.750000
vt 0.375000 0.000000
vt 0.625000 0.000000
vt 0.625000 0.250000
vt 0.375000 0.250000
vt 0.625000 0.500000
vt 0.375000 0.500000
vt 0.625000 0.750000
vt 0.375000 0.750000
vt 0.625000 1.000000
vt 0.375000 1.000000
vt 0.125000 0.500000
vt 0.125000 0.750000
vt 0.875000 0.500000
vt 0.875000 0.750000
vt 0.375000 0.000000
vt 0.625000 0.000000
vt 0.625000 0.250000
vt 0.375000 0.250000
vt 0.625000 0.500000
vt 0.375000 0.500000
vt 0.625000 0.750000
vt 0.375000 0.750000
vt 0.625000 1.000000
vt 0.375000 1.000000
vt 0.125000 0.500000
vt 0.125000 0.750000
vt 0.875000 0.500000
vt 0.875000 0.750000
vt 0.375000 0.000000
vt 0.625000 0.000000
vt 0.625000 0.250000
vt 0.375000 0.250000
vt 0.625000 0.500000
vt 0.375000 0.500000
vt 0.625000 0.750000
vt 0.375000 0.750000
vt 0.625000 1.000000
vt 0.375000 1.000000
vt 0.125000 0.500000
vt 0.125000 0.750000
vt 0.875000 0.500000
vt 0.875000 0.750000
vt 0.375000 0.000000
vt 0.625000 0.000000
vt 0.625000 0.250000
vt 0.375000 0.250000
vt 0.625000 0.500000
vt 0.375000 0.500000
vt 0.625000 0.750000
vt 0.375000 0.750000
vt 0.625000 1.000000
vt 0.375000 1.000000
vt 0.125000 0.500000
vt 0.125000 0.750000
vt 0.875000 0.500000
vt 0.875000 0.750000
vt 0.375000 0.000000
vt 0.625000 0.000000
vt 0.625000 0.250000
vt 0.375000 0.250000
vt 0.625000 0.500000
vt 0.375000 0.500000
vt 0.625000 0.750000
vt 0.375000 0.750000
vt 0.625000 1.000000
vt 0.375000 1.000000
vt 0.125000 0.500000
vt 0.125000 0.750000
vt 0.875000 0.500000
vt 0.875000 0.750000
vt 0.375000 0.000000
vt 0.625000 0.000000
vt 0.625000 0.250000
vt 0.375000 0.250000
vt 0.625000 0.500000
vt 0.375000 0.500000
vt 0.625000 0.750000
vt 0.375000 0.750000
vt 0.625000 1.000000
vt 0.375000 1.000000
vt 0.125000 0.500000
vt 0.125000 0.750000
vt 0.875000 0.500000
vt 0.875000 0.750000
vt 0.375000 0.000000
vt 0.625000 0.000000
vt 0.625000 0.250000
vt 0.375000 0.250000
vt 0.625000 0.500000
vt 0.375000 0.500000
vt 0.625000 0.750000
vt 0.375000 0.750000
vt 0.625000 1.000000
vt 0.375000 1.000000
vt 0.125000 0.500000
vt 0.125000 0.750000
vt 0.875000 0.500000
vt 0.875000 0.750000
vt 0.375000 0.000000
vt 0.625000 0.000000
vt 0.625000 0.250000
vt 0.375000 0.250000
vt 0.625000 0.500000
vt 0.375000 0.500000
vt 0.625000 0.750000
vt 0.375000 0.750000
vt 0.625000 1.000000
vt 0.375000 1.000000
vt 0.125000 0.500000
vt 0.125000 0.750000
vt 0.875000 0.500000
vt 0.875000 0.750000
vt 0.375000 0.000000
vt 0.625000 0.000000
vt 0.625000 0.250000
vt 0.375000 0.250000
vt 0.625000 0.500000
vt 0.375000 0.500000
vt 0.625000 0.750000
vt 0.375000 0.750000
vt 0.625000 1.000000
vt 0.375000 1.000000
vt 0.125000 0.500000
vt 0.125000 0.750000
vt 0.875000 0.500000
vt 0.875000 0.750000
vt 0.375000 0.000000
vt 0.625000 0.000000
vt 0.625000 0.250000
vt 0.375000 0.250000
vt 0.625000 0.500000
vt 0.375000 0.500000
vt 0.625000 0.750000
vt 0.375000 0.750000
vt 0.625000 1.000000
vt 0.375000 1.000000
vt 0.125000 0.500000
vt 0.125000 0.750000
vt 0.875000 0.500000
vt 0.875000 0.750000
vt 0.375000 0.000000
vt 0.625000 0.000000
vt 0.625000 0.250000
vt 0.375000 0.250000
vt 0.625000 0.500000
vt 0.375000 0.500000
vt 0.625000 0.750000
vt 0.375000 0.750000
vt 0.625000 1.000000
vt 0.375000 1.000000
vt 0.125000 0.500000
vt 0.125000 0.750000
vt 0.875000 0.500000
vt 0.875000 0.750000
vn -0.9948 0.0702 -0.0740
vn -0.0579 -0.0013 -0.9983
vn 0.9979 -0.0615 0.0194
vn 0.0036 0.0298 0.9995
vn 0.0696 -0.9974 -0.0195
vn 0.9930 -0.0167 -0.1168
vn 0.9895 0.0726 0.1247
vn -0.9773 0.0337 0.2092
vn 0.0198 -0.0483 0.9986
vn 0.0302 -0.0799 -0.9963
vn -0.9997 -0.0068 0.0242
vn -0.9965 0.0834 0.0094
vn 0.9961 -0.0778 0.0406
vn 0.0407 -0.9991 -0.0129
vn 0.8820 0.2728 0.3842
vn -0.9925 -0.1215 0.0142
vn 0.0425 0.8980 0.4379
vn 0.0289 0.9982 -0.0527
vn -0.9892 -0.1371 -0.0510
vn 0.0100 -0.2433 -0.9699
vn 0.9966 -0.0122 -0.0810
vn -0.0077 0.0905 0.9959
vn -0.0233 -0.9851 -0.1706
vn 0.0284 0.9986 0.0456
vn -0.9954 0.0538 -0.0794
vn 0.0285 0.0336 -0.9990
vn 0.9880 -0.0374 -0.1498
vn -0.0168 -0.0127 0.9998
vn 0.0259 -0.9946 -0.1000
vn -0.0117 0.9917 -0.1280
vn -0.9991 -0.0411 -0.0119
vn -0.0502 -0.0944 -0.9943
vn 0.9969 -0.0788 0.0087
vn -0.0375 -0.0273 0.9989
vn -0.0351 -0.9991 -0.0230
vn -0.0544 0.9983 0.0221
vn -0.9996 -0.0002 -0.0279
vn 0.0635 -0.1020 -0.9928
vn 0.9780 -0.2056 0.0356
vn 0.1051 -0.0832 0.9910
vn 0.1221 -0.9925 -0.0004
vn 0.0430 0.9990 0.0117
vn 0.1231 -0.0767 0.9894
vn -0.9930 0.1183 -0.0043
vn -0.0257 0.2286 -0.9732
vn 0.9946 0.0518 0.0897
vn 0.0749 -0.9909 0.1122
vn 0.0316 0.9993 -0.0184
vn -0.0595 0.0884 0.9943
vn -0.9952 0.0929 -0.0305
vn -0.0793 0.1016 -0.9917
vn 0.9949 0.0988 -0.0194
vn -0.0748 -0.9969 -0.0240
vn -0.0660 0.9975 -0.0262
vn 0.0628 -0.1119 0.9917
vn -0.9988 0.0211 0.0440
vn -0.0341 0.0936 -0.9950
vn 0.9987 -0.0255 0.0445
vn 0.0282 -0.9960 0.0853
vn -0.0037 1.0000 0.0021
vn 0.1724 -0.0398 0.9842
vn -0.9972 0.0049 -0.0747
vn -0.0570 0.0649 -0.9963
vn 0.9971 0.0167 0.0749
vn 0.0564 -0.9981 0.0243
vn 0.0638 0.9977 -0.0207
vn 0.0433 0.0644 0.9970
vn -0.9966 0.0795 -0.0207
vn -0.0341 -0.0223 -0.9992
vn 0.9990 -0.0380 0.0253
vn 0.0394 -0.9991 -0.0130
vn -0.0293 0.9994 0.0171
vn 0.9732 -0.2236 -0.0535
vn -0.0279 -0.2088 0.9776
vn -0.9974 -0.0520 -0.0502
vn -0.0239 -0.0728 -0.9971
vn 0.0076 -0.9999 -0.0077
vn -0.0654 0.9928 -0.1007
vn 0.9993 -0.0115 -0.0354
vn 0.0038 -0.0130 0.9999
vn -0.9999 0.0083 -0.0073
vn 0.0212 0.0089 -0.9997
vn 0.0163 -0.9998 -0.0149
vn 0.0085 0.9996 -0.0287
vn 0.9916 -0.1255 -0.0307
vn -0.0235 -0.1635 0.9863
vn -0.9983 -0.0495 0.0300
vn 0.0138 -0.0128 -0.9998
vn 0.0079 -0.9990 0.0441
vn -0.0225 0.9984 -0.0521
vn 0.9989 0.0377 -0.0268
vn -0.0459 0.0327 0.9984
vn -0.9949 0.0307 -0.0963
vn -0.0825 0.0364 -0.9959
vn -0.0672 -0.9960 -0.0591
vn -0.0618 0.9962 -0.0609
vn 0.0855 0.0210 -0.9961
vn 0.9970 -0.0771 0.0075
vn 0.0206 -0.1080 0.9939
vn -0.9988 -0.0055 0.0491
vn 0.0764 -0.9957 0.0521
vn 0.0335 0.9994 0.0028
vn -0.0608 0.0640 -0.9961
vn 0.9949 -0.0985 -0.0218
vn -0.0977 -0.2003 0.9748
vn -0.9987 -0.0513 0.0043
vn -0.0727 -0.9965 0.0404
vn -0.1056 0.9925 -0.0619
vn 0.1400 -0.0783 -0.9870
vn 0.9985 -0.0439 -0.0338
vn 0.0372 0.0388 0.9986
vn -0.9995 -0.0022 0.0325
vn 0.1027 -0.9944 -0.0252
vn 0.0783 0.9967 0.0222
vn -0.0354 0.0893 -0.9954
vn -0.0238 0.0516 0.9984
vn -0.9993 0.0284 -0.0245
vn 0.9826 0.1577 -0.0986
vn -0.0003 0.8422 -0.5391
vn 0.9993 -0.0255 -0.0272
vn 0.1229 -0.9280 0.3518
vn -0.9839 -0.0114 -0.1786
vn 0.0187 -0.3890 -0.9211
vn 0.1080 0.4361 0.8934
vn -0.9195 0.1071 -0.3783
vn -0.0623 0.9981 -0.0002
vn 0.9425 -0.1081 0.3161
vn 0.1156 -0.9920 -0.0516
vn 0.4652 -0.0430 -0.8841
vn -0.4409 0.0389 0.8967
vn 0.4427 -0.0511 -0.8952
vn 0.8147 -0.1714 0.5540
vn -0.4812 -0.2402 0.8430
vn -0.8475 -0.1201 -0.5171
vn -0.0444 -0.9975 0.0554
vn -0.0265 0.9983 -0.0513
usemtl None
s off
f 20/1/1 19/2/1 4/3/1 3/4/1
f 3/4/2 4/3/2 8/5/2 7/6/2
f 18/7/3 17/8/3 6/9/3 5/10/3
f 5/10/4 6/9/4 2/11/4 1/12/4
f 20/13/5 18/7/5 5/10/5 1/14/5
f 151/15/6 14/16/6 11/17/6 15/18/6
f 6/9/7 17/8/7 151/15/7 13/19/7
f 152/20/8 149/21/8 9/22/8 16/23/8
f 149/24/9 13/19/9 12/25/9 9/26/9
f 14/16/10 150/27/10 10/28/10 11/17/10
f 4/3/11 19/2/11 152/20/11 150/27/11
f 1/29/12 2/30/12 19/2/12 20/1/12
f 7/6/13 8/5/13 17/8/13 18/7/13
f 3/31/14 7/6/14 18/7/14 20/13/14
f 13/19/15 151/15/15 15/18/15 12/25/15
f 150/27/16 152/20/16 16/23/16 10/28/16
f 9/26/17 12/25/17 15/18/17 16/32/17
f 16/32/18 15/18/18 11/17/18 10/28/18
f 21/33/19 22/34/19 24/35/19 23/36/19
f 23/36/20 24/35/20 28/37/20 27/38/20
f 27/38/21 28/37/21 26/39/21 25/40/21
f 25/40/22 26/39/22 22/41/22 21/42/22
f 23/43/23 27/38/23 25/40/23 21/44/23
f 28/37/24 24/45/24 22/46/24 26/39/24
f 29/47/25 30/48/25 32/49/25 31/50/25
f 31/50/26 32/49/26 36/51/26 35/52/26
f 35/52/27 36/51/27 34/53/27 33/54/27
f 33/54/28 34/53/28 30/55/28 29/56/28
f 31/57/29 35/52/29 33/54/29 29/58/29
f 36/51/30 32/59/30 30/60/30 34/53/30
f 37/61/31 38/62/31 40/63/31 39/64/31
f 39/64/32 40/63/32 44/65/32 43/66/32
f 43/66/33 44/65/33 42/67/33 41/68/33
f 41/68/34 42/67/34 38/69/34 37/70/34
f 39/71/35 43/66/35 41/68/35 37/72/35
f 44/65/36 40/73/36 38/74/36 42/67/36
f 45/75/37 46/76/37 48/77/37 47/78/37
f 47/78/38 48/77/38 52/79/38 51/80/38
f 51/80/39 52/79/39 50/81/39 49/82/39
f 49/82/40 50/81/40 46/83/40 45/84/40
f 47/85/41 51/80/41 49/82/41 45/86/41
f 52/79/42 48/87/42 46/88/42 50/81/42
f 53/89/43 54/90/43 56/91/43 55/92/43
f 55/92/44 56/91/44 60/93/44 59/94/44
f 59/94/45 60/93/45 58/95/45 57/96/45
f 57/96/46 58/95/46 54/97/46 53/98/46
f 55/99/47 59/94/47 57/96/47 53/100/47
f 60/93/48 56/101/48 54/102/48 58/95/48
f 61/103/49 62/104/49 64/105/49 63/106/49
f 63/106/50 64/105/50 68/107/50 67/108/50
f 67/108/51 68/107/51 66/109/51 65/110/51
f 65/110/52 66/109/52 62/111/52 61/112/52
f 63/113/53 67/108/53 65/110/53 61/114/53
f 68/107/54 64/115/54 62/116/54 66/109/54
f 69/117/55 70/118/55 72/119/55 71/120/55
f 71/120/56 72/119/56 76/121/56 75/122/56
f 75/122/57 76/121/57 74/123/57 73/124/57
f 73/124/58 74/123/58 70/125/58 69/126/58
f 71/127/59 75/122/59 73/124/59 69/128/59
f 76/121/60 72/129/60 70/130/60 74/123/60
f 77/131/61 78/132/61 80/133/61 79/134/61
f 79/134/62 80/133/62 84/135/62 83/136/62
f 83/136/63 84/135/63 82/137/63 81/138/63
f 81/138/64 82/137/64 78/139/64 77/140/64
f 79/141/65 83/136/65 81/138/65 77/142/65
f 84/135/66 80/143/66 78/144/66 82/137/66
f 85/145/67 86/146/67 88/147/67 87/148/67
f 87/148/68 88/147/68 92/149/68 91/150/68
f 91/150/69 92/149/69 90/151/69 89/152/69
f 89/152/70 90/151/70 86/153/70 85/154/70
f 87/155/71 91/150/71 89/152/71 85/156/71
f 92/149/72 88/157/72 86/158/72 90/151/72
f 93/159/73 94/160/73 96/161/73 95/162/73
f 95/162/74 96/161/74 100/163/74 99/164/74
f 99/164/75 100/163/75 98/165/75 97/166/75
f 97/166/76 98/165/76 94/167/76 93/168/76
f 95/169/77 99/164/77 97/166/77 93/170/77
f 100/163/78 96/171/78 94/172/78 98/165/78
f 101/173/79 102/174/79 104/175/79 103/176/79
f 103/176/80 104/175/80 108/177/80 107/178/80
f 107/178/81 108/177/81 106/179/81 105/180/81
f 105/180/82 106/179/82 102/181/82 101/182/82
f 103/183/83 107/178/83 105/180/83 101/184/83
f 108/177/84 104/185/84 102/186/84 106/179/84
f 109/187/85 110/188/85 112/189/85 111/190/85
f 111/190/86 112/189/86 116/191/86 115/192/86
f 115/192/87 116/191/87 114/193/87 113/194/87
f 113/194/88 114/193/88 110/195/88 109/196/88
f 111/197/89 115/192/89 113/194/89 109/198/89
f 116/191/90 112/199/90 110/200/90 114/193/90
f 117/201/91 118/202/91 120/203/91 119/204/91
f 119/204/92 120/203/92 124/205/92 123/206/92
f 123/206/93 124/205/93 122/207/93 121/208/93
f 121/208/94 122/207/94 118/209/94 117/210/94
f 119/211/95 123/206/95 121/208/95 117/212/95
f 124/205/96 120/213/96 118/214/96 122/207/96
f 125/215/97 126/216/97 128/217/97 127/218/97
f 127/218/98 128/217/98 132/219/98 131/220/98
f 131/220/99 132/219/99 130/221/99 129/222/99
f 129/222/100 130/221/100 126/223/100 125/224/100
f 127/225/101 131/220/101 129/222/101 125/226/101
f 132/219/102 128/227/102 126/228/102 130/221/102
f 133/229/103 134/230/103 136/231/103 135/232/103
f 135/232/104 136/231/104 140/233/104 139/234/104
f 139/234/105 140/233/105 138/235/105 137/236/105
f 137/236/106 138/235/106 134/237/106 133/238/106
f 135/239/107 139/234/107 137/236/107 133/240/107
f 140/233/108 136/241/108 134/242/108 138/235/108
f 141/243/109 142/244/109 144/245/109 143/246/109
f 143/246/110 144/245/110 148/247/110 147/248/110
f 147/248/111 148/247/111 146/249/111 145/250/111
f 145/250/112 146/249/112 142/251/112 141/252/112
f 143/253/113 147/248/113 145/250/113 141/254/113
f 148/247/114 144/255/114 142/256/114 146/249/114
f 8/5/115 4/3/115 150/27/115 14/16/115
f 2/11/116 6/9/116 13/19/116 149/24/116
f 19/2/117 2/30/117 149/21/117 152/20/117
f 17/8/118 8/5/118 14/16/118 151/15/118
f 153/257/119 154/258/119 156/259/119 155/260/119
f 155/260/120 156/259/120 160/261/120 159/262/120
f 159/262/121 160/261/121 158/263/121 157/264/121
f 157/264/122 158/263/122 154/265/122 153/266/122
f 155/267/123 159/262/123 157/264/123 153/268/123
f 160/261/124 156/269/124 154/270/124 158/263/124
f 161/271/125 162/272/125 164/273/125 163/274/125
f 163/274/126 164/273/126 168/275/126 167/276/126
f 167/276/127 168/275/127 166/277/127 165/278/127
f 165/278/128 166/277/128 162/279/128 161/280/128
f 163/281/129 167/276/129 165/278/129 161/282/129
f 168/275/130 164/283/130 162/284/130 166/277/130
f 169/285/131 170/286/131 172/287/131 171/288/131
f 171/288/132 172/287/132 176/289/132 175/290/132
f 175/290/133 176/289/133 174/291/133 173/292/133
f 173/292/134 174/291/134 170/293/134 169/294/134
f 171/295/135 175/290/135 173/292/135 169/296/135
f 176/289/136 172/297/136 170/298/136 174/291/136
