# Blender v3.1.2 OBJ File: 'Witch_Tree.blend'
# www.blender.org
mtllib Witch_Table2.mtl
o Cube.008
v 0.000000 2.885677 -1.653460
v -4.207768 3.080999 1.653460
v 0.000000 2.657440 -1.425223
v -4.207768 3.080999 -1.653460
v 0.000000 3.080999 1.653460
v -3.431751 2.885677 1.653460
v 0.000000 3.080999 -1.653460
v -3.748996 2.657440 -1.425223
v -3.979531 2.657440 1.425223
v -4.207768 2.885677 1.653460
v -3.979531 2.657440 -1.425223
v -4.207768 2.885677 -1.653460
v -3.431751 3.080999 1.653460
v -3.431751 3.080999 -1.653460
v -3.431751 2.885677 -1.653460
v -3.748996 2.657440 1.425223
v 0.000000 2.657440 1.425223
v 0.000000 2.885677 1.653460
v -3.320878 2.657440 1.425223
v -2.979081 2.885677 -1.653460
v -2.979081 3.080999 -1.653460
v -3.320878 2.657440 -1.425223
v -2.979081 3.080999 1.653460
v -2.979081 2.885677 1.653460
v 0.000000 2.657440 0.864178
v -4.207768 3.080999 1.002569
v -3.431751 3.080999 1.002569
v -3.979531 2.657440 0.864178
v -4.207768 2.885677 1.002569
v -3.748996 2.522579 0.864178
v 0.000000 3.080999 1.002569
v -2.979081 3.080999 1.002569
v -3.320878 2.522579 0.864178
v -4.207768 3.080999 -1.120795
v -4.207768 2.885677 -1.120795
v 0.000000 2.657440 -0.966085
v -3.431751 3.080999 -1.120795
v -3.979531 2.657440 -0.966085
v -3.748996 2.522579 -0.966085
v 0.000000 3.080999 -1.120795
v -2.979081 3.080999 -1.120795
v -3.320878 2.522579 -0.966085
v -3.627158 0.724043 -0.324062
v -3.627158 0.724043 0.222156
v -3.442716 0.724043 -0.324062
v -3.442716 0.724043 0.222156
v -3.748996 0.094145 -0.213384
v -3.748996 0.094145 0.111478
v -3.320878 0.094145 -0.213384
v -3.320878 0.094145 0.111478
v -3.320878 0.000137 0.675937
v -3.748996 0.000137 0.675937
v -3.320878 0.000137 -0.777844
v -3.748996 0.000137 -0.777844
v -3.320878 0.189338 1.462681
v -3.320878 -0.002908 1.328718
v -3.748996 -0.002908 1.328718
v -3.748996 0.189338 1.462681
v -3.320878 -0.002908 -1.430624
v -3.320878 0.189338 -1.564587
v -3.748996 0.189338 -1.564587
v -3.748996 -0.002908 -1.430624
v 4.207768 3.080999 1.653460
v 4.207768 3.080999 -1.653460
v 3.431751 2.885677 1.653460
v 3.748996 2.657440 -1.425223
v 3.979531 2.657440 1.425223
v 4.207768 2.885677 1.653460
v 3.979531 2.657440 -1.425223
v 4.207768 2.885677 -1.653460
v 3.431751 3.080999 1.653460
v 3.431751 3.080999 -1.653460
v 3.431751 2.885677 -1.653460
v 3.748996 2.657440 1.425223
v 3.320878 2.657440 1.425223
v 2.979081 2.885677 -1.653460
v 2.979081 3.080999 -1.653460
v 3.320878 2.657440 -1.425223
v 2.979081 3.080999 1.653460
v 2.979081 2.885677 1.653460
v 4.207768 3.080999 1.002569
v 3.431751 3.080999 1.002569
v 3.979531 2.657440 0.864178
v 4.207768 2.885677 1.002569
v 3.748996 2.522579 0.864178
v 2.979081 3.080999 1.002569
v 3.320878 2.522579 0.864178
v 4.207768 3.080999 -1.120795
v 4.207768 2.885677 -1.120795
v 3.431751 3.080999 -1.120795
v 3.979531 2.657440 -0.966085
v 3.748996 2.522579 -0.966085
v 2.979081 3.080999 -1.120795
v 3.320878 2.522579 -0.966085
v 3.627158 0.724043 -0.324062
v 3.627158 0.724043 0.222156
v 3.442716 0.724043 -0.324062
v 3.442716 0.724043 0.222156
v 3.748996 0.094145 -0.213384
v 3.748996 0.094145 0.111478
v 3.320878 0.094145 -0.213384
v 3.320878 0.094145 0.111478
v 3.320878 0.000137 0.675937
v 3.748996 0.000137 0.675937
v 3.320878 0.000137 -0.777844
v 3.748996 0.000137 -0.777844
v 3.320878 0.189338 1.462681
v 3.320878 -0.002908 1.328718
v 3.748996 -0.002908 1.328718
v 3.748996 0.189338 1.462681
v 3.320878 -0.002908 -1.430624
v 3.320878 0.189338 -1.564587
v 3.748996 0.189338 -1.564587
v 3.748996 -0.002908 -1.430624
vt 0.509714 0.976947
vt 0.625000 0.976947
vt 0.625000 1.000000
vt 0.509714 1.000000
vt 0.509714 0.875000
vt 0.625000 0.875000
vt 0.625000 0.963499
vt 0.509714 0.963499
vt 0.166301 0.690331
vt 0.250000 0.690331
vt 0.250000 0.732746
vt 0.166301 0.732746
vt 0.131780 0.690331
vt 0.153583 0.690331
vt 0.153583 0.732746
vt 0.131780 0.732746
vt 0.509714 0.209731
vt 0.625000 0.209731
vt 0.625000 0.250000
vt 0.509714 0.250000
vt 0.851947 0.700793
vt 0.875000 0.700793
vt 0.875000 0.750000
vt 0.851947 0.750000
vt 0.125000 0.750000
vt 0.125000 0.700793
vt 0.153583 0.517255
vt 0.131780 0.517255
vt 0.125000 0.500000
vt 0.148053 0.500000
vt 0.166301 0.517255
vt 0.161501 0.500000
vt 0.838499 0.700793
vt 0.838499 0.750000
vt 0.148053 0.750000
vt 0.250000 0.750000
vt 0.161501 0.750000
vt 0.625000 0.273053
vt 0.509714 0.273053
vt 0.625000 0.286501
vt 0.509714 0.286501
vt 0.625000 0.375000
vt 0.509714 0.375000
vt 0.750000 0.700793
vt 0.750000 0.750000
vt 0.250000 0.517255
vt 0.250000 0.500000
vt 0.153583 0.551965
vt 0.153583 0.551965
vt 0.153583 0.690331
vt 0.750000 0.540269
vt 0.838499 0.540269
vt 0.851947 0.540269
vt 0.131780 0.551965
vt 0.125000 0.540269
vt 0.875000 0.540269
vt 0.509714 0.000000
vt 0.625000 0.000000
vt 0.625000 0.049207
vt 0.509714 0.049207
vt 0.166301 0.551965
vt 0.250000 0.551965
vt 0.851947 0.500000
vt 0.875000 0.500000
vt 0.838499 0.500000
vt 0.750000 0.500000
vt 0.153583 0.551965
vt 0.153583 0.551965
vt 0.153583 0.551965
vt 0.153583 0.551965
vt 0.166301 0.551965
vt 0.166301 0.690331
vt 0.166301 0.551965
vt 0.166301 0.690331
vt 0.153583 0.690331
vt 0.166301 0.690331
vt 0.166301 0.690331
vt 0.166301 0.690331
vt 0.166301 0.551965
vt 0.166301 0.551965
vt 0.166301 0.551965
vt 0.153583 0.690331
vt 0.153583 0.690331
vt 0.153583 0.690331
vt 0.509714 0.976947
vt 0.509714 1.000000
vt 0.625000 1.000000
vt 0.625000 0.976947
vt 0.509714 0.963499
vt 0.625000 0.963499
vt 0.166301 0.690331
vt 0.166301 0.732746
vt 0.131780 0.690331
vt 0.131780 0.732746
vt 0.153583 0.732746
vt 0.153583 0.690331
vt 0.509714 0.209731
vt 0.509714 0.250000
vt 0.625000 0.250000
vt 0.625000 0.209731
vt 0.851947 0.700793
vt 0.851947 0.750000
vt 0.875000 0.750000
vt 0.875000 0.700793
vt 0.125000 0.700793
vt 0.125000 0.750000
vt 0.153583 0.517255
vt 0.148053 0.500000
vt 0.125000 0.500000
vt 0.131780 0.517255
vt 0.166301 0.517255
vt 0.161501 0.500000
vt 0.838499 0.700793
vt 0.838499 0.750000
vt 0.148053 0.750000
vt 0.161501 0.750000
vt 0.509714 0.273053
vt 0.625000 0.273053
vt 0.509714 0.286501
vt 0.625000 0.286501
vt 0.153583 0.690331
vt 0.153583 0.551965
vt 0.153583 0.551965
vt 0.838499 0.540269
vt 0.851947 0.540269
vt 0.131780 0.551965
vt 0.125000 0.540269
vt 0.875000 0.540269
vt 0.509714 0.000000
vt 0.509714 0.049207
vt 0.625000 0.049207
vt 0.625000 0.000000
vt 0.166301 0.551965
vt 0.851947 0.500000
vt 0.875000 0.500000
vt 0.838499 0.500000
vt 0.153583 0.551965
vt 0.153583 0.551965
vt 0.153583 0.551965
vt 0.153583 0.551965
vt 0.166301 0.551965
vt 0.166301 0.690331
vt 0.153583 0.690331
vt 0.166301 0.690331
vt 0.166301 0.551965
vt 0.166301 0.690331
vt 0.166301 0.690331
vt 0.166301 0.690331
vt 0.166301 0.551965
vt 0.166301 0.551965
vt 0.166301 0.551965
vt 0.153583 0.690331
vt 0.153583 0.690331
vt 0.153583 0.690331
vn 0.0000 0.0000 1.0000
vn 0.0202 -0.9927 0.1193
vn -0.2789 -0.9535 0.1146
vn -1.0000 0.0000 0.0000
vn 0.0000 1.0000 0.0000
vn -0.7071 -0.7071 0.0000
vn 0.0000 -0.7071 -0.7071
vn 0.0000 -0.7071 0.7071
vn 0.0000 0.0000 -1.0000
vn 0.0000 -0.9723 0.2337
vn -0.9977 -0.0676 0.0000
vn -0.5049 -0.8632 0.0000
vn 0.0406 -0.9992 0.0000
vn 0.0201 -0.9892 -0.1453
vn -0.2780 -0.9504 -0.1396
vn 0.0000 -0.9595 -0.2818
vn -0.9898 0.1420 0.0100
vn 0.0000 -0.3362 -0.9418
vn 0.9977 -0.0676 0.0000
vn 0.0000 -0.3362 0.9418
vn 0.0000 -1.0000 0.0000
vn -0.9818 0.1899 0.0000
vn 0.9818 0.1899 0.0000
vn 0.9898 0.1420 -0.0100
vn 0.9898 0.1420 0.0100
vn 0.0000 -1.0000 0.0047
vn 0.0000 -0.9864 -0.1643
vn -0.0000 0.9183 -0.3958
vn -0.9898 0.1420 -0.0100
vn 0.0000 -1.0000 -0.0047
vn 0.0000 -0.9864 0.1643
vn 0.0000 -0.5717 0.8205
vn -0.0000 -0.5717 -0.8205
vn -0.0000 0.9183 0.3958
vn -0.0202 -0.9927 0.1193
vn 0.2789 -0.9535 0.1146
vn 1.0000 0.0000 0.0000
vn 0.7071 -0.7071 0.0000
vn 0.5049 -0.8632 0.0000
vn -0.0406 -0.9992 0.0000
vn -0.0201 -0.9892 -0.1453
vn 0.2780 -0.9504 -0.1396
usemtl None
s off
f 6/1/1 13/2/1 2/3/1 10/4/1
f 18/5/1 5/6/1 23/7/1 24/8/1
f 33/9/2 25/10/2 17/11/2 19/12/2
f 28/13/3 30/14/3 16/15/3 9/16/3
f 35/17/4 34/18/4 4/19/4 12/20/4
f 27/21/5 26/22/5 2/23/5 13/24/5
f 28/13/6 9/16/6 10/25/6 29/26/6
f 8/27/7 11/28/7 12/29/7 15/30/7
f 22/31/7 8/27/7 15/30/7 20/32/7
f 32/33/5 27/21/5 13/24/5 23/34/5
f 9/16/8 16/15/8 6/35/8 10/25/8
f 19/12/8 17/11/8 18/36/8 24/37/8
f 12/20/9 4/19/9 14/38/9 15/39/9
f 15/39/9 14/38/9 21/40/9 20/41/9
f 20/41/9 21/40/9 7/42/9 1/43/9
f 24/8/1 23/7/1 13/2/1 6/1/1
f 16/15/8 19/12/8 24/37/8 6/35/8
f 31/44/5 32/33/5 23/34/5 5/45/5
f 3/46/7 22/31/7 20/32/7 1/47/7
f 30/14/10 33/9/10 19/12/10 16/15/10
f 30/14/11 39/48/11 43/49/11 44/50/11
f 40/51/5 41/52/5 32/33/5 31/44/5
f 41/52/5 37/53/5 27/21/5 32/33/5
f 38/54/6 28/13/6 29/26/6 35/55/6
f 37/53/5 34/56/5 26/22/5 27/21/5
f 10/57/4 2/58/4 26/59/4 29/60/4
f 38/54/12 39/48/12 30/14/12 28/13/12
f 42/61/13 36/62/13 25/10/13 33/9/13
f 22/31/14 3/46/14 36/62/14 42/61/14
f 11/28/15 8/27/15 39/48/15 38/54/15
f 14/63/5 4/64/5 34/56/5 37/53/5
f 11/28/6 38/54/6 35/55/6 12/29/6
f 21/65/5 14/63/5 37/53/5 41/52/5
f 7/66/5 21/65/5 41/52/5 40/51/5
f 8/27/16 22/31/16 42/61/16 39/48/16
f 29/60/4 26/59/4 34/18/4 35/17/4
f 47/67/17 43/49/17 61/68/17 62/69/17 54/70/17
f 39/48/18 42/61/18 45/71/18 43/49/18
f 42/61/19 33/9/19 46/72/19 45/71/19
f 33/9/20 30/14/20 44/50/20 46/72/20
f 47/67/21 49/73/21 50/74/21 48/75/21
f 44/50/22 43/49/22 47/67/22 48/75/22
f 45/71/23 46/72/23 50/74/23 49/73/23
f 50/74/24 46/72/24 55/76/24 56/77/24 51/78/24
f 45/71/25 49/73/25 53/79/25 59/80/25 60/81/25
f 62/69/26 59/80/26 53/79/26 54/70/26
f 48/75/27 50/74/27 51/78/27 52/82/27
f 43/49/28 45/71/28 60/81/28 61/68/28
f 44/50/29 48/75/29 52/82/29 57/83/29 58/84/29
f 56/77/30 57/83/30 52/82/30 51/78/30
f 49/73/31 47/67/31 54/70/31 53/79/31
f 55/76/32 58/84/32 57/83/32 56/77/32
f 59/80/33 62/69/33 61/68/33 60/81/33
f 46/72/34 44/50/34 58/84/34 55/76/34
f 65/85/1 68/86/1 63/87/1 71/88/1
f 18/5/1 80/89/1 79/90/1 5/6/1
f 87/91/35 75/92/35 17/11/35 25/10/35
f 83/93/36 67/94/36 74/95/36 85/96/36
f 89/97/37 70/98/37 64/99/37 88/100/37
f 82/101/5 71/102/5 63/103/5 81/104/5
f 83/93/38 84/105/38 68/106/38 67/94/38
f 66/107/7 73/108/7 70/109/7 69/110/7
f 78/111/7 76/112/7 73/108/7 66/107/7
f 86/113/5 79/114/5 71/102/5 82/101/5
f 67/94/8 68/106/8 65/115/8 74/95/8
f 75/92/8 80/116/8 18/36/8 17/11/8
f 70/98/9 73/117/9 72/118/9 64/99/9
f 73/117/9 76/119/9 77/120/9 72/118/9
f 76/119/9 1/43/9 7/42/9 77/120/9
f 80/89/1 65/85/1 71/88/1 79/90/1
f 74/95/8 65/115/8 80/116/8 75/92/8
f 31/44/5 5/45/5 79/114/5 86/113/5
f 3/46/7 1/47/7 76/112/7 78/111/7
f 85/96/10 74/95/10 75/92/10 87/91/10
f 85/96/19 96/121/19 95/122/19 92/123/19
f 40/51/5 31/44/5 86/113/5 93/124/5
f 93/124/5 86/113/5 82/101/5 90/125/5
f 91/126/38 89/127/38 84/105/38 83/93/38
f 90/125/5 82/101/5 81/104/5 88/128/5
f 68/129/37 84/130/37 81/131/37 63/132/37
f 91/126/39 83/93/39 85/96/39 92/123/39
f 94/133/40 87/91/40 25/10/40 36/62/40
f 78/111/41 94/133/41 36/62/41 3/46/41
f 69/110/42 91/126/42 92/123/42 66/107/42
f 72/134/5 90/125/5 88/128/5 64/135/5
f 69/110/38 70/109/38 89/127/38 91/126/38
f 77/136/5 93/124/5 90/125/5 72/134/5
f 7/66/5 40/51/5 93/124/5 77/136/5
f 66/107/16 92/123/16 94/133/16 78/111/16
f 84/130/37 89/97/37 88/100/37 81/131/37
f 99/137/25 106/138/25 114/139/25 113/140/25 95/122/25
f 92/123/18 95/122/18 97/141/18 94/133/18
f 94/133/11 97/141/11 98/142/11 87/91/11
f 87/91/20 98/142/20 96/121/20 85/96/20
f 99/137/21 100/143/21 102/144/21 101/145/21
f 96/121/23 100/143/23 99/137/23 95/122/23
f 97/141/22 101/145/22 102/144/22 98/142/22
f 102/144/29 103/146/29 108/147/29 107/148/29 98/142/29
f 97/141/17 112/149/17 111/150/17 105/151/17 101/145/17
f 114/139/26 106/138/26 105/151/26 111/150/26
f 100/143/27 104/152/27 103/146/27 102/144/27
f 95/122/28 113/140/28 112/149/28 97/141/28
f 96/121/24 110/153/24 109/154/24 104/152/24 100/143/24
f 108/147/30 103/146/30 104/152/30 109/154/30
f 101/145/31 105/151/31 106/138/31 99/137/31
f 107/148/32 108/147/32 109/154/32 110/153/32
f 111/150/33 112/149/33 113/140/33 114/139/33
f 98/142/34 107/148/34 110/153/34 96/121/34
