# Blender v3.1.2 OBJ File: 'Witch_Tree.blend'
# www.blender.org
mtllib Witch_Candle2.mtl
o Cylinder.012
v 0.000000 0.867027 -0.715373
v 0.619532 0.867027 -0.357687
v 0.619532 0.867027 0.357687
v -0.000000 0.867027 0.715373
v -0.619532 0.867027 0.357687
v -0.619532 0.867027 -0.357687
v 0.000000 1.723008 -0.214889
v 0.000000 1.342272 -0.214889
v 0.186100 1.342272 -0.107445
v 0.186100 1.723008 -0.107445
v 0.186100 1.342272 0.107445
v 0.186100 1.723008 0.107445
v -0.000000 1.342272 0.214889
v -0.000000 1.723008 0.214889
v -0.186100 1.342272 0.107445
v -0.186100 1.723008 0.107445
v -0.186100 1.342272 -0.107445
v -0.186100 1.723008 -0.107445
v -0.000000 1.723008 -0.429866
v 0.000000 1.557176 -0.468207
v 0.405479 1.557176 -0.234104
v 0.372275 1.723008 -0.214933
v 0.405479 1.557176 0.234104
v 0.372275 1.723008 0.214933
v -0.000000 1.557176 0.468207
v -0.000000 1.723008 0.429866
v -0.405479 1.557176 0.234104
v -0.372275 1.723008 0.214933
v -0.405479 1.557176 -0.234104
v -0.372275 1.723008 -0.214933
v 0.000000 1.104650 -0.310728
v 0.269098 1.104650 -0.155364
v -0.269098 1.104650 -0.155364
v 0.269098 1.104650 0.155364
v -0.000000 1.104650 0.310728
v -0.269098 1.104650 0.155364
vt 0.166667 0.559406
vt 0.166667 0.618811
vt -0.000000 0.618811
vt -0.000000 0.559406
vt 0.666667 0.559406
vt 0.666667 0.618811
vt 0.500000 0.618811
vt 0.500000 0.559406
vt 0.333333 0.618811
vt 0.333333 0.559406
vt 1.000000 0.559406
vt 1.000000 0.618811
vt 0.833333 0.618811
vt 0.833333 0.559406
vt 0.750000 0.490000
vt 0.957846 0.370000
vt 0.957846 0.130000
vt 0.750000 0.010000
vt 0.542154 0.130000
vt 0.542154 0.370000
vt 0.166667 0.660269
vt 0.333333 0.660269
vt 0.500000 0.660269
vt 0.666667 0.660269
vt 0.833333 0.660269
vt 1.000000 0.660269
vt 0.666667 0.660269
vt 0.833333 0.660269
vt 1.000000 0.618811
vt 0.833333 0.618811
vt 0.166667 0.618811
vt -0.000000 0.618811
vt 0.333333 0.618811
vt 1.000000 0.660269
vt 0.500000 0.618811
vt 0.166667 0.660269
vt -0.000000 0.660269
vt 0.333333 0.660269
vt 0.500000 0.660269
vt 0.666667 0.618811
vt -0.000000 0.660269
vt 0.833333 0.500000
vt 0.666667 0.500000
vt 1.000000 0.500000
vt 0.333333 0.500000
vt 0.166667 0.500000
vt 0.500000 0.500000
vt -0.000000 0.500000
vn -0.4720 0.3298 -0.8176
vn 0.4720 0.3298 0.8176
vn -0.4720 0.3298 0.8176
vn -0.9441 0.3298 0.0000
vn 0.4720 0.3298 -0.8176
vn 0.0000 -1.0000 0.0000
vn 0.9441 0.3298 0.0000
vn 0.0000 1.0000 0.0000
vn 0.3499 -0.7144 -0.6060
vn -0.3499 -0.7144 -0.6060
vn -0.6998 -0.7144 0.0000
vn -0.3499 -0.7144 0.6060
vn -0.4903 0.1963 -0.8492
vn -0.9805 0.1963 0.0000
vn -0.4903 0.1963 0.8492
vn 0.4903 0.1963 0.8492
vn 0.9805 0.1963 0.0000
vn 0.4903 0.1963 -0.8492
vn 0.6998 -0.7144 0.0000
vn 0.3499 -0.7144 0.6060
vn 0.5612 0.8277 0.0000
vn 0.2806 0.8277 -0.4860
vn -0.5612 0.8277 0.0000
vn -0.2806 0.8277 0.4860
vn 0.2806 0.8277 0.4860
vn -0.2806 0.8277 -0.4860
usemtl None
s off
f 33/1/1 17/2/1 8/3/1 31/4/1
f 34/5/2 11/6/2 13/7/2 35/8/2
f 35/8/3 13/7/3 15/9/3 36/10/3
f 36/10/4 15/9/4 17/2/4 33/1/4
f 31/11/5 8/12/5 9/13/5 32/14/5
f 1/15/6 2/16/6 3/17/6 4/18/6 5/19/6 6/20/6
f 32/14/7 9/13/7 11/6/7 34/5/7
f 18/21/8 16/22/8 14/23/8 12/24/8 10/25/8 7/26/8
f 10/25/8 12/24/8 24/27/8 22/28/8
f 9/13/9 8/12/9 20/29/9 21/30/9
f 8/3/10 17/2/10 29/31/10 20/32/10
f 17/2/11 15/9/11 27/33/11 29/31/11
f 7/26/8 10/25/8 22/28/8 19/34/8
f 15/9/12 13/7/12 25/35/12 27/33/12
f 30/36/13 19/37/13 20/32/13 29/31/13
f 28/38/14 30/36/14 29/31/14 27/33/14
f 26/39/15 28/38/15 27/33/15 25/35/15
f 24/27/16 26/39/16 25/35/16 23/40/16
f 22/28/17 24/27/17 23/40/17 21/30/17
f 19/34/18 22/28/18 21/30/18 20/29/18
f 12/24/8 14/23/8 26/39/8 24/27/8
f 18/21/8 7/41/8 19/37/8 30/36/8
f 14/23/8 16/22/8 28/38/8 26/39/8
f 11/6/19 9/13/19 21/30/19 23/40/19
f 16/22/8 18/21/8 30/36/8 28/38/8
f 13/7/20 11/6/20 23/40/20 25/35/20
f 2/42/21 32/14/21 34/5/21 3/43/21
f 1/44/22 31/11/22 32/14/22 2/42/22
f 5/45/23 36/10/23 33/1/23 6/46/23
f 4/47/24 35/8/24 36/10/24 5/45/24
f 3/43/25 34/5/25 35/8/25 4/47/25
f 6/46/26 33/1/26 31/4/26 1/48/26
