# Blender v3.1.2 OBJ File: 'Witch_Tree.blend'
# www.blender.org
mtllib Witch_LanternPost.mtl
o Cylinder.016
v 0.000000 -0.682087 -0.290644
v 0.000000 5.147913 -0.290644
v 0.251705 -0.682087 -0.145322
v 0.251705 5.147913 -0.145322
v 0.251705 -0.682087 0.145322
v 0.251705 5.147913 0.145322
v -0.000000 -0.682087 0.290644
v -0.000000 5.147913 0.290644
v -0.251705 -0.682087 0.145322
v -0.251705 5.147913 0.145322
v -0.251705 -0.682087 -0.145322
v -0.251705 5.147913 -0.145322
v -0.000000 4.745236 -0.242981
v -0.000000 5.538558 1.491521
v 0.203571 4.629380 -0.235602
v 0.203571 5.422702 1.498901
v 0.203571 4.397668 -0.220842
v 0.203571 5.190990 1.513660
v -0.000000 4.281812 -0.213463
v -0.000000 5.075134 1.521039
v -0.203571 4.397668 -0.220842
v -0.203571 5.190990 1.513660
v -0.203571 4.629380 -0.235602
v -0.203571 5.422702 1.498901
vt 1.000000 0.500000
vt 1.000000 1.000000
vt 0.833333 1.000000
vt 0.833333 0.500000
vt 0.666667 1.000000
vt 0.666667 0.500000
vt 0.500000 1.000000
vt 0.500000 0.500000
vt 0.333333 1.000000
vt 0.333333 0.500000
vt 0.457846 0.370000
vt 0.250000 0.490000
vt 0.042154 0.370000
vt 0.042154 0.130000
vt 0.250000 0.010000
vt 0.457846 0.130000
vt 0.166667 1.000000
vt 0.166667 0.500000
vt -0.000000 1.000000
vt -0.000000 0.500000
vt 0.750000 0.490000
vt 0.957846 0.370000
vt 0.957846 0.130000
vt 0.750000 0.010000
vt 0.542154 0.130000
vt 0.542154 0.370000
vt 1.000000 0.500000
vt 1.000000 1.000000
vt 0.833333 1.000000
vt 0.833333 0.500000
vt 0.666667 1.000000
vt 0.666667 0.500000
vt 0.500000 1.000000
vt 0.500000 0.500000
vt 0.333333 1.000000
vt 0.333333 0.500000
vt 0.457846 0.370000
vt 0.250000 0.490000
vt 0.042154 0.370000
vt 0.042154 0.130000
vt 0.250000 0.010000
vt 0.457846 0.130000
vt 0.166667 1.000000
vt 0.166667 0.500000
vt -0.000000 1.000000
vt -0.000000 0.500000
vt 0.750000 0.490000
vt 0.957846 0.370000
vt 0.957846 0.130000
vt 0.750000 0.010000
vt 0.542154 0.130000
vt 0.542154 0.370000
vn 0.5000 0.0000 -0.8660
vn 1.0000 0.0000 0.0000
vn 0.5000 0.0000 0.8660
vn -0.5000 0.0000 0.8660
vn 0.0000 1.0000 0.0000
vn -1.0000 0.0000 0.0000
vn -0.5000 0.0000 -0.8660
vn 0.0000 -1.0000 0.0000
vn 0.4701 0.8026 -0.3671
vn 0.4701 -0.8026 0.3671
vn -0.4701 -0.8026 0.3671
vn -0.0000 0.0636 0.9980
vn -0.4701 0.8026 -0.3671
vn -0.0000 -0.0636 -0.9980
usemtl None
s off
f 1/1/1 2/2/1 4/3/1 3/4/1
f 3/4/2 4/3/2 6/5/2 5/6/2
f 5/6/3 6/5/3 8/7/3 7/8/3
f 7/8/4 8/7/4 10/9/4 9/10/4
f 4/11/5 2/12/5 12/13/5 10/14/5 8/15/5 6/16/5
f 9/10/6 10/9/6 12/17/6 11/18/6
f 11/18/7 12/17/7 2/19/7 1/20/7
f 1/21/8 3/22/8 5/23/8 7/24/8 9/25/8 11/26/8
f 13/27/9 14/28/9 16/29/9 15/30/9
f 15/30/2 16/29/2 18/31/2 17/32/2
f 17/32/10 18/31/10 20/33/10 19/34/10
f 19/34/11 20/33/11 22/35/11 21/36/11
f 16/37/12 14/38/12 24/39/12 22/40/12 20/41/12 18/42/12
f 21/36/6 22/35/6 24/43/6 23/44/6
f 23/44/13 24/43/13 14/45/13 13/46/13
f 13/47/14 15/48/14 17/49/14 19/50/14 21/51/14 23/52/14
