# Blender v3.1.2 OBJ File: '20Blends.blend'
# www.blender.org
mtllib Witch_Pumpkin.mtl
o Sphere.001_Sphere.002
v 180.485352 2.714623 -0.064161
v 180.485352 2.283979 -1.315259
v 180.485352 0.196663 -1.315259
v 180.794647 2.625079 -0.743505
v 181.228851 1.773485 -1.791767
v 181.228851 0.569150 -1.791767
v 180.794647 0.036611 -0.743505
v 180.988678 2.625079 -0.503328
v 181.415375 2.283979 -0.930029
v 181.800613 1.171317 -1.315259
v 181.415375 0.196663 -0.930029
v 180.544632 2.714623 -0.024553
v 181.228851 2.625079 -0.309301
v 181.857239 2.283979 -0.569587
v 182.277115 1.773485 -0.743505
v 182.277115 0.569150 -0.743505
v 181.228851 0.036611 -0.309301
v 181.630005 2.479669 -0.229506
v 181.197159 2.625079 0.000000
v 181.800613 2.283979 0.000000
v 182.203827 1.773485 0.000000
v 182.345413 1.171317 0.000000
v 181.800613 0.196663 0.000000
v 182.197327 2.045530 0.337809
v 180.544632 2.714623 0.024553
v 181.228851 2.625079 0.304757
v 181.857239 2.283979 0.565044
v 182.277115 1.773485 0.738961
v 182.424561 1.171317 0.800033
v 182.277115 0.569150 0.738962
v 181.228851 0.036611 0.304757
v 181.344589 2.479669 0.574122
v 182.002213 1.478300 1.013536
v 181.054932 2.625079 0.565044
v 181.535889 2.283979 1.045990
v 181.857239 1.773485 1.367349
v 181.970093 1.171317 1.480195
v 181.857239 0.569150 1.367349
v 181.535889 0.196663 1.045990
v 181.456085 2.045530 1.447143
v 181.630005 0.864335 1.707429
v 180.509903 2.714623 0.059277
v 180.794647 2.625079 0.738962
v 181.054932 2.283979 1.367349
v 181.228851 1.773485 1.787223
v 181.289932 1.171317 1.934663
v 181.228851 0.569150 1.787224
v 181.054932 0.196663 1.367349
v 180.794647 0.036611 0.738962
v 180.686951 2.479669 1.013536
v 180.841263 1.478300 1.789263
v 180.787079 0.347767 1.516864
v 180.487625 2.283979 1.480195
v 180.487625 1.773485 1.934664
v 180.487625 1.171317 2.094251
v 180.487625 0.569150 1.934664
v 180.487625 0.196663 1.480195
v 180.260391 2.479669 1.140114
v 180.086472 1.478300 2.014458
v 180.147537 0.347767 1.707429
v 179.920303 2.283979 1.367349
v 179.746384 1.773485 1.787223
v 179.685318 1.171317 1.934663
v 179.746384 0.569150 1.787224
v 179.920303 0.196663 1.367349
v 180.180588 0.036611 0.738962
v 179.911224 2.479669 0.859234
v 179.626114 2.045530 1.285935
v 179.471817 0.864335 1.516864
v 179.920303 2.625079 0.565044
v 179.117996 1.773485 1.367349
v 179.005157 1.171317 1.480193
v 179.117996 0.569150 1.367349
v 179.439362 0.196663 1.045990
v 179.519150 2.479669 0.644837
v 179.038208 2.045530 0.966196
v 178.777924 1.478300 1.140113
v 180.426071 2.714623 0.024553
v 179.117996 2.283979 0.565044
v 178.550690 1.171317 0.800032
v 178.698135 0.569150 0.738961
v 179.746384 0.036611 0.304757
v 179.471817 2.479669 0.201605
v 178.968491 2.045530 0.301723
v 178.696091 1.478300 0.355906
v 179.685318 2.625079 -0.002272
v 178.550690 1.773485 -0.002272
v 178.391098 1.171317 -0.002273
v 179.005157 0.196663 -0.002272
v 179.345245 2.479669 -0.229506
v 178.777924 2.045530 -0.342352
v 180.426071 2.714623 -0.024553
v 179.117996 2.283979 -0.569587
v 178.698135 1.773485 -0.743505
v 178.698135 0.569150 -0.743505
v 179.746384 0.036611 -0.309300
v 179.626114 2.479669 -0.574122
v 179.920303 2.625079 -0.569587
v 179.439362 2.283979 -1.050533
v 179.005157 1.171317 -1.484737
v 179.439362 0.196663 -1.050533
v 180.180588 2.625079 -0.743505
v 179.746384 1.773485 -1.791767
v 179.746384 0.569150 -1.791767
v 180.180588 0.036611 -0.743505
v 180.485352 1.171317 -1.860056
v 180.485352 -0.007731 0.000000
v 180.686951 2.714623 -0.301723
v 180.787079 2.714623 -0.201605
v 180.841263 2.714623 -0.070794
v 180.841263 2.714623 0.070794
v 180.787079 2.714623 0.201605
v 180.686951 2.714623 0.301723
v 180.556152 2.714623 0.355907
v 180.414551 2.714623 0.355907
v 180.283752 2.714623 0.301723
v 180.183624 2.714623 0.201605
v 180.129440 2.714623 0.070794
v 180.129440 2.714623 -0.070794
v 180.183624 2.714623 -0.201605
v 180.283752 2.714623 -0.301723
v 180.258698 3.258402 0.123540
v 180.285980 3.258403 0.164370
v 180.276398 3.258403 0.212533
v 180.210541 3.258402 0.239815
v 180.169708 3.258402 0.212533
v 180.160126 3.258402 0.164370
v 180.187408 3.258402 0.123540
vt 0.687500 0.625000
vt 0.625000 0.750000
vt 0.562500 0.625000
vt 0.625000 0.500000
vt 0.812500 0.875000
vt 0.569991 0.937500
vt 0.687500 0.875000
vt 0.750000 0.750000
vt 0.625000 0.250000
vt 0.687500 0.125000
vt 0.750000 0.250000
vt 0.687500 0.375000
vt 0.750000 0.500000
vt 0.812500 0.625000
vt 0.562500 0.750000
vt 0.625000 0.875000
vt 0.562500 0.875000
vt 0.531250 0.937500
vt 0.520238 0.937500
vt 0.468750 0.937500
vt 0.562500 0.375000
vt 0.500000 0.250000
vt 0.562500 0.125000
vt 0.465151 0.937500
vt 0.343750 0.937500
vt 0.484745 0.937500
vt 0.468750 0.687500
vt 0.500000 0.750000
vt 0.437500 0.750000
vt 0.500000 0.625000
vt 0.593750 0.937500
vt 0.656250 0.937500
vt 0.500000 0.500000
vt 0.531250 0.812500
vt 0.406250 0.937500
vt 0.437500 0.500000
vt 0.437500 0.625000
vt 0.437500 0.125000
vt 0.578125 0.000000
vt 0.343750 0.687500
vt 0.375000 0.750000
vt 0.312500 0.750000
vt 0.500000 0.875000
vt 0.406250 0.562500
vt 0.375000 0.375000
vt 0.375000 0.250000
vt 0.437500 0.375000
vt 0.375000 0.500000
vt 0.343750 0.437500
vt 0.406250 0.812500
vt 0.250000 0.750000
vt 0.281250 0.812500
vt 0.218750 0.812500
vt 0.312500 0.625000
vt 0.375000 0.625000
vt 0.312500 0.250000
vt 0.312500 0.125000
vt 0.093750 0.937500
vt 0.156250 0.937500
vt 0.483575 0.937500
vt 0.187500 0.500000
vt 0.156250 0.437500
vt 0.187500 0.375000
vt 0.437500 0.875000
vt 0.375000 0.875000
vt 0.312500 0.375000
vt 0.125000 0.875000
vt 0.281250 0.312500
vt 0.312500 0.500000
vt 0.312500 0.875000
vt 0.281250 0.937500
vt 0.187500 0.125000
vt 0.328125 0.000000
vt 0.250000 0.250000
vt 0.281250 0.562500
vt 0.250000 0.500000
vt 0.250000 0.375000
vt 0.250000 0.625000
vt 0.187500 0.250000
vt 0.000000 0.500000
vt 1.000000 0.625000
vt 0.937500 0.625000
vt 0.187500 0.625000
vt 0.187500 0.750000
vt 0.125000 0.625000
vt 0.156250 0.687500
vt 0.093750 0.687500
vt 0.218750 0.937500
vt 0.218750 0.312500
vt 0.459131 0.937500
vt 0.062500 0.125000
vt 0.203125 0.000000
vt 0.125000 0.250000
vt 0.218750 0.562500
vt 0.156250 0.812500
vt 0.125000 0.375000
vt 0.125000 0.500000
vt 0.093750 0.812500
vt 0.062500 0.375000
vt 0.062500 0.500000
vt 1.000000 0.500000
vt 0.031250 0.937500
vt 0.031250 0.812500
vt 0.031250 0.562500
vt 0.093750 0.562500
vt 0.031250 0.687500
vt 0.000000 0.625000
vt 0.968750 0.687500
vt 1.000000 0.250000
vt 0.937500 0.375000
vt 0.000000 0.250000
vt 0.703125 0.000000
vt 0.812500 0.125000
vt 0.875000 0.250000
vt 0.812500 0.375000
vt 0.000000 0.875000
vt 1.000000 0.875000
vt 0.968750 0.937500
vt 0.968750 0.812500
vt 0.062500 0.750000
vt 0.495480 0.937500
vt 0.937500 0.125000
vt 0.078125 0.000000
vt 0.953125 0.000000
vt 0.875000 0.500000
vt 0.535770 0.937500
vt 0.937500 0.750000
vt 0.875000 0.750000
vt 0.906250 0.937500
vt 0.906250 0.812500
vt 0.875000 0.875000
vt 0.547675 0.937500
vt 0.843750 0.937500
vt 0.569806 0.937500
vt 0.554090 0.937500
vt 0.529364 0.937500
vt 0.453125 0.000000
vt 0.493061 0.937500
vt 0.828125 0.000000
vn 0.6351 0.4398 -0.6351
vn -0.0000 0.9455 -0.3255
vn 0.1626 -0.9053 -0.3925
vn -0.0000 0.4398 -0.8981
vn 0.4975 0.6169 -0.6099
vn 0.3120 0.8691 -0.3838
vn 0.6997 0.7145 0.0000
vn 0.3925 -0.9052 -0.1626
vn -0.7186 -0.4564 0.5247
vn 0.5484 0.8344 -0.0550
vn 0.7063 0.5579 -0.4357
vn 0.1725 0.9698 -0.1725
vn 0.9690 0.2278 0.0955
vn 0.3745 0.8896 -0.2616
vn 0.7826 0.6178 0.0774
vn 0.5929 0.5449 0.5930
vn 0.9690 0.2276 -0.0960
vn 0.1536 -0.9881 0.0000
vn 0.7095 0.7011 0.0705
vn 0.3534 0.7716 0.5289
vn 0.2909 0.9563 0.0298
vn 0.5621 0.2185 0.7977
vn 0.5332 -0.7673 0.3563
vn 0.2440 0.9698 0.0000
vn 0.4605 0.8147 0.3523
vn 0.6771 0.6646 0.3160
vn 0.9846 0.1449 -0.0977
vn 0.6862 -0.2562 0.6808
vn 0.8047 -0.2516 0.5377
vn 0.3504 0.9069 0.2341
vn 0.6627 0.6039 0.4428
vn 0.1274 0.8941 0.4294
vn 0.2553 0.6646 0.7022
vn 0.8052 -0.2494 0.5380
vn 0.1296 -0.9724 0.1940
vn 0.5511 0.6646 0.5047
vn -0.7067 -0.0322 0.7068
vn -0.7940 -0.2193 0.5669
vn 0.2750 0.9437 0.1837
vn 0.3562 -0.7673 0.5332
vn 0.9534 0.2178 0.2089
vn -0.1400 0.9802 0.1400
vn -0.0414 -0.7388 0.6726
vn 0.1390 0.9805 0.1391
vn 0.5556 0.0000 0.8315
vn 0.4908 -0.4684 0.7346
vn 0.4359 0.8801 0.1883
vn 0.2529 0.8904 0.3785
vn -0.2599 0.8918 0.3703
vn 0.5377 0.2516 0.8047
vn 0.4816 0.4987 0.7207
vn 0.3664 -0.2562 0.8945
vn 0.0826 0.9060 0.4152
vn 0.0000 -0.9906 0.1368
vn 0.1561 0.5998 0.7847
vn 0.1040 -0.8460 0.5229
vn 0.1893 -0.2420 0.9516
vn -0.0455 -0.9724 0.2288
vn -0.9493 0.2515 -0.1888
vn -0.1470 0.6577 0.7388
vn 0.1888 -0.2516 0.9492
vn -0.3127 0.7561 0.5749
vn 0.0691 0.9482 0.3101
vn -0.3154 -0.7710 0.5533
vn -0.5554 0.0199 0.8313
vn 0.1655 -0.5298 0.8318
vn 0.0455 -0.9724 0.2288
vn 0.1856 -0.7600 0.6229
vn -0.0968 -0.9906 0.0968
vn -0.6283 0.6106 0.4821
vn 0.2771 0.2461 0.9288
vn 0.8822 0.4679 0.0534
vn -0.3822 0.0536 0.9225
vn -0.1951 -0.0000 0.9808
vn -0.1820 0.9481 0.2607
vn -0.3734 0.2562 0.8916
vn -0.0903 -0.8863 0.4542
vn -0.3409 0.7895 0.5103
vn -0.3563 -0.7673 0.5332
vn -0.5396 0.2377 0.8076
vn 0.1018 0.8906 0.4433
vn -0.5377 0.2515 0.8047
vn -0.2810 0.8939 0.3493
vn -0.1593 -0.5773 0.8008
vn -0.3096 0.7625 0.5680
vn -0.5332 -0.7673 0.3562
vn -0.3438 0.9389 -0.0178
vn -0.9492 -0.2516 0.1888
vn -0.2189 -0.2192 0.9508
vn -0.3130 0.9481 0.0553
vn -0.8938 0.4386 0.0935
vn -0.6275 0.7562 0.1857
vn -0.3925 -0.9052 0.1626
vn -0.1296 -0.9724 0.1940
vn -0.6499 0.7053 0.2832
vn -0.8047 -0.2516 0.5377
vn -0.8461 -0.5331 -0.0000
vn 0.1086 -0.9881 -0.1086
vn -0.1051 -0.9035 -0.4154
vn -0.7361 0.4831 0.4741
vn -0.2426 0.8918 0.3819
vn -0.2290 0.9386 -0.2579
vn -0.4456 0.8940 0.0476
vn 0.0000 1.0000 -0.0000
vn -0.6205 0.7625 0.1830
vn -0.1368 -0.9906 0.0000
vn -0.0966 -0.9906 -0.0966
vn -0.2458 0.0000 -0.9693
vn -0.8866 0.4530 0.0930
vn -0.8276 0.2193 0.5167
vn 0.6172 -0.4879 -0.6172
vn -0.6596 0.7041 -0.2631
vn -0.0061 -0.2518 0.9678
vn -0.1976 0.9803 0.0000
vn -0.9239 0.0000 -0.3827
vn -0.6263 0.6577 -0.4185
vn -0.2596 0.9482 -0.1830
vn -0.6771 0.6645 -0.3160
vn -0.3469 0.8943 -0.2828
vn -0.4421 0.8914 0.0995
vn 0.5731 0.6596 -0.4863
vn -0.5983 -0.5331 -0.5983
vn -0.3512 0.9064 -0.2347
vn -0.6355 -0.4498 0.6276
vn -0.1391 0.9805 -0.1391
vn -0.4324 0.8809 -0.1923
vn 0.4733 0.7429 -0.4733
vn 0.0000 0.2088 0.9780
vn -0.2529 0.8903 -0.3786
vn 0.6999 0.1798 0.6912
vn -0.6943 0.3911 0.6042
vn 0.4155 -0.9035 0.1051
vn 0.8729 -0.4879 0.0000
vn -0.9984 0.0563 0.0000
vn 0.1511 0.9706 -0.1871
vn 0.0966 -0.9906 0.0966
vn -0.6501 0.3932 -0.6502
vn 0.2393 0.9706 -0.0249
vn 0.6263 0.6577 0.4185
vn -0.0000 -0.4879 -0.8729
vn 0.1150 0.9784 0.1720
vn 0.1470 0.6577 0.7388
vn -0.1888 -0.2516 0.9492
vn -0.1093 0.8282 0.5496
vn 0.3844 0.8694 -0.3106
vn -0.3925 -0.9052 -0.1626
vn -0.2325 0.8748 0.4252
vn -0.7858 0.5983 0.1563
vn -0.4652 0.8746 0.1366
vn -0.6191 0.4832 -0.6191
vn 0.2297 0.7998 -0.5546
vn -0.1146 0.9785 -0.1716
vn 0.3827 0.0000 -0.9239
vn 0.1111 0.9927 0.0460
vn -0.5992 0.7984 -0.0590
vn -0.8501 0.4987 -0.1691
vn 0.0145 0.8813 0.4724
vn 0.0462 0.9927 0.1114
vn -0.1619 0.2192 0.9622
vn 0.0061 -0.2463 0.9692
vn -0.1483 0.7967 -0.5858
vn -0.1724 0.4685 0.8665
vn 0.9239 0.0000 -0.3827
vn -0.6808 0.2562 0.6862
vn -0.4455 -0.5975 0.6667
vn 0.1108 0.9928 -0.0459
vn -0.4654 0.7984 0.3820
vn 0.9690 -0.2275 -0.0959
vn -0.8315 -0.0000 0.5556
vn 0.3419 0.8805 0.3284
vn -0.8449 0.5277 0.0882
vn 0.4919 0.8692 -0.0499
vn -0.0000 -0.9881 -0.1536
vn 0.1871 0.9706 -0.1511
vn -0.7413 0.2338 -0.6291
vn -0.1487 0.2607 -0.9539
vn 0.5123 0.4952 -0.7016
vn -0.5898 0.0012 -0.8076
vn 0.1421 0.3862 -0.9114
vn -0.0000 0.3263 -0.9453
usemtl PumpK_Orange
s off
f 5/1/1 9/2/1 15/3/1 10/4/1
f 102/5/2 1/6/2 4/7/2 2/8/2
f 11/9/3 7/10/3 3/11/3 6/12/3
f 106/13/4 103/14/4 2/8/4 5/1/4
f 14/15/5 15/3/5 9/2/5
f 14/15/6 9/2/6 8/16/6 13/17/6
f 110/18/7 123/19/7 111/20/7
f 11/9/8 16/21/8 23/22/8 17/23/8
f 42/24/9 113/25/9 124/26/9
f 24/27/10 20/28/10 27/29/10
f 20/28/11 24/27/11 21/30/11
f 109/31/12 8/16/12 108/32/12
f 21/30/13 22/33/13 15/3/13
f 13/17/14 18/34/14 14/15/14
f 21/30/15 15/3/15 14/15/15 20/28/15
f 112/35/16 124/26/16 113/25/16
f 29/36/17 22/33/17 21/30/17 28/37/17
f 31/38/18 107/39/18 17/23/18 23/22/18
f 14/15/19 18/34/19 20/28/19
f 40/40/20 35/41/20 44/42/20
f 13/17/21 110/18/21 19/43/21 18/34/21
f 28/37/22 33/44/22 29/36/22
f 38/45/23 39/46/23 30/47/23
f 111/20/24 19/43/24 110/18/24
f 18/34/25 19/43/25 20/28/25
f 24/27/26 27/29/26 28/37/26
f 21/30/27 24/27/27 28/37/27
f 37/48/28 41/49/28 38/45/28
f 38/45/29 30/47/29 29/36/29 37/48/29
f 27/29/30 32/50/30 35/41/30
f 29/36/31 33/44/31 37/48/31
f 53/51/32 50/52/32 58/53/32
f 40/40/33 44/42/33 45/54/33
f 33/44/34 28/37/34 36/55/34
f 48/56/35 49/57/35 39/46/35
f 35/41/36 40/40/36 36/55/36
f 117/58/37 116/59/37 126/60/37
f 63/61/38 69/62/38 64/63/38
f 26/64/39 112/35/39 34/65/39 32/50/39
f 48/56/40 39/46/40 38/45/40 47/66/40
f 33/44/41 36/55/41 37/48/41
f 117/58/42 70/67/42 116/59/42
f 47/66/43 52/68/43 48/56/43
f 113/25/44 34/65/44 112/35/44
f 41/49/45 37/48/45 46/69/45
f 38/45/46 41/49/46 47/66/46
f 32/50/47 34/65/47 35/41/47
f 44/42/48 35/41/48 34/65/48 43/70/48
f 43/70/49 114/71/49 50/52/49
f 46/69/50 37/48/50 36/55/50 45/54/50
f 36/55/51 40/40/51 45/54/51
f 41/49/52 46/69/52 47/66/52
f 44/42/53 50/52/53 53/51/53
f 66/72/54 107/73/54 49/57/54 57/74/54
f 46/69/55 51/75/55 55/76/55
f 52/68/56 47/66/56 56/77/56
f 51/75/57 45/54/57 54/78/57
f 65/79/58 66/72/58 57/74/58
f 88/80/59 87/81/59 94/82/59
f 62/83/60 54/78/60 53/51/60 61/84/60
f 56/77/61 47/66/61 46/69/61 55/76/61
f 71/85/62 68/86/62 76/87/62
f 50/52/63 114/71/63 115/88/63 58/53/63
f 60/89/64 64/63/64 65/79/64
f 125/90/65 126/60/65 116/59/65
f 48/56/66 52/68/66 57/74/66
f 49/57/67 48/56/67 57/74/67
f 52/68/68 56/77/68 60/89/68 57/74/68
f 82/91/69 107/92/69 66/72/69 74/93/69
f 61/84/70 68/86/70 62/83/70
f 51/75/71 54/78/71 59/94/71 55/76/71
f 114/71/72 42/24/72 124/26/72 125/90/72
f 125/90/73 116/59/73 115/88/73
f 55/76/74 59/94/74 63/61/74
f 58/53/75 115/88/75 116/59/75 67/95/75
f 59/94/76 62/83/76 63/61/76
f 57/74/77 60/89/77 65/79/77
f 62/83/78 68/86/78 71/85/78
f 74/93/79 65/79/79 64/63/79 73/96/79
f 64/63/80 69/62/80 73/96/80
f 116/59/81 70/67/81 67/95/81
f 72/97/82 63/61/82 62/83/82 71/85/82
f 61/84/83 58/53/83 67/95/83
f 60/89/84 56/77/84 64/63/84
f 76/87/85 68/86/85 67/95/85 75/98/85
f 74/93/86 73/96/86 81/99/86
f 70/67/87 117/58/87 75/98/87
f 81/99/88 80/100/88 88/101/88
f 69/62/89 72/97/89 73/96/89
f 75/98/90 117/58/90 118/102/90 83/103/90
f 85/104/91 77/105/91 76/87/91 84/106/91
f 87/107/92 84/106/92 91/108/92
f 74/93/93 81/99/93 89/109/93 82/91/93
f 66/72/94 65/79/94 74/93/94
f 61/84/95 67/95/95 68/86/95
f 81/99/96 73/96/96 72/97/96 80/100/96
f 81/99/97 88/101/97 95/110/97 89/111/97
f 17/23/98 107/112/98 7/10/98 11/9/98
f 105/113/99 101/114/99 104/115/99 3/11/99
f 71/85/100 76/87/100 77/105/100
f 118/102/101 86/116/101 83/103/101
f 86/117/102 119/118/102 90/119/102
f 79/120/103 75/98/103 83/103/103
f 78/121/104 118/102/104 117/58/104
f 91/108/105 84/106/105 83/103/105 90/119/105
f 96/122/106 107/123/106 82/91/106 89/109/106
f 105/113/107 107/124/107 96/122/107 101/114/107
f 100/125/108 103/14/108 106/13/108 104/115/108
f 76/87/109 79/120/109 84/106/109
f 85/104/110 87/81/110 88/80/110
f 6/12/111 10/4/111 16/21/111 11/9/111
f 79/120/112 83/103/112 84/106/112
f 78/121/113 126/60/113 127/126/113 118/102/113
f 119/118/114 86/116/114 118/102/114
f 88/80/115 94/82/115 100/125/115 95/110/115
f 94/82/116 93/127/116 99/128/116
f 90/119/117 119/118/117 120/129/117 97/130/117
f 91/108/118 93/127/118 94/82/118
f 93/127/119 90/119/119 97/130/119
f 120/129/120 98/131/120 97/130/120
f 92/132/104 120/129/104 119/118/104
f 1/6/121 102/5/121 121/133/121 128/134/121
f 95/110/122 100/125/122 104/115/122 101/114/122
f 93/127/123 97/130/123 99/128/123
f 92/132/124 127/126/124 128/134/124 120/129/124
f 121/133/125 98/131/125 120/129/125
f 97/130/126 98/131/126 99/128/126
f 108/32/127 122/135/127 109/31/127
f 115/88/128 114/71/128 125/90/128
f 99/128/129 98/131/129 102/5/129
f 123/19/130 12/136/130 109/31/130 122/135/130
f 84/106/131 87/107/131 85/104/131
f 23/22/132 30/47/132 39/46/132 31/38/132
f 16/21/133 22/33/133 30/47/133 23/22/133
f 119/118/134 118/102/134 127/126/134
f 8/16/135 109/31/135 13/17/135
f 49/57/136 107/137/136 31/38/136 39/46/136
f 121/133/137 120/129/137 128/134/137
f 19/43/138 111/20/138 26/64/138
f 36/55/139 28/37/139 27/29/139 35/41/139
f 3/11/140 104/115/140 106/13/140 6/12/140
f 34/65/141 113/25/141 43/70/141
f 54/78/142 45/54/142 44/42/142 53/51/142
f 64/63/143 56/77/143 55/76/143 63/61/143
f 53/51/144 58/53/144 61/84/144
f 8/16/145 9/2/145 4/7/145
f 89/111/146 95/110/146 101/114/146 96/122/146
f 67/95/147 70/67/147 75/98/147
f 80/100/148 85/104/148 88/80/148
f 83/103/149 86/117/149 90/119/149
f 94/82/150 99/128/150 103/14/150 100/125/150
f 2/8/151 4/7/151 9/2/151 5/1/151
f 98/131/152 121/133/152 102/5/152
f 106/13/153 5/1/153 10/4/153 6/12/153
f 25/138/154 112/35/154 26/64/154 111/20/154
f 90/119/155 93/127/155 91/108/155
f 87/81/156 91/108/156 94/82/156
f 43/70/157 50/52/157 44/42/157
f 42/24/158 114/71/158 43/70/158 113/25/158
f 45/54/159 51/75/159 46/69/159
f 124/26/160 25/138/160 111/20/160 123/19/160
f 103/14/161 99/128/161 102/5/161 2/8/161
f 59/94/162 54/78/162 62/83/162
f 10/4/163 15/3/163 22/33/163 16/21/163
f 71/85/164 77/105/164 72/97/164
f 69/62/165 63/61/165 72/97/165
f 12/136/166 110/18/166 13/17/166 109/31/166
f 75/98/167 79/120/167 76/87/167
f 29/36/168 30/47/168 22/33/168
f 72/97/169 77/105/169 80/100/169
f 26/64/170 32/50/170 27/29/170
f 80/100/171 77/105/171 85/104/171
f 27/29/172 20/28/172 19/43/172 26/64/172
f 7/10/173 107/139/173 105/113/173 3/11/173
f 4/7/174 108/32/174 8/16/174
usemtl PumpK_Green
f 1/6/175 122/135/175 108/32/175 4/7/175
f 110/18/176 12/136/176 123/19/176
f 112/35/177 25/138/177 124/26/177
f 78/121/178 117/58/178 126/60/178
f 92/132/179 119/118/179 127/126/179
f 128/134/180 122/135/180 1/6/180
f 128/134/104 127/126/104 126/60/104 125/90/104 124/26/104 123/19/104 122/135/104
